SplineFontDB: 3.2
FontName: Monotty
FullName: Monotty
FamilyName: Monotty
Weight: Normal
Copyright: Copyright (c) 2020, The Monotty Project Authors (https://github.com/monotty/fonts),\nwith Reserved Font Name Monotty.
Version: 0.010;
DefaultBaseFilename: monotty-dev2
StrokeWidth: 100
ItalicAngle: 0
UnderlinePosition: -200
UnderlineWidth: 100
Ascent: 1400
Descent: 600
InvalidEm: 0
sfntRevision: 0x00000000
LayerCount: 2
Layer: 0 0 "Outline" 1
Layer: 1 0 "Skeleton" 0
MultiLayer: 1
XUID: -1
UniqueID: -1
UseXUID: 1
UseUniqueID: 1
StyleMap: 0x0040
FSType: 0
OS2Version: 4
OS2_WeightWidthSlopeOnly: 0
OS2_UseTypoMetrics: 0
CreationTime: 1579600521
ModificationTime: 1589990872
PfmFamily: 49
TTFWeight: 400
TTFWidth: 5
LineGap: 0
VLineGap: 0
OS2TypoAscent: 1400
OS2TypoAOffset: 0
OS2TypoDescent: -600
OS2TypoDOffset: 0
OS2TypoLinegap: 0
OS2WinAscent: 1400
OS2WinAOffset: 0
OS2WinDescent: 600
OS2WinDOffset: 0
HheadAscent: 1400
HheadAOffset: 0
HheadDescent: -600
HheadDOffset: 0
OS2CapHeight: 900
OS2XHeight: 800
OS2Vendor: '
OS '
OS2UnicodeRanges: 00008000.00000000.00000000.00000000
Lookup: 1 0 0 "-------------------------------------- 3.1" { } []
Lookup: 1 0 0 "locl [SSUB]: Marathi" { "Dflt +IZIA Mar (La, Sha)"  } ['locl' ('dev2' <'MAR ' > ) ]
Lookup: 1 0 0 "locl [SSUB]: Nepali" { "Dflt +IZIA Nep (Jha, five, eight, nine)"  } ['locl' ('dev2' <'NEP ' > ) ]
Lookup: 1 0 0 "-------------------------------------- 3.2" { } []
Lookup: 4 0 0 "nukt [LSUB]: All +- nukta +IZIA Nukta Forms" { "All +- nukta +IZIA Nukta Forms"  } ['nukt' ('dev2' <'MAR ' 'NEP ' 'dflt' > ) ]
Lookup: 1 0 0 "-------------------------------------- 3.3" { } []
Lookup: 4 0 0 "akhn [LSUB]: Ka_Ssa, Ja_Nya" { "Ka_Ssa, Ja_Nya"  } ['akhn' ('dev2' <'MAR ' 'NEP ' 'dflt' > ) ]
Lookup: 1 0 0 "-------------------------------------- 3.4" { } []
Lookup: 4 0 0 "rphf [LSUB]: Ra +- halant +IZIA reph" { "Ra +- halant +IZIA reph"  } ['rphf' ('dev2' <'MAR ' 'NEP ' 'dflt' > ) ]

StartChar: binducandra
Encoding: 16 2304 0
Width: 1000
GlyphClass: 4
InSpiro: 1
Flags: MW
AnchorPoint: "above_mark" 750 850 mark 0
LayerCount: 2
Layer: 0  1 0 1  #fffffffe 1  #fffffffe 1 10 round round [1 0 0 1] [0 255]
SplineSet
595 1009 m 0
 565 1009 494 1079 494 1110 c 0
 494 1161 530 1213 564 1243 c 0
 602 1276 652 1296 705 1296 c 0
 829 1296 930 1197 976 1112 c 0
 993 1080 1006 1049 1006 1020 c 0
 1006 1013 1002 1009 995 1009 c 0
 964 1009 898 1077 894 1107 c 0
 891 1130 884 1149 875 1163 c 1
 858 1174 825 1184 795 1184 c 0
 698 1184 618 1107 606 1018 c 0
 605 1012 601 1009 595 1009 c 0
846 974 m 0
 846 944 824 922 794 922 c 0
 736 922 654 1003 654 1064 c 0
 654 1094 674 1116 705 1116 c 0
 758 1116 807 1059 829 1024 c 0
 841 1004 846 995 846 974 c 0
796 1004 m 1
 796 1004 l 1
EndSplineSet
Layer: 1  0 1 1  #fffffffe 1  #fffffffe 1 50 miter butt [1 0 0 1] [0 255]
Refer: 1157 -1 S 1 0 0 1 0 0 2
Position2: "Zero width post-base -1000" dx=-1000 dy=0 dh=-1000 dv=0
Colour: ff00ff
EndChar

StartChar: candrabindu
Encoding: 17 2305 1
Width: 1000
GlyphClass: 4
InSpiro: 1
Flags: MW
AnchorPoint: "above_mark" 750 850 mark 0
LayerCount: 2
Layer: 0  1 0 1  #fffffffe 1  #fffffffe 1 10 round round [1 0 0 1] [0 255]
SplineSet
905 1191 m 0
 935 1191 1006 1121 1006 1090 c 0
 1006 1039 970 987 936 957 c 0
 898 924 848 904 795 904 c 0
 671 904 570 1003 524 1088 c 0
 507 1120 494 1151 494 1180 c 0
 494 1187 498 1191 505 1191 c 0
 536 1191 602 1123 606 1093 c 0
 609 1071 616 1050 625 1037 c 1
 641 1025 675 1016 705 1016 c 0
 802 1016 882 1093 894 1182 c 0
 895 1188 899 1191 905 1191 c 0
846 1136 m 0
 846 1106 824 1084 794 1084 c 0
 736 1084 654 1165 654 1226 c 0
 654 1256 674 1278 705 1278 c 0
 758 1278 807 1221 829 1186 c 0
 841 1166 846 1157 846 1136 c 0
796 1166 m 1
 796 1166 l 1
EndSplineSet
Layer: 1  0 1 1  #fffffffe 1  #fffffffe 1 50 miter butt [1 0 0 1] [0 255]
Refer: 1158 -1 N 1 0 0 1 0 0 2
Position2: "Zero width post-base -1000" dx=-1000 dy=0 dh=-1000 dv=0
Substitution2: "vowel signs +IZIA placeholder" _placeholder
Colour: ff00ff
EndChar

StartChar: anusvara
Encoding: 18 2306 2
Width: 1000
GlyphClass: 4
InSpiro: 1
Flags: MW
AnchorPoint: "above_mark" 850 850 mark 0
LayerCount: 2
Layer: 0  1 0 1  #fffffffe 1  #fffffffe 1 10 round round [1 0 0 1] [0 255]
SplineSet
947 1084 m 0
 947 1054 925 1032 895 1032 c 0
 837 1032 755 1113 755 1174 c 0
 755 1204 775 1226 806 1226 c 0
 859 1226 908 1169 930 1134 c 0
 942 1114 947 1105 947 1084 c 0
897 1114 m 1
 897 1114 l 1
EndSplineSet
Layer: 1  0 1 1  #fffffffe 1  #fffffffe 1 50 miter butt [1 0 0 1] [0 255]
Refer: 875 -1 N 1 0 0 1 351 1410 2
Position2: "Zero width post-base -1000" dx=-1000 dy=0 dh=-1000 dv=0
Substitution2: "vowel signs +IZIA placeholder" _placeholder
Colour: ff00ff
EndChar

StartChar: visarga
Encoding: 19 2307 3
Width: 1000
GlyphClass: 2
InSpiro: 1
Flags: MW
LayerCount: 2
Layer: 0  1 0 1  #fffffffe 1  #fffffffe 1 10 round round [1 0 0 1] [0 255]
SplineSet
596 555 m 0
 596 525 574 503 544 503 c 0
 486 503 404 584 404 645 c 0
 404 675 424 697 455 697 c 0
 508 697 557 640 579 605 c 0
 591 585 596 576 596 555 c 0
596 155 m 0
 596 125 574 103 544 103 c 0
 486 103 404 184 404 245 c 0
 404 275 424 297 455 297 c 0
 508 297 557 240 579 205 c 0
 591 185 596 176 596 155 c 0
546 585 m 1
 546 585 l 1
546 185 m 1
 546 185 l 1
EndSplineSet
Layer: 1  0 1 1  #fffffffe 1  #fffffffe 1 50 miter butt [1 0 0 1] [0 255]
Refer: 875 -1 N 1 0 0 1 0 881 2
Refer: 875 -1 N 1 0 0 1 0 481 2
Colour: ffffff
EndChar

StartChar: A_short
Encoding: 20 2308 4
Width: 1000
GlyphClass: 2
InSpiro: 1
Flags: MW
LayerCount: 2
Layer: 0  1 0 1  #fffffffe 1  #fffffffe 1 10 round round [1 0 0 1] [0 255]
SplineSet
794 821 m 1
 771 841 744 878 744 895 c 0
 744 902 748 906 755 906 c 2
 776 906 l 1
 708 1000 l 1
 668 1021 606 1015 558 1030 c 0
 464 1059 394 1146 368 1236 c 2
 345 1316 l 2
 344 1319 344 1323 344 1325 c 0
 344 1332 348 1336 355 1336 c 0
 386 1336 447 1273 455 1244 c 2
 478 1164 l 2
 481 1155 483 1146 485 1139 c 1
 542 1121 600 1128 651 1104 c 0
 676 1092 711 1069 742 1038 c 0
 770 1010 784 988 795 973 c 2
 844 906 l 1
 955 906 l 2
 985 906 1056 836 1056 805 c 0
 1056 798 1052 794 1045 794 c 2
 906 794 l 1
 906 514 906 235 906 -45 c 0
 906 -52 902 -56 895 -56 c 0
 865 -56 794 14 794 45 c 2
 794 382 l 1
 777 378 758 376 738 376 c 0
 724 376 709 377 694 380 c 1
 703 353 708 329 708 296 c 0
 708 187 636 93 526 93 c 0
 423 93 338 171 283 233 c 0
 224 300 186 370 144 445 c 2
 102 521 l 2
 97 530 94 539 94 545 c 0
 94 552 98 556 105 556 c 0
 132 556 183 506 198 479 c 0
 241 401 285 299 344 240 c 0
 363 221 396 205 438 205 c 0
 531 205 596 292 596 386 c 0
 596 431 582 472 563 494 c 1
 540 487 517 483 492 483 c 0
 456 483 441 491 410 522 c 0
 387 545 372 571 372 585 c 0
 372 592 376 596 383 596 c 0
 389 596 396 595 402 595 c 0
 425 595 448 599 471 606 c 0
 473 609 476 610 480 610 c 0
 481 610 481 610 482 610 c 0
 538 631 598 679 598 755 c 0
 598 767 596 779 593 788 c 1
 508 826 397 780 341 746 c 0
 339 745 338 744 335 744 c 0
 305 744 234 814 234 845 c 0
 234 849 236 852 239 854 c 0
 293 886 356 913 435 913 c 0
 563 913 668 812 700 723 c 0
 707 703 710 685 710 668 c 0
 710 592 663 542 613 514 c 1
 621 505 627 497 634 488 c 0
 639 488 645 488 650 488 c 0
 713 488 761 516 794 550 c 1
 794 821 l 1
EndSplineSet
Layer: 1  0 1 1  #fffffffe 1  #fffffffe 1 50 miter butt [1 0 0 1] [0 255]
Refer: 1144 -1 S 1 0 0 1 0 0 2
Refer: 5 2309 N 1 0 0 1 0 0 2
MultipleSubs2: "Vowels decomposition" A E_short_sign
Colour: ffff
EndChar

StartChar: A
Encoding: 21 2309 5
Width: 1000
GlyphClass: 2
InSpiro: 1
Flags: MW
LayerCount: 2
Layer: 0  1 0 1  #fffffffe 1  #fffffffe 1 10 round round [1 0 0 1] [0 255]
SplineSet
955 906 m 0
 985 906 1056 836 1056 805 c 0
 1056 798 1052 794 1045 794 c 2
 906 794 l 1
 906 514 906 235 906 -45 c 0
 906 -52 902 -56 895 -56 c 0
 865 -56 794 14 794 45 c 2
 794 382 l 1
 777 378 758 376 738 376 c 0
 724 376 709 377 694 380 c 1
 703 353 708 329 708 296 c 0
 708 187 636 93 526 93 c 0
 423 93 338 171 283 233 c 0
 224 300 186 370 144 445 c 2
 102 521 l 2
 97 530 94 539 94 545 c 0
 94 552 98 556 105 556 c 0
 132 556 183 506 198 479 c 0
 241 401 285 299 344 240 c 0
 363 221 396 205 438 205 c 0
 531 205 596 292 596 386 c 0
 596 431 582 472 563 494 c 1
 540 487 517 483 492 483 c 0
 456 483 441 491 410 522 c 0
 387 545 372 571 372 585 c 0
 372 592 376 596 383 596 c 0
 389 596 396 595 402 595 c 0
 425 595 448 599 471 606 c 0
 473 609 476 610 480 610 c 0
 481 610 481 610 482 610 c 0
 538 631 598 679 598 755 c 0
 598 767 596 779 593 788 c 1
 508 826 397 780 341 746 c 0
 339 745 338 744 335 744 c 0
 305 744 234 814 234 845 c 0
 234 849 236 852 239 854 c 0
 293 886 356 913 435 913 c 0
 563 913 668 812 700 723 c 0
 707 703 710 685 710 668 c 0
 710 592 663 542 613 514 c 1
 621 505 627 497 634 488 c 0
 639 488 645 488 650 488 c 0
 713 488 761 516 794 550 c 1
 794 821 l 1
 771 841 744 878 744 895 c 0
 744 902 748 906 755 906 c 0
 822 906 888 906 955 906 c 0
EndSplineSet
Layer: 1  0 1 1  #fffffffe 1  #fffffffe 1 50 miter butt [1 0 0 1] [0 255]
Refer: 1647 -1 N 1 0 0 1 0 0 2
Refer: 1246 -1 N 1 0 0 1 0 0 2
Refer: 1153 -1 N 1 0 0 1 0 0 2
Refer: 857 -1 N 1 0 0 1 0 0 2
Colour: ffff
EndChar

StartChar: Aa
Encoding: 22 2310 6
Width: 1000
GlyphClass: 2
Flags: MW
AnchorPoint: "below_middle_mark" 402 0 basechar 0
LayerCount: 2
Layer: 0  1 0 1  #fffffffe 1  #fffffffe 1 10 round round [1 0 0 1] [0 255]
SplineSet
955 906 m 2
 985 906 1056 836 1056 805 c 0
 1056 798 1052 794 1045 794 c 2
 1006 794 l 1
 1006 -45 l 2
 1006 -52 1002 -56 995 -56 c 0
 965 -56 894 14 894 45 c 2
 894 794 l 1
 865 794 835 794 806 794 c 1
 806 514 806 235 806 -45 c 0
 806 -52 802 -56 795 -56 c 0
 765 -56 694 14 694 45 c 2
 694 382 l 1
 677 378 658 376 638 376 c 0
 624 376 609 377 594 380 c 1
 603 353 608 329 608 296 c 0
 608 187 536 93 426 93 c 0
 323 93 238 171 183 233 c 0
 124 300 86 370 44 445 c 2
 2 521 l 2
 -3 530 -6 539 -6 545 c 0
 -6 552 -2 556 5 556 c 0
 32 556 83 506 98 479 c 0
 141 401 185 299 244 240 c 0
 263 221 296 205 338 205 c 0
 431 205 496 292 496 386 c 0
 496 431 482 472 463 494 c 1
 440 487 417 483 392 483 c 0
 356 483 341 491 310 522 c 0
 287 545 272 571 272 585 c 0
 272 592 276 596 283 596 c 0
 289 596 296 595 302 595 c 0
 325 595 348 599 371 606 c 0
 373 609 376 610 380 610 c 0
 381 610 381 610 382 610 c 0
 438 631 498 679 498 755 c 0
 498 767 496 779 493 788 c 1
 409 826 297 779 241 746 c 0
 239 745 238 744 235 744 c 0
 205 744 134 814 134 845 c 0
 134 849 136 852 139 854 c 0
 193 886 256 913 335 913 c 0
 463 913 568 812 600 723 c 0
 607 703 610 685 610 668 c 0
 610 592 563 542 513 514 c 1
 521 505 527 497 534 488 c 0
 539 488 545 488 550 488 c 0
 613 488 661 516 694 550 c 1
 694 821 l 1
 671 841 644 878 644 895 c 0
 644 902 648 906 655 906 c 2
 955 906 l 2
EndSplineSet
Layer: 1  0 1 1  #fffffffe 1  #fffffffe 1 50 miter butt [1 0 0 1] [0 255]
Refer: 1647 -1 N 1 0 0 1 0 0 2
Refer: 5 2309 N 1 0 0 1 -100 0 2
Refer: 857 -1 N 1 0 0 1 100 0 2
Colour: ffff
EndChar

StartChar: I
Encoding: 23 2311 7
Width: 1000
GlyphClass: 2
Flags: MW
AnchorPoint: "below_mark" 842 -137 basechar 0
AnchorPoint: "below_middle_mark" 500 -100 basechar 0
AnchorPoint: "above_mark" 750 850 basechar 0
LayerCount: 2
Layer: 0  1 0 1  #fffffffe 1  #fffffffe 1 10 round round [1 0 0 1] [0 255]
SplineSet
1005 906 m 0
 1035 906 1106 836 1106 805 c 0
 1106 798 1102 794 1095 794 c 2
 806 794 l 1
 806 605 l 2
 806 598 802 594 795 594 c 2
 645 594 l 2
 633 594 621 594 609 594 c 0
 517 594 425 580 425 489 c 0
 425 457 437 436 453 423 c 1
 502 436 559 450 616 450 c 0
 660 450 688 444 729 426 c 0
 755 415 793 392 828 357 c 0
 864 321 884 287 895 261 c 0
 907 234 912 210 912 187 c 0
 912 50 782 8 658 -3 c 1
 703 -37 747 -63 807 -83 c 0
 836 -92 898 -152 898 -182 c 0
 898 -189 894 -193 887 -193 c 0
 884 -193 881 -192 877 -191 c 0
 764 -154 660 -74 583 -7 c 1
 575 -7 568 -8 560 -8 c 0
 460 -8 404 16 348 72 c 0
 322 98 294 132 294 169 c 0
 294 198 314 217 344 217 c 0
 377 217 409 195 429 182 c 0
 465 158 499 131 529 106 c 1
 611 110 683 120 736 159 c 0
 769 183 800 223 800 276 c 0
 800 293 795 310 790 321 c 1
 769 332 737 338 706 338 c 0
 649 338 587 322 537 309 c 0
 536 309 534 308 533 308 c 0
 526 308 515 312 503 319 c 0
 431 364 344 443 319 536 c 0
 315 551 313 565 313 579 c 0
 313 687 411 706 519 706 c 0
 531 706 543 706 555 706 c 2
 694 706 l 1
 694 794 l 1
 -5 794 l 2
 -35 794 -106 864 -106 895 c 0
 -106 902 -102 906 -95 906 c 0
 272 906 638 906 1005 906 c 0
EndSplineSet
Layer: 1  0 1 1  #fffffffe 1  #fffffffe 1 50 miter butt [1 0 0 1] [0 255]
Refer: 1530 -1 N 1 0 0 1 0 0 2
Refer: 855 -1 N 1 0 0 1 0 0 2
Colour: ffff
EndChar

StartChar: II
Encoding: 24 2312 8
Width: 1000
GlyphClass: 2
Flags: MW
LayerCount: 2
Layer: 0  1 0 1  #fffffffe 1  #fffffffe 1 10 round round [1 0 0 1] [0 255]
SplineSet
546 1166 m 0
 546 1250 609 1306 692 1306 c 0
 716 1306 741 1301 770 1288 c 0
 797 1276 842 1246 875 1210 c 0
 894 1189 906 1167 906 1155 c 0
 906 1148 902 1144 895 1144 c 0
 881 1144 855 1160 832 1183 c 0
 821 1188 800 1194 781 1194 c 0
 714 1194 658 1146 658 1077 c 0
 658 1034 671 1019 692 988 c 2
 747 906 l 1
 1005 906 l 2
 1035 906 1106 836 1106 805 c 0
 1106 798 1102 794 1095 794 c 2
 806 794 l 1
 806 605 l 2
 806 598 802 594 795 594 c 2
 645 594 l 2
 633 594 621 594 609 594 c 0
 517 594 425 580 425 489 c 0
 425 457 437 436 453 423 c 1
 502 436 559 450 616 450 c 0
 660 450 688 444 729 426 c 0
 755 415 793 392 828 357 c 0
 864 321 884 287 895 261 c 0
 907 234 912 210 912 187 c 0
 912 50 782 8 658 -3 c 1
 703 -37 747 -63 807 -83 c 0
 836 -92 898 -152 898 -182 c 0
 898 -189 894 -193 887 -193 c 0
 884 -193 881 -192 877 -191 c 0
 764 -154 660 -74 583 -7 c 1
 575 -7 568 -8 560 -8 c 0
 460 -8 404 16 348 72 c 0
 322 98 294 132 294 169 c 0
 294 198 314 217 344 217 c 0
 377 217 409 195 429 182 c 0
 465 158 499 131 529 106 c 1
 611 110 683 120 736 159 c 0
 769 183 800 223 800 276 c 0
 800 293 795 310 790 321 c 1
 769 332 737 338 706 338 c 0
 649 338 587 322 537 309 c 0
 536 309 534 308 533 308 c 0
 526 308 515 312 503 319 c 0
 431 364 344 443 319 536 c 0
 315 551 313 565 313 579 c 0
 313 687 411 706 519 706 c 0
 531 706 543 706 555 706 c 2
 694 706 l 1
 694 794 l 1
 -5 794 l 2
 -35 794 -106 864 -106 895 c 0
 -106 902 -102 906 -95 906 c 2
 678 906 l 1
 608 1012 l 2
 584 1049 546 1103 546 1166 c 0
EndSplineSet
Layer: 1  0 1 1  #fffffffe 1  #fffffffe 1 50 miter butt [1 0 0 1] [0 255]
Refer: 1162 -1 S 1 0 0 1 -100 0 2
Refer: 7 2311 N 1 0 0 1 0 0 3
MultipleSubs2: "Vowels decomposition" I _empty_sign
Colour: ffff
EndChar

StartChar: U
Encoding: 25 2313 9
Width: 1000
GlyphClass: 2
InSpiro: 1
Flags: MW
AnchorPoint: "below_middle_mark" 598 0 basechar 0
AnchorPoint: "above_mark" 650 850 basechar 0
LayerCount: 2
Layer: 0  1 0 1  #fffffffe 1  #fffffffe 1 10 round round [1 0 0 1] [0 255]
SplineSet
-5 794 m 2
 -35 794 -106 864 -106 895 c 0
 -106 902 -102 906 -95 906 c 0
 272 906 638 906 1005 906 c 0
 1035 906 1106 836 1106 805 c 0
 1106 798 1102 794 1095 794 c 2
 755 794 l 1
 779 761 798 717 798 674 c 0
 798 585 733 535 668 509 c 1
 717 454 758 385 758 296 c 0
 758 187 686 93 576 93 c 0
 473 93 388 171 333 233 c 0
 274 300 236 370 194 445 c 2
 152 521 l 2
 147 530 144 539 144 545 c 0
 144 552 148 556 155 556 c 0
 182 556 233 506 248 479 c 0
 291 401 335 299 394 240 c 0
 413 221 446 205 488 205 c 0
 581 205 646 292 646 386 c 0
 646 431 632 470 614 493 c 1
 586 487 557 483 528 483 c 0
 498 483 427 553 427 584 c 0
 427 591 431 595 438 595 c 0
 465 595 493 598 520 604 c 0
 522 608 525 610 530 610 c 0
 532 610 535 610 538 609 c 0
 608 629 687 676 687 764 c 0
 687 775 684 785 682 794 c 1
 -5 794 l 2
EndSplineSet
Layer: 1  0 1 1  #fffffffe 1  #fffffffe 1 50 miter butt [1 0 0 1] [0 255]
Refer: 1155 -1 S 1 0 0 1 0 0 2
Refer: 855 -1 N 1 0 0 1 0 0 2
Colour: ffff
EndChar

StartChar: Uu
Encoding: 26 2314 10
Width: 1000
GlyphClass: 2
InSpiro: 1
Flags: MW
AnchorPoint: "below_middle_mark" 598 0 basechar 0
AnchorPoint: "above_mark" 550 850 basechar 0
LayerCount: 2
Layer: 0  1 0 1  #fffffffe 1  #fffffffe 1 10 round round [1 0 0 1] [0 255]
SplineSet
-5 794 m 2
 -35 794 -106 864 -106 895 c 0
 -106 902 -102 906 -95 906 c 0
 272 906 638 906 1005 906 c 0
 1035 906 1106 836 1106 805 c 0
 1106 798 1102 794 1095 794 c 2
 655 794 l 1
 679 761 698 717 698 674 c 0
 698 585 633 535 568 509 c 1
 581 494 591 479 601 465 c 1
 629 480 662 490 699 490 c 0
 798 490 869 428 917 364 c 0
 950 321 971 277 971 210 c 0
 971 116 924 39 882 -21 c 0
 880 -24 877 -25 873 -25 c 0
 843 -25 772 45 772 76 c 0
 772 79 773 81 774 83 c 0
 813 139 859 216 859 300 c 0
 859 325 852 351 846 366 c 1
 834 371 811 378 790 378 c 0
 736 378 687 351 657 321 c 1
 658 313 658 304 658 296 c 0
 658 187 586 93 476 93 c 0
 373 93 288 171 233 233 c 0
 174 300 136 370 94 445 c 2
 52 521 l 2
 47 530 44 539 44 545 c 0
 44 552 48 556 55 556 c 0
 82 556 133 506 148 479 c 0
 191 401 235 299 294 240 c 0
 313 221 346 205 388 205 c 0
 481 205 546 292 546 386 c 0
 546 431 532 470 514 493 c 1
 486 487 457 483 428 483 c 0
 398 483 327 553 327 584 c 0
 327 591 331 595 338 595 c 0
 365 595 393 598 420 604 c 0
 422 608 425 610 430 610 c 0
 432 610 435 610 438 609 c 0
 508 629 587 676 587 764 c 0
 587 775 584 785 582 794 c 1
 -5 794 l 2
EndSplineSet
Layer: 1  0 1 1  #fffffffe 1  #fffffffe 1 50 miter butt [1 0 0 1] [0 255]
Refer: 855 -1 N 1 0 0 1 0 0 2
Refer: 1156 -1 N 1 0 0 1 0 0 2
Colour: ffff
EndChar

StartChar: R_vocalic
Encoding: 27 2315 11
Width: 1000
GlyphClass: 2
InSpiro: 1
Flags: MW
AnchorPoint: "below_middle_mark" 498 0 basechar 0
AnchorPoint: "above_mark" 550 850 basechar 0
LayerCount: 2
Layer: 0  1 0 1  #fffffffe 1  #fffffffe 1 10 round round [1 0 0 1] [0 255]
SplineSet
486 396 m 1
 453 438 368 477 280 477 c 0
 220 477 162 460 119 437 c 0
 117 436 115 436 113 436 c 0
 83 436 12 506 12 537 c 0
 12 553 54 564 66 568 c 0
 106 582 147 589 192 589 c 0
 237 589 283 582 330 564 c 0
 381 545 438 511 494 459 c 1
 494 794 l 1
 -5 794 l 2
 -35 794 -106 864 -106 895 c 0
 -106 902 -102 906 -95 906 c 0
 272 906 638 906 1005 906 c 0
 1035 906 1106 836 1106 805 c 0
 1106 798 1102 794 1095 794 c 2
 606 794 l 1
 606 420 l 1
 654 428 700 435 742 451 c 1
 738 465 735 482 735 499 c 0
 735 542 756 579 800 579 c 0
 856 579 912 513 930 478 c 0
 939 460 940 453 940 438 c 0
 940 389 896 365 862 350 c 1
 878 318 904 283 927 258 c 0
 945 238 956 217 956 205 c 0
 956 198 953 194 946 194 c 0
 845 189 742 132 742 25 c 0
 742 14 743 2 746 -6 c 1
 762 -13 785 -16 807 -16 c 0
 865 -16 932 9 979 30 c 0
 981 31 982 31 984 31 c 0
 1014 31 1085 -39 1085 -70 c 0
 1085 -86 1045 -95 1033 -99 c 0
 991 -115 946 -128 898 -128 c 0
 810 -128 756 -91 707 -42 c 0
 663 2 630 44 630 114 c 0
 630 227 727 288 823 303 c 1
 816 312 810 321 804 330 c 1
 742 313 673 303 606 295 c 1
 606 -45 l 2
 606 -52 602 -56 595 -56 c 0
 565 -56 494 14 494 45 c 2
 494 229 l 1
 202 46 l 2
 200 45 198 44 195 44 c 0
 165 44 94 114 94 145 c 0
 94 149 95 152 98 154 c 2
 486 396 l 1
EndSplineSet
Layer: 1  0 1 1  #fffffffe 1  #fffffffe 1 50 miter butt [1 0 0 1] [0 255]
Refer: 1142 -1 S 1 0 0 1 0 0 2
Refer: 1141 -1 N 1 0 0 1 0 0 2
Refer: 855 -1 N 1 0 0 1 0 0 2
Refer: 854 -1 N 1 0 0 1 0 0 2
Colour: ffff
EndChar

StartChar: L_vocalic
Encoding: 28 2316 12
Width: 1000
GlyphClass: 2
InSpiro: 1
Flags: MW
AnchorPoint: "below_middle_mark" 466 0 basechar 0
AnchorPoint: "above_mark" 650 850 basechar 0
LayerCount: 2
Layer: 0  1 0 1  #fffffffe 1  #fffffffe 1 10 round round [1 0 0 1] [0 255]
SplineSet
1005 906 m 0
 1035 906 1106 836 1106 805 c 0
 1106 798 1102 794 1095 794 c 2
 706 794 l 1
 706 569 l 1
 769 528 828 459 848 385 c 0
 854 362 858 341 858 314 c 0
 858 242 836 187 803 138 c 0
 801 135 798 134 794 134 c 0
 793 134 791 134 790 134 c 0
 705 134 636 73 636 -12 c 0
 636 -26 638 -40 642 -50 c 1
 660 -58 687 -63 713 -63 c 0
 769 -63 834 -41 879 -20 c 0
 881 -19 882 -19 884 -19 c 0
 914 -19 985 -89 985 -120 c 0
 985 -125 983 -128 979 -130 c 0
 930 -153 868 -175 804 -175 c 0
 711 -175 656 -138 604 -86 c 0
 553 -35 497 49 537 142 c 0
 562 200 619 245 698 246 c 1
 727 292 746 340 746 404 c 0
 746 435 740 465 729 485 c 1
 719 489 699 495 680 495 c 0
 598 495 539 432 504 378 c 0
 477 337 457 293 443 246 c 0
 442 242 439 239 433 239 c 0
 403 239 332 309 332 340 c 0
 332 342 333 343 333 344 c 0
 344 381 359 417 377 451 c 1
 349 466 313 478 272 478 c 0
 181 478 120 414 120 327 c 0
 120 270 145 225 170 192 c 0
 193 162 228 128 258 99 c 2
 339 21 l 2
 362 -1 381 -30 381 -45 c 0
 381 -52 377 -56 370 -56 c 0
 357 -56 333 -43 311 -21 c 2
 229 57 l 2
 183 101 139 144 97 199 c 0
 55 254 9 332 9 416 c 0
 9 518 77 590 183 590 c 0
 198 590 213 589 228 586 c 0
 286 575 348 545 408 499 c 1
 446 551 505 607 590 607 c 0
 591 607 593 607 594 607 c 1
 594 794 l 1
 -5 794 l 2
 -35 794 -106 864 -106 895 c 0
 -106 902 -102 906 -95 906 c 0
 272 906 638 906 1005 906 c 0
634 -46 m 1
 634 -46 l 1
EndSplineSet
Layer: 1  0 1 1  #fffffffe 1  #fffffffe 1 50 miter butt [1 0 0 1] [0 255]
Refer: 1509 -1 S 1 0 0 1 0 0 2
Refer: 855 -1 N 1 0 0 1 0 0 2
Colour: ffff
EndChar

StartChar: E_candra
Encoding: 29 2317 13
Width: 1000
GlyphClass: 2
InSpiro: 1
Flags: MW
LayerCount: 2
Layer: 0  1 0 1  #fffffffe 1  #fffffffe 1 10 round round [1 0 0 1] [0 255]
SplineSet
779 1341 m 0
 809 1341 880 1271 880 1240 c 0
 880 1189 844 1137 810 1107 c 0
 772 1074 722 1054 669 1054 c 0
 545 1054 444 1153 398 1238 c 0
 381 1270 368 1301 368 1330 c 0
 368 1337 372 1341 379 1341 c 0
 410 1341 476 1273 480 1243 c 0
 483 1221 490 1200 499 1187 c 1
 515 1175 549 1166 579 1166 c 0
 676 1166 756 1243 768 1332 c 0
 769 1338 773 1341 779 1341 c 0
-5 794 m 2
 -35 794 -106 864 -106 895 c 0
 -106 902 -102 906 -95 906 c 2
 1005 906 l 2
 1035 906 1106 836 1106 805 c 0
 1106 798 1102 794 1095 794 c 2
 906 794 l 1
 906 455 l 2
 906 424 904 390 892 359 c 0
 873 310 835 274 791 250 c 0
 789 249 787 248 785 248 c 0
 755 248 684 318 684 349 c 0
 684 354 686 356 689 358 c 0
 753 394 794 447 794 545 c 2
 794 794 l 1
 456 794 l 1
 456 455 l 2
 456 400 464 350 487 321 c 0
 493 313 503 303 518 288 c 2
 788 18 l 2
 806 0 837 -32 862 -69 c 0
 892 -115 905 -145 905 -197 c 0
 905 -256 880 -299 854 -335 c 0
 852 -338 849 -339 845 -339 c 0
 815 -339 744 -269 744 -238 c 0
 744 -235 745 -233 746 -231 c 0
 770 -198 793 -159 793 -107 c 0
 793 -82 782 -52 776 -44 c 0
 773 -40 769 -35 752 -18 c 2
 482 252 l 2
 446 288 394 348 370 401 c 0
 350 445 344 489 344 545 c 2
 344 794 l 1
 -5 794 l 2
EndSplineSet
Layer: 1  0 1 1  #fffffffe 1  #fffffffe 1 50 miter butt [1 0 0 1] [0 255]
Refer: 1145 -1 S 1 0 0 1 -126 0 2
Refer: 15 2319 N 1 0 0 1 0 0 3
MultipleSubs2: "Vowels decomposition" E E_candra_sign
Colour: ffff
EndChar

StartChar: E_short
Encoding: 30 2318 14
Width: 1000
GlyphClass: 2
Flags: MW
LayerCount: 2
Layer: 0  1 0 1  #fffffffe 1  #fffffffe 1 10 round round [1 0 0 1] [0 255]
SplineSet
-5 794 m 2
 -35 794 -106 864 -106 895 c 0
 -106 902 -102 906 -95 906 c 0
 195 906 486 906 776 906 c 1
 708 1000 l 1
 668 1021 606 1015 558 1030 c 0
 464 1059 394 1146 368 1236 c 2
 345 1316 l 2
 344 1319 344 1323 344 1325 c 0
 344 1332 348 1336 355 1336 c 0
 386 1336 447 1273 455 1244 c 2
 478 1164 l 2
 481 1155 483 1146 485 1139 c 1
 542 1121 600 1128 651 1104 c 0
 676 1092 711 1069 742 1038 c 0
 770 1010 784 988 795 973 c 2
 844 906 l 1
 1005 906 l 2
 1035 906 1106 836 1106 805 c 0
 1106 798 1102 794 1095 794 c 2
 906 794 l 1
 906 455 l 2
 906 424 904 390 892 359 c 0
 873 310 835 274 791 250 c 0
 789 249 787 248 785 248 c 0
 755 248 684 318 684 349 c 0
 684 354 686 356 689 358 c 0
 753 394 794 447 794 545 c 2
 794 794 l 1
 456 794 l 1
 456 455 l 2
 456 400 464 350 487 321 c 0
 493 313 503 303 518 288 c 2
 788 18 l 2
 806 0 837 -32 862 -69 c 0
 892 -115 905 -145 905 -197 c 0
 905 -256 880 -299 854 -335 c 0
 852 -338 849 -339 845 -339 c 0
 815 -339 744 -269 744 -238 c 0
 744 -235 745 -233 746 -231 c 0
 770 -198 793 -159 793 -107 c 0
 793 -82 782 -52 776 -44 c 0
 773 -40 769 -35 752 -18 c 2
 482 252 l 2
 446 288 394 348 370 401 c 0
 350 445 344 489 344 545 c 2
 344 794 l 1
 -5 794 l 2
EndSplineSet
Layer: 1  0 1 1  #fffffffe 1  #fffffffe 1 50 miter butt [1 0 0 1] [0 255]
Refer: 1144 -1 S 1 0 0 1 0 0 2
Refer: 15 2319 N 1 0 0 1 0 0 2
MultipleSubs2: "Vowels decomposition" E E_short_sign
Colour: ffff
EndChar

StartChar: E
Encoding: 31 2319 15
Width: 1000
GlyphClass: 2
InSpiro: 1
Flags: MW
AnchorPoint: "below_middle_mark" 552 0 basechar 0
LayerCount: 2
Layer: 0  1 0 1  #fffffffe 1  #fffffffe 1 10 round round [1 0 0 1] [0 255]
SplineSet
-5 794 m 2
 -35 794 -106 864 -106 895 c 0
 -106 902 -102 906 -95 906 c 2
 1005 906 l 2
 1035 906 1106 836 1106 805 c 0
 1106 798 1102 794 1095 794 c 2
 906 794 l 1
 906 455 l 2
 906 424 904 390 892 359 c 0
 873 310 835 274 791 250 c 0
 789 249 787 248 785 248 c 0
 755 248 684 318 684 349 c 0
 684 354 686 356 689 358 c 0
 753 394 794 447 794 545 c 2
 794 794 l 1
 456 794 l 1
 456 455 l 2
 456 400 464 350 487 321 c 0
 493 313 503 303 518 288 c 2
 788 18 l 2
 806 0 837 -32 862 -69 c 0
 892 -115 905 -145 905 -197 c 0
 905 -256 880 -299 854 -335 c 0
 852 -338 849 -339 845 -339 c 0
 815 -339 744 -269 744 -238 c 0
 744 -235 745 -233 746 -231 c 0
 770 -198 793 -159 793 -107 c 0
 793 -82 782 -52 776 -44 c 0
 773 -40 769 -35 752 -18 c 2
 482 252 l 2
 446 288 394 348 370 401 c 0
 350 445 344 489 344 545 c 2
 344 794 l 1
 -5 794 l 2
EndSplineSet
Layer: 1  0 1 1  #fffffffe 1  #fffffffe 1 50 miter butt [1 0 0 1] [0 255]
Refer: 1138 -1 N 1 0 0 1 0 0 2
Refer: 855 -1 N 1 0 0 1 0 0 2
Colour: ffff
EndChar

StartChar: Ai
Encoding: 32 2320 16
Width: 1000
GlyphClass: 2
Flags: MW
AnchorPoint: "below_middle_mark" 552 0 basechar 0
LayerCount: 2
Layer: 0  1 0 1  #fffffffe 1  #fffffffe 1 10 round round [1 0 0 1] [0 255]
SplineSet
-5 794 m 2
 -35 794 -106 864 -106 895 c 0
 -106 902 -102 906 -95 906 c 0
 197 906 488 906 780 906 c 1
 723 996 l 2
 695 1041 671 1093 641 1135 c 0
 630 1144 587 1158 558 1158 c 0
 540 1158 521 1156 503 1150 c 0
 502 1150 501 1149 499 1149 c 0
 469 1149 398 1219 398 1250 c 0
 398 1269 452 1270 469 1270 c 0
 491 1270 513 1267 536 1260 c 0
 575 1248 623 1224 676 1171 c 0
 736 1111 766 1036 811 966 c 2
 849 906 l 1
 1005 906 l 2
 1035 906 1106 836 1106 805 c 0
 1106 798 1102 794 1095 794 c 2
 906 794 l 1
 906 455 l 2
 906 424 904 390 892 359 c 0
 873 310 835 274 791 250 c 0
 789 249 787 248 785 248 c 0
 755 248 684 318 684 349 c 0
 684 354 686 356 689 358 c 0
 753 394 794 447 794 545 c 2
 794 794 l 1
 456 794 l 1
 456 455 l 2
 456 400 464 350 487 321 c 0
 493 313 503 303 518 288 c 2
 788 18 l 2
 806 0 837 -32 862 -69 c 0
 892 -115 905 -145 905 -197 c 0
 905 -256 880 -299 854 -335 c 0
 852 -338 849 -339 845 -339 c 0
 815 -339 744 -269 744 -238 c 0
 744 -235 745 -233 746 -231 c 0
 770 -198 793 -159 793 -107 c 0
 793 -82 782 -52 776 -44 c 0
 773 -40 769 -35 752 -18 c 2
 482 252 l 2
 446 288 394 348 370 401 c 0
 350 445 344 489 344 545 c 2
 344 794 l 1
 -5 794 l 2
EndSplineSet
Layer: 1  0 1 1  #fffffffe 1  #fffffffe 1 50 miter butt [1 0 0 1] [0 255]
Refer: 1146 -1 S 1 0 0 1 0 0 2
Refer: 15 2319 N 1 0 0 1 0 0 3
MultipleSubs2: "Vowels decomposition" E E_sign
Colour: ffff
EndChar

StartChar: O_candra
Encoding: 33 2321 17
Width: 1000
GlyphClass: 2
Flags: MW
LayerCount: 2
Layer: 0  1 0 1  #fffffffe 1  #fffffffe 1 10 round round [1 0 0 1] [0 255]
SplineSet
905 1341 m 0
 935 1341 1006 1271 1006 1240 c 0
 1006 1189 970 1137 936 1107 c 0
 898 1074 848 1054 795 1054 c 0
 671 1054 570 1153 524 1238 c 0
 507 1270 494 1301 494 1330 c 0
 494 1337 498 1341 505 1341 c 0
 536 1341 602 1273 606 1243 c 0
 609 1221 616 1200 625 1187 c 1
 641 1175 675 1166 705 1166 c 0
 802 1166 882 1243 894 1332 c 0
 895 1338 899 1341 905 1341 c 0
955 906 m 2
 985 906 1056 836 1056 805 c 0
 1056 798 1052 794 1045 794 c 2
 1006 794 l 1
 1006 -45 l 2
 1006 -52 1002 -56 995 -56 c 0
 965 -56 894 14 894 45 c 2
 894 794 l 1
 865 794 835 794 806 794 c 1
 806 514 806 235 806 -45 c 0
 806 -52 802 -56 795 -56 c 0
 765 -56 694 14 694 45 c 2
 694 382 l 1
 677 378 658 376 638 376 c 0
 624 376 609 377 594 380 c 1
 603 353 608 329 608 296 c 0
 608 187 536 93 426 93 c 0
 323 93 238 171 183 233 c 0
 124 300 86 370 44 445 c 2
 2 521 l 2
 -3 530 -6 539 -6 545 c 0
 -6 552 -2 556 5 556 c 0
 32 556 83 506 98 479 c 0
 141 401 185 299 244 240 c 0
 263 221 296 205 338 205 c 0
 431 205 496 292 496 386 c 0
 496 431 482 472 463 494 c 1
 440 487 417 483 392 483 c 0
 356 483 341 491 310 522 c 0
 287 545 272 571 272 585 c 0
 272 592 276 596 283 596 c 0
 289 596 296 595 302 595 c 0
 325 595 348 599 371 606 c 0
 373 609 376 610 380 610 c 0
 381 610 381 610 382 610 c 0
 438 631 498 679 498 755 c 0
 498 767 496 779 493 788 c 1
 409 826 297 779 241 746 c 0
 239 745 238 744 235 744 c 0
 205 744 134 814 134 845 c 0
 134 849 136 852 139 854 c 0
 193 886 256 913 335 913 c 0
 463 913 568 812 600 723 c 0
 607 703 610 685 610 668 c 0
 610 592 563 542 513 514 c 1
 521 505 527 497 534 488 c 0
 539 488 545 488 550 488 c 0
 613 488 661 516 694 550 c 1
 694 821 l 1
 671 841 644 878 644 895 c 0
 644 902 648 906 655 906 c 2
 955 906 l 2
EndSplineSet
Layer: 1  0 1 1  #fffffffe 1  #fffffffe 1 50 miter butt [1 0 0 1] [0 255]
Refer: 1145 -1 N 1 0 0 1 0 0 2
Refer: 6 2310 N 1 0 0 1 0 0 3
MultipleSubs2: "Vowels decomposition" Aa E_candra_sign
Colour: ffff
EndChar

StartChar: O_short
Encoding: 34 2322 18
Width: 1000
GlyphClass: 2
Flags: MW
LayerCount: 2
Layer: 0  1 0 1  #fffffffe 1  #fffffffe 1 10 round round [1 0 0 1] [0 255]
SplineSet
694 821 m 1
 671 841 644 878 644 895 c 0
 644 902 648 906 655 906 c 0
 729 906 802 906 876 906 c 1
 808 1000 l 1
 768 1021 706 1015 658 1030 c 0
 564 1059 494 1146 468 1236 c 2
 445 1316 l 2
 444 1319 444 1323 444 1325 c 0
 444 1332 448 1336 455 1336 c 0
 486 1336 547 1273 555 1244 c 2
 578 1164 l 2
 581 1155 583 1146 585 1139 c 1
 642 1121 700 1128 751 1104 c 0
 776 1092 811 1069 842 1038 c 0
 870 1010 884 988 895 973 c 2
 944 906 l 1
 955 906 l 2
 985 906 1056 836 1056 805 c 0
 1056 798 1052 794 1045 794 c 2
 1006 794 l 1
 1006 -45 l 2
 1006 -52 1002 -56 995 -56 c 0
 965 -56 894 14 894 45 c 2
 894 794 l 1
 865 794 835 794 806 794 c 1
 806 514 806 235 806 -45 c 0
 806 -52 802 -56 795 -56 c 0
 765 -56 694 14 694 45 c 2
 694 382 l 1
 677 378 658 376 638 376 c 0
 624 376 609 377 594 380 c 1
 603 353 608 329 608 296 c 0
 608 187 536 93 426 93 c 0
 323 93 238 171 183 233 c 0
 124 300 86 370 44 445 c 2
 2 521 l 2
 -3 530 -6 539 -6 545 c 0
 -6 552 -2 556 5 556 c 0
 32 556 83 506 98 479 c 0
 141 401 185 299 244 240 c 0
 263 221 296 205 338 205 c 0
 431 205 496 292 496 386 c 0
 496 431 482 472 463 494 c 1
 440 487 417 483 392 483 c 0
 356 483 341 491 310 522 c 0
 287 545 272 571 272 585 c 0
 272 592 276 596 283 596 c 0
 289 596 296 595 302 595 c 0
 325 595 348 599 371 606 c 0
 373 609 376 610 380 610 c 0
 381 610 381 610 382 610 c 0
 438 631 498 679 498 755 c 0
 498 767 496 779 493 788 c 1
 409 826 297 779 241 746 c 0
 239 745 238 744 235 744 c 0
 205 744 134 814 134 845 c 0
 134 849 136 852 139 854 c 0
 193 886 256 913 335 913 c 0
 463 913 568 812 600 723 c 0
 607 703 610 685 610 668 c 0
 610 592 563 542 513 514 c 1
 521 505 527 497 534 488 c 0
 539 488 545 488 550 488 c 0
 613 488 661 516 694 550 c 1
 694 821 l 1
EndSplineSet
Layer: 1  0 1 1  #fffffffe 1  #fffffffe 1 50 miter butt [1 0 0 1] [0 255]
Refer: 1144 -1 S 1 0 0 1 100 0 2
Refer: 6 2310 N 1 0 0 1 0 0 3
MultipleSubs2: "Vowels decomposition" Aa E_short_sign
Colour: ffff
EndChar

StartChar: O
Encoding: 35 2323 19
Width: 1000
GlyphClass: 2
Flags: MW
AnchorPoint: "below_middle_mark" 372 9 basechar 0
LayerCount: 2
Layer: 0  1 0 1  #fffffffe 1  #fffffffe 1 10 round round [1 0 0 1] [0 255]
SplineSet
955 906 m 2
 985 906 1056 836 1056 805 c 0
 1056 798 1052 794 1045 794 c 2
 1006 794 l 1
 1006 -45 l 2
 1006 -52 1002 -56 995 -56 c 0
 965 -56 894 14 894 45 c 2
 894 794 l 1
 865 794 835 794 806 794 c 1
 806 514 806 235 806 -45 c 0
 806 -52 802 -56 795 -56 c 0
 765 -56 694 14 694 45 c 2
 694 382 l 1
 677 378 658 376 638 376 c 0
 624 376 609 377 594 380 c 1
 603 353 608 329 608 296 c 0
 608 187 536 93 426 93 c 0
 323 93 238 171 183 233 c 0
 124 300 86 370 44 445 c 2
 2 521 l 2
 -3 530 -6 539 -6 545 c 0
 -6 552 -2 556 5 556 c 0
 32 556 83 506 98 479 c 0
 141 401 185 299 244 240 c 0
 263 221 296 205 338 205 c 0
 431 205 496 292 496 386 c 0
 496 431 482 472 463 494 c 1
 440 487 417 483 392 483 c 0
 356 483 341 491 310 522 c 0
 287 545 272 571 272 585 c 0
 272 592 276 596 283 596 c 0
 289 596 296 595 302 595 c 0
 325 595 348 599 371 606 c 0
 373 609 376 610 380 610 c 0
 381 610 381 610 382 610 c 0
 438 631 498 679 498 755 c 0
 498 767 496 779 493 788 c 1
 409 826 297 779 241 746 c 0
 239 745 238 744 235 744 c 0
 205 744 134 814 134 845 c 0
 134 849 136 852 139 854 c 0
 193 886 256 913 335 913 c 0
 463 913 568 812 600 723 c 0
 607 703 610 685 610 668 c 0
 610 592 563 542 513 514 c 1
 521 505 527 497 534 488 c 0
 539 488 545 488 550 488 c 0
 613 488 661 516 694 550 c 1
 694 821 l 1
 671 841 644 878 644 895 c 0
 644 902 648 906 655 906 c 0
 730 906 805 906 880 906 c 1
 823 996 l 2
 795 1041 771 1093 741 1135 c 0
 730 1144 687 1158 658 1158 c 0
 640 1158 621 1156 603 1150 c 0
 602 1150 601 1149 599 1149 c 0
 569 1149 498 1219 498 1250 c 0
 498 1269 552 1270 569 1270 c 0
 591 1270 613 1267 636 1260 c 0
 675 1248 723 1224 776 1171 c 0
 836 1111 866 1036 911 966 c 2
 949 906 l 1
 955 906 l 2
EndSplineSet
Layer: 1  0 1 1  #fffffffe 1  #fffffffe 1 50 miter butt [1 0 0 1] [0 255]
Refer: 1146 -1 N 1 0 0 1 100 0 2
Refer: 6 2310 N 1 0 0 1 0 0 3
MultipleSubs2: "Vowels decomposition" Aa E_sign
Colour: ffff
EndChar

StartChar: Au
Encoding: 36 2324 20
Width: 1000
GlyphClass: 2
Flags: MW
AnchorPoint: "below_middle_mark" 498 -1 basechar 0
LayerCount: 2
Layer: 0  1 0 1  #fffffffe 1  #fffffffe 1 10 round round [1 0 0 1] [0 255]
SplineSet
955 906 m 2
 985 906 1056 836 1056 805 c 0
 1056 798 1052 794 1045 794 c 2
 1006 794 l 1
 1006 -45 l 2
 1006 -52 1002 -56 995 -56 c 0
 965 -56 894 14 894 45 c 2
 894 794 l 1
 865 794 835 794 806 794 c 1
 806 514 806 235 806 -45 c 0
 806 -52 802 -56 795 -56 c 0
 765 -56 694 14 694 45 c 2
 694 382 l 1
 677 378 658 376 638 376 c 0
 624 376 609 377 594 380 c 1
 603 353 608 329 608 296 c 0
 608 187 536 93 426 93 c 0
 323 93 238 171 183 233 c 0
 124 300 86 370 44 445 c 2
 2 521 l 2
 -3 530 -6 539 -6 545 c 0
 -6 552 -2 556 5 556 c 0
 32 556 83 506 98 479 c 0
 141 401 185 299 244 240 c 0
 263 221 296 205 338 205 c 0
 431 205 496 292 496 386 c 0
 496 431 482 472 463 494 c 1
 440 487 417 483 392 483 c 0
 356 483 341 491 310 522 c 0
 287 545 272 571 272 585 c 0
 272 592 276 596 283 596 c 0
 289 596 296 595 302 595 c 0
 325 595 348 599 371 606 c 0
 373 609 376 610 380 610 c 0
 381 610 381 610 382 610 c 0
 438 631 498 679 498 755 c 0
 498 767 496 779 493 788 c 1
 409 826 297 779 241 746 c 0
 239 745 238 744 235 744 c 0
 205 744 134 814 134 845 c 0
 134 849 136 852 139 854 c 0
 193 886 256 913 335 913 c 0
 463 913 568 812 600 723 c 0
 607 703 610 685 610 668 c 0
 610 592 563 542 513 514 c 1
 521 505 527 497 534 488 c 0
 539 488 545 488 550 488 c 0
 613 488 661 516 694 550 c 1
 694 821 l 1
 671 841 644 878 644 895 c 0
 644 902 648 906 655 906 c 2
 828 906 l 1
 810 919 l 2
 772 947 734 981 697 1006 c 0
 681 1017 660 1024 631 1024 c 0
 596 1024 569 1013 544 995 c 0
 542 994 540 993 537 993 c 0
 507 993 436 1063 436 1094 c 0
 436 1098 437 1101 440 1103 c 0
 469 1124 500 1137 543 1137 c 0
 620 1137 685 1084 728 1049 c 0
 752 1030 775 1012 798 995 c 2
 831 971 l 1
 818 990 l 2
 783 1040 752 1089 723 1136 c 0
 695 1182 690 1204 627 1204 c 0
 589 1204 558 1190 532 1168 c 0
 530 1166 527 1166 524 1166 c 0
 494 1166 423 1236 423 1267 c 0
 423 1271 424 1274 426 1276 c 0
 456 1301 492 1316 538 1316 c 0
 635 1316 702 1250 751 1192 c 0
 813 1119 847 1045 898 972 c 2
 945 906 l 1
 955 906 l 2
EndSplineSet
Layer: 1  0 1 1  #fffffffe 1  #fffffffe 1 50 miter butt [1 0 0 1] [0 255]
Refer: 1147 -1 N 1 0 0 1 100 0 2
Refer: 6 2310 N 1 0 0 1 0 0 3
MultipleSubs2: "Vowels decomposition" Aa Ai_sign
Colour: ffff
EndChar

StartChar: Ka
Encoding: 37 2325 21
Width: 1000
GlyphClass: 2
Flags: MW
AnchorPoint: "above_mark" 550 850 basechar 0
AnchorPoint: "below_mark" 550 0 basechar 0
LayerCount: 2
Layer: 0  1 0 1  #fffffffe 1  #fffffffe 1 10 round round [1 0 0 1] [0 255]
SplineSet
-5 794 m 2
 -35 794 -106 864 -106 895 c 0
 -106 902 -102 906 -95 906 c 0
 272 906 638 906 1005 906 c 0
 1035 906 1106 836 1106 805 c 0
 1106 798 1102 794 1095 794 c 2
 606 794 l 1
 606 504 l 1
 631 518 657 527 692 527 c 0
 711 527 731 524 754 515 c 0
 779 505 815 485 851 449 c 0
 897 403 934 347 934 264 c 0
 934 218 922 176 907 136 c 0
 892 97 875 59 855 23 c 0
 853 20 850 18 845 18 c 0
 815 18 744 88 744 119 c 0
 744 121 744 123 745 125 c 0
 779 187 822 270 822 356 c 0
 822 376 820 396 814 411 c 1
 805 414 793 415 780 415 c 0
 697 415 646 348 606 301 c 1
 606 -45 l 2
 606 -52 602 -56 595 -56 c 0
 565 -56 494 14 494 45 c 2
 494 192 l 1
 457 168 417 152 368 152 c 0
 343 152 317 157 289 168 c 0
 262 179 218 205 184 239 c 0
 150 273 130 306 118 331 c 0
 104 361 99 388 99 413 c 0
 99 507 169 577 263 577 c 0
 311 577 359 555 390 524 c 0
 413 501 428 475 428 461 c 0
 428 454 424 450 417 450 c 0
 412 450 405 452 398 455 c 0
 389 459 370 465 350 465 c 0
 272 465 211 402 211 324 c 0
 211 306 215 288 221 276 c 1
 235 270 257 264 279 264 c 0
 378 264 445 342 494 400 c 1
 494 794 l 1
 -5 794 l 2
EndSplineSet
Layer: 1  0 1 1  #fffffffe 1  #fffffffe 1 50 miter butt [1 0 0 1] [0 255]
Refer: 883 -1 N 1 0 0 1 0 0 2
Refer: 855 -1 N 1 0 0 1 0 0 2
Refer: 854 -1 N 1 0 0 1 0 0 2
Colour: ff00
EndChar

StartChar: Kha
Encoding: 38 2326 22
Width: 1000
GlyphClass: 2
Flags: MW
LayerCount: 2
Layer: 0  1 0 1  #fffffffe 1  #fffffffe 1 10 round round [1 0 0 1] [0 255]
SplineSet
895 -56 m 0
 865 -56 794 14 794 45 c 2
 794 79 l 1
 743 56 687 44 630 44 c 0
 619 44 608 44 597 45 c 0
 478 55 347 126 239 234 c 0
 172 301 131 358 83 420 c 0
 65 444 28 489 28 533 c 0
 28 567 50 590 83 590 c 0
 117 590 160 562 194 528 c 1
 237 580 267 643 267 730 c 0
 267 752 264 774 260 794 c 1
 -5 794 l 2
 -35 794 -106 864 -106 895 c 0
 -106 902 -102 906 -95 906 c 2
 1005 906 l 2
 1035 906 1106 836 1106 805 c 0
 1106 798 1102 794 1095 794 c 2
 906 794 l 1
 906 -45 l 2
 906 -52 902 -56 895 -56 c 0
244 372 m 0
 214 372 155 433 145 462 c 1
 142 457 140 450 140 443 c 0
 140 423 161 405 173 390 c 0
 214 337 248 295 283 261 c 0
 333 213 423 156 540 156 c 0
 631 156 726 191 794 256 c 1
 794 274 l 1
 771 265 742 257 711 257 c 0
 629 257 574 293 521 346 c 0
 477 390 455 433 446 464 c 0
 440 483 438 499 438 516 c 0
 438 628 533 700 639 700 c 0
 708 700 758 674 794 629 c 1
 794 794 l 1
 346 794 l 1
 370 742 379 699 379 640 c 0
 379 519 323 432 251 374 c 0
 249 372 247 372 244 372 c 0
727 588 m 0
 638 588 550 523 550 427 c 0
 550 414 552 385 560 381 c 0
 573 375 597 369 621 369 c 0
 702 369 761 415 794 469 c 1
 794 576 l 1
 775 582 752 588 727 588 c 0
EndSplineSet
Layer: 1  0 1 1  #fffffffe 1  #fffffffe 1 50 miter butt [1 0 0 1] [0 255]
Refer: 884 -1 N 1 0 0 1 0 0 2
Refer: 857 -1 N 1 0 0 1 0 0 2
Refer: 855 -1 N 1 0 0 1 0 0 2
Colour: ff00
EndChar

StartChar: Ga
Encoding: 39 2327 23
Width: 1000
GlyphClass: 2
Flags: MW
LayerCount: 2
Layer: 0  1 0 1  #fffffffe 1  #fffffffe 1 10 round round [1 0 0 1] [0 255]
SplineSet
895 -56 m 0
 865 -56 794 14 794 45 c 2
 794 794 l 1
 456 794 l 1
 456 405 l 1
 456 305 l 2
 456 262 439 231 397 231 c 0
 378 231 353 240 324 260 c 0
 297 279 274 300 262 312 c 0
 250 324 229 347 210 374 c 0
 190 403 181 428 181 447 c 0
 181 489 212 506 255 506 c 2
 344 506 l 1
 344 794 l 1
 -5 794 l 2
 -35 794 -106 864 -106 895 c 0
 -106 902 -102 906 -95 906 c 2
 1005 906 l 2
 1035 906 1106 836 1106 805 c 0
 1106 798 1102 794 1095 794 c 2
 906 794 l 1
 906 -45 l 2
 906 -52 902 -56 895 -56 c 0
293 358 m 0
 293 349 299 343 308 343 c 0
 335 343 344 366 344 394 c 1
 316 394 293 385 293 358 c 0
EndSplineSet
Layer: 1  0 1 1  #fffffffe 1  #fffffffe 1 50 miter butt [1 0 0 1] [0 255]
Refer: 885 -1 N 1 0 0 1 0 0 2
Refer: 857 -1 N 1 0 0 1 0 0 2
Refer: 855 -1 N 1 0 0 1 0 0 2
Colour: b200
EndChar

StartChar: Gha
Encoding: 40 2328 24
Width: 1000
GlyphClass: 2
InSpiro: 1
Flags: MW
LayerCount: 2
Layer: 0  1 0 1  #fffffffe 1  #fffffffe 1 10 round round [1 0 0 1] [0 255]
SplineSet
1005 906 m 2
 1035 906 1106 836 1106 805 c 0
 1106 798 1102 794 1095 794 c 2
 906 794 l 1
 906 514 906 235 906 -45 c 0
 906 -52 902 -56 895 -56 c 0
 865 -56 794 14 794 45 c 2
 794 190 l 1
 735 161 662 131 580 131 c 0
 442 131 335 224 287 320 c 0
 271 353 264 381 264 409 c 0
 264 464 293 514 330 546 c 1
 283 582 228 647 206 695 c 0
 193 725 187 751 187 777 c 0
 187 783 187 789 188 794 c 1
 -5 794 l 2
 -35 794 -106 864 -106 895 c 0
 -106 902 -102 906 -95 906 c 2
 1005 906 l 2
599 494 m 0
 489 494 376 429 376 320 c 0
 376 300 382 279 389 267 c 1
 411 253 452 243 490 243 c 0
 612 243 709 307 794 352 c 1
 794 794 l 1
 362 794 l 1
 327 776 298 737 298 688 c 0
 298 619 339 601 393 584 c 1
 428 598 465 606 510 606 c 0
 566 606 584 601 621 564 c 0
 644 541 659 515 659 501 c 0
 659 494 655 490 648 490 c 0
 632 490 616 494 599 494 c 0
EndSplineSet
Layer: 1  0 1 1  #fffffffe 1  #fffffffe 1 50 miter butt [1 0 0 1] [0 255]
Refer: 886 -1 N 1 0 0 1 0 0 2
Refer: 857 -1 N 1 0 0 1 0 0 2
Refer: 855 -1 N 1 0 0 1 0 0 2
Colour: b200
EndChar

StartChar: Nga
Encoding: 41 2329 25
Width: 1000
GlyphClass: 2
InSpiro: 1
Flags: MW
AnchorPoint: "below_middle_mark" 532 1 basechar 0
AnchorPoint: "below_mark" 551 1 basechar 0
AnchorPoint: "above_mark" 650 850 basechar 0
LayerCount: 2
Layer: 0  1 0 1  #fffffffe 1  #fffffffe 1 10 round round [1 0 0 1] [0 255]
SplineSet
912 506 m 0
 912 476 890 454 860 454 c 0
 802 454 720 535 720 596 c 0
 720 626 740 648 771 648 c 0
 824 648 873 591 895 556 c 0
 907 536 912 527 912 506 c 0
1005 906 m 0
 1035 906 1106 836 1106 805 c 0
 1106 798 1102 794 1095 794 c 2
 706 794 l 1
 706 605 l 2
 706 598 702 594 695 594 c 2
 545 594 l 2
 533 594 521 594 509 594 c 0
 417 594 325 580 325 489 c 0
 325 457 337 437 353 423 c 1
 401 434 l 2
 438 443 473 452 516 452 c 0
 624 452 709 384 760 306 c 0
 787 265 799 238 799 188 c 0
 799 67 691 -3 573 -3 c 0
 423 -3 298 94 207 160 c 2
 102 236 l 2
 77 254 39 299 39 320 c 0
 39 327 43 331 50 331 c 0
 59 331 73 325 88 314 c 2
 192 239 l 2
 237 206 276 178 317 156 c 0
 365 130 416 109 483 109 c 0
 585 109 687 172 687 278 c 0
 687 296 684 323 672 328 c 0
 655 335 629 341 602 341 c 0
 565 341 533 333 497 324 c 2
 436 308 l 2
 435 308 434 308 433 308 c 0
 426 308 415 312 403 319 c 0
 331 364 244 443 219 536 c 0
 215 551 213 565 213 579 c 0
 213 687 311 706 419 706 c 0
 431 706 443 706 455 706 c 2
 594 706 l 1
 594 794 l 1
 -5 794 l 2
 -35 794 -106 864 -106 895 c 0
 -106 902 -102 906 -95 906 c 0
 272 906 638 906 1005 906 c 0
862 536 m 1
 862 536 l 1
EndSplineSet
Layer: 1  0 1 1  #fffffffe 1  #fffffffe 1 50 miter butt [1 0 0 1] [0 255]
Refer: 1524 -1 N 1 0 0 1 0 0 2
Refer: 855 -1 N 1 0 0 1 0 0 2
Substitution2: "Decrease in height" Nnga_small
Colour: b200
EndChar

StartChar: Ca
Encoding: 42 2330 26
Width: 1000
GlyphClass: 2
InSpiro: 1
Flags: MW
LayerCount: 2
Layer: 0  1 0 1  #fffffffe 1  #fffffffe 1 10 round round [1 0 0 1] [0 255]
SplineSet
1005 906 m 0
 1035 906 1106 836 1106 805 c 0
 1106 798 1102 794 1095 794 c 2
 906 794 l 1
 906 514 906 235 906 -45 c 0
 906 -52 902 -56 895 -56 c 0
 865 -56 794 14 794 45 c 2
 794 180 l 1
 751 152 700 135 647 135 c 0
 597 135 562 145 515 168 c 0
 482 184 441 213 404 251 c 0
 346 311 302 378 302 471 c 0
 302 516 316 561 337 594 c 1
 145 594 l 2
 115 594 44 664 44 695 c 0
 44 702 48 706 55 706 c 0
 245 706 435 706 625 706 c 0
 655 706 726 636 726 605 c 0
 726 598 722 594 715 594 c 2
 701 594 l 2
 572 594 484 564 438 478 c 0
 422 448 414 415 414 382 c 0
 414 345 428 297 444 281 c 0
 463 262 513 247 556 247 c 0
 675 247 769 334 794 433 c 1
 794 794 l 1
 -5 794 l 2
 -35 794 -106 864 -106 895 c 0
 -106 902 -102 906 -95 906 c 0
 272 906 638 906 1005 906 c 0
EndSplineSet
Layer: 1  0 1 1  #fffffffe 1  #fffffffe 1 50 miter butt [1 0 0 1] [0 255]
Refer: 879 -1 N 1 0 0 1 0 0 2
Refer: 857 -1 N 1 0 0 1 0 0 2
Refer: 855 -1 N 1 0 0 1 0 0 2
Colour: b200
EndChar

StartChar: Cha
Encoding: 43 2331 27
Width: 1000
GlyphClass: 2
InSpiro: 1
Flags: MW
AnchorPoint: "below_middle_mark" 718 -7 basechar 0
AnchorPoint: "below_mark" 792 0 basechar 0
AnchorPoint: "above_mark" 650 850 basechar 0
LayerCount: 2
Layer: 0  1 0 1  #fffffffe 1  #fffffffe 1 10 round round [1 0 0 1] [0 255]
SplineSet
-5 794 m 2
 -35 794 -106 864 -106 895 c 0
 -106 902 -102 906 -95 906 c 0
 272 906 638 906 1005 906 c 0
 1035 906 1106 836 1106 805 c 0
 1106 798 1102 794 1095 794 c 2
 706 794 l 1
 706 697 l 1
 810 658 920 540 920 396 c 0
 920 276 859 188 787 125 c 0
 725 71 649 34 569 13 c 0
 531 3 490 -5 449 -5 c 0
 336 -5 257 49 199 115 c 0
 161 158 131 205 131 270 c 0
 131 288 134 305 139 320 c 1
 82 362 16 431 16 522 c 0
 16 629 105 693 210 693 c 0
 278 693 333 674 373 634 c 0
 396 611 411 585 411 571 c 0
 411 564 407 560 400 560 c 0
 396 560 390 561 384 564 c 0
 362 574 332 582 300 582 c 0
 209 582 128 524 128 432 c 0
 128 417 131 403 135 393 c 1
 146 389 160 387 175 387 c 0
 181 387 188 387 192 390 c 0
 228 415 273 422 330 422 c 2
 371 422 l 2
 401 422 472 352 472 321 c 0
 472 314 468 310 461 310 c 2
 420 310 l 2
 365 310 325 304 292 279 c 0
 291 278 291 278 290 277 c 0
 264 256 243 223 243 180 c 0
 243 159 250 138 254 131 c 1
 278 116 319 107 359 107 c 0
 396 107 434 113 471 123 c 0
 576 151 675 209 737 291 c 1
 719 299 l 2
 666 323 615 351 571 395 c 0
 519 447 497 495 490 531 c 0
 488 542 487 553 487 563 c 0
 487 636 535 687 594 704 c 1
 594 794 l 1
 -5 794 l 2
728 598 m 0
 656 598 599 543 599 472 c 0
 599 456 605 436 609 429 c 1
 664 396 723 383 763 330 c 1
 789 375 808 422 808 486 c 0
 808 524 800 562 785 584 c 1
 773 592 751 598 728 598 c 0
EndSplineSet
Layer: 1  0 1 1  #fffffffe 1  #fffffffe 1 50 miter butt [1 0 0 1] [0 255]
Refer: 1531 -1 N 1 0 0 1 0 0 2
Refer: 855 -1 N 1 0 0 1 0 0 2
Substitution2: "Decrease in height" Cha_small
Colour: ff00
EndChar

StartChar: Ja
Encoding: 44 2332 28
Width: 1000
GlyphClass: 2
InSpiro: 1
Flags: MW
LayerCount: 2
Layer: 0  1 0 1  #fffffffe 1  #fffffffe 1 10 round round [1 0 0 1] [0 255]
SplineSet
407 276 m 0
 490 276 561 348 561 431 c 0
 561 468 548 502 531 519 c 0
 524 526 504 542 478 561 c 2
 408 611 l 2
 383 629 344 673 344 695 c 0
 344 702 348 706 355 706 c 2
 794 706 l 1
 794 794 l 1
 -5 794 l 2
 -35 794 -106 864 -106 895 c 0
 -106 902 -102 906 -95 906 c 0
 272 906 638 906 1005 906 c 0
 1035 906 1106 836 1106 805 c 0
 1106 798 1102 794 1095 794 c 2
 906 794 l 1
 906 514 906 235 906 -45 c 0
 906 -52 902 -56 895 -56 c 0
 865 -56 794 14 794 45 c 2
 794 594 l 1
 523 594 l 1
 589 539 673 454 673 342 c 0
 673 243 596 164 497 164 c 0
 419 164 332 223 281 274 c 0
 172 383 119 533 50 676 c 0
 46 683 44 690 44 695 c 0
 44 702 48 706 55 706 c 0
 83 706 137 652 150 624 c 0
 172 579 193 536 213 491 c 0
 242 427 271 354 316 309 c 0
 333 292 362 276 407 276 c 0
EndSplineSet
Layer: 1  0 1 1  #fffffffe 1  #fffffffe 1 50 miter butt [1 0 0 1] [0 255]
Refer: 878 -1 N 1 0 0 1 0 0 2
Refer: 857 -1 N 1 0 0 1 0 0 2
Refer: 855 -1 N 1 0 0 1 0 0 2
Colour: ff00
EndChar

StartChar: Jha
Encoding: 45 2333 29
Width: 1000
GlyphClass: 2
InSpiro: 1
Flags: MW
LayerCount: 2
Layer: 0  1 0 1  #fffffffe 1  #fffffffe 1 10 round round [1 0 0 1] [0 255]
SplineSet
623 419 m 0
 690 419 740 432 794 453 c 1
 794 794 l 1
 606 794 l 1
 606 605 l 2
 606 598 602 594 595 594 c 2
 445 594 l 2
 433 594 421 594 409 594 c 0
 317 594 225 580 225 489 c 0
 225 457 237 436 253 423 c 1
 302 436 359 450 416 450 c 0
 454 450 480 446 514 433 c 1
 549 424 585 419 623 419 c 0
1005 906 m 2
 1035 906 1106 836 1106 805 c 0
 1106 798 1102 794 1095 794 c 2
 906 794 l 1
 906 514 906 235 906 -45 c 0
 906 -52 902 -56 895 -56 c 0
 865 -56 794 14 794 45 c 2
 794 314 l 1
 769 310 741 308 712 308 c 0
 697 308 683 309 668 310 c 1
 691 276 712 232 712 187 c 0
 712 50 582 8 458 -3 c 1
 503 -37 547 -63 607 -83 c 0
 636 -92 698 -152 698 -182 c 0
 698 -189 694 -193 687 -193 c 0
 684 -193 681 -192 677 -191 c 0
 564 -154 460 -74 383 -7 c 1
 375 -7 368 -8 360 -8 c 0
 260 -8 204 16 148 72 c 0
 122 98 94 132 94 169 c 0
 94 198 114 217 144 217 c 0
 177 217 209 195 229 182 c 0
 265 158 299 131 329 106 c 1
 411 110 483 120 536 159 c 0
 569 183 600 223 600 276 c 0
 600 293 595 310 590 321 c 1
 569 332 537 338 506 338 c 0
 449 338 387 322 337 309 c 0
 336 309 334 308 333 308 c 0
 326 308 315 312 303 319 c 0
 231 364 144 443 119 536 c 0
 115 551 113 565 113 579 c 0
 113 687 211 706 319 706 c 0
 331 706 343 706 355 706 c 2
 494 706 l 1
 494 794 l 1
 -5 794 l 2
 -35 794 -106 864 -106 895 c 0
 -106 902 -102 906 -95 906 c 2
 1005 906 l 2
EndSplineSet
Layer: 1  0 1 1  #fffffffe 1  #fffffffe 1 50 miter butt [1 0 0 1] [0 255]
Refer: 1519 -1 S 1 0 0 1 0 0 2
Refer: 858 -1 N 1 0 0 1 0 0 2
Refer: 857 -1 N 1 0 0 1 0 0 2
Refer: 855 -1 N 1 0 0 1 0 0 2
Substitution2: "Dflt +IZIA Nep (Jha, five, eight, nine)" Jha_NEP
Colour: ff00
EndChar

StartChar: Nya
Encoding: 46 2334 30
Width: 1000
GlyphClass: 2
InSpiro: 1
Flags: MW
LayerCount: 2
Layer: 0  1 0 1  #fffffffe 1  #fffffffe 1 10 round round [1 0 0 1] [0 255]
SplineSet
895 -56 m 0
 865 -56 794 14 794 45 c 2
 794 402 l 1
 762 393 727 388 689 387 c 1
 680 280 585 215 474 215 c 0
 461 215 449 215 436 217 c 0
 375 225 312 251 247 298 c 0
 153 366 72 464 24 572 c 0
 21 578 20 585 20 589 c 0
 20 596 24 600 31 600 c 0
 60 600 115 544 128 516 c 0
 154 458 187 410 233 376 c 0
 265 353 319 327 383 327 c 0
 481 327 578 389 578 491 c 0
 578 511 572 542 561 548 c 0
 539 561 501 571 464 571 c 0
 412 571 372 557 335 537 c 0
 333 536 331 536 329 536 c 0
 299 536 228 606 228 637 c 0
 228 642 230 645 233 647 c 0
 273 669 317 683 375 683 c 0
 479 683 543 639 601 581 c 0
 623 559 644 533 660 505 c 1
 711 514 755 531 794 552 c 1
 794 794 l 1
 -5 794 l 2
 -35 794 -106 864 -106 895 c 0
 -106 902 -102 906 -95 906 c 0
 272 906 638 906 1005 906 c 0
 1035 906 1106 836 1106 805 c 0
 1106 798 1102 794 1095 794 c 2
 906 794 l 1
 906 514 906 235 906 -45 c 0
 906 -52 902 -56 895 -56 c 0
EndSplineSet
Layer: 1  0 1 1  #fffffffe 1  #fffffffe 1 50 miter butt [1 0 0 1] [0 255]
Refer: 1658 -1 S 1 0 0 1 0 0 2
Refer: 857 -1 N 1 0 0 1 0 0 2
Refer: 855 -1 N 1 0 0 1 0 0 2
Colour: ff00
EndChar

StartChar: Tta
Encoding: 47 2335 31
Width: 1000
GlyphClass: 2
InSpiro: 1
Flags: MW
AnchorPoint: "below_middle_mark" 545 0 basechar 0
AnchorPoint: "below_mark" 571 0 basechar 0
AnchorPoint: "above_mark" 650 850 basechar 0
LayerCount: 2
Layer: 0  1 0 1  #fffffffe 1  #fffffffe 1 10 round round [1 0 0 1] [0 255]
SplineSet
-5 794 m 2
 -35 794 -106 864 -106 895 c 0
 -106 902 -102 906 -95 906 c 0
 272 906 638 906 1005 906 c 0
 1035 906 1106 836 1106 805 c 0
 1106 798 1102 794 1095 794 c 2
 706 794 l 1
 706 505 l 2
 706 498 702 494 695 494 c 2
 669 494 l 2
 501 494 385 449 340 324 c 0
 330 297 325 267 325 239 c 0
 325 117 388 56 509 56 c 0
 575 56 642 81 707 108 c 2
 768 133 l 2
 770 134 771 134 773 134 c 0
 803 134 874 64 874 33 c 0
 874 28 872 25 868 23 c 2
 807 -2 l 2
 742 -29 673 -56 598 -56 c 0
 440 -56 318 59 258 166 c 0
 228 220 213 262 213 329 c 0
 213 479 315 570 439 596 c 0
 485 606 533 606 579 606 c 2
 594 606 l 1
 594 794 l 1
 -5 794 l 2
EndSplineSet
Layer: 1  0 1 1  #fffffffe 1  #fffffffe 1 50 miter butt [1 0 0 1] [0 255]
Refer: 1510 -1 S 1 0 0 1 0 0 2
Refer: 855 -1 N 1 0 0 1 0 0 2
Substitution2: "Decrease in height" Tta_small
Colour: b200
EndChar

StartChar: Ttha
Encoding: 48 2336 32
Width: 1000
GlyphClass: 2
InSpiro: 1
Flags: MW
AnchorPoint: "below_middle_mark" 584 0 basechar 0
AnchorPoint: "below_mark" 644 0 basechar 0
AnchorPoint: "above_mark" 650 850 basechar 0
LayerCount: 2
Layer: 0  1 0 1  #fffffffe 1  #fffffffe 1 10 round round [1 0 0 1] [0 255]
SplineSet
1005 906 m 0
 1035 906 1106 836 1106 805 c 0
 1106 798 1102 794 1095 794 c 2
 706 794 l 1
 706 506 l 1
 776 439 834 358 852 256 c 0
 855 237 857 218 857 199 c 0
 857 38 739 -56 579 -56 c 0
 530 -56 480 -49 429 -29 c 0
 377 -9 302 40 250 101 c 0
 198 162 161 226 161 317 c 0
 161 389 189 453 237 500 c 0
 318 579 442 606 587 606 c 0
 589 606 592 606 594 606 c 1
 594 794 l 1
 -5 794 l 2
 -35 794 -106 864 -106 895 c 0
 -106 902 -102 906 -95 906 c 0
 272 906 638 906 1005 906 c 0
490 56 m 0
 635 56 745 144 745 289 c 0
 745 377 707 446 657 480 c 0
 651 484 646 488 640 493 c 1
 457 485 273 418 273 228 c 0
 273 183 291 129 311 109 c 0
 339 81 425 56 490 56 c 0
EndSplineSet
Layer: 1  0 1 1  #fffffffe 1  #fffffffe 1 50 miter butt [1 0 0 1] [0 255]
Refer: 1511 -1 S 1 0 0 1 0 0 2
Refer: 855 -1 N 1 0 0 1 0 0 2
Substitution2: "Decrease in height" Ttha_small
Colour: b200
EndChar

StartChar: Dda
Encoding: 49 2337 33
Width: 1000
GlyphClass: 2
Flags: MW
AnchorPoint: "below_middle_mark" 609 0 basechar 0
AnchorPoint: "below_mark" 630 0 basechar 0
AnchorPoint: "above_mark" 650 850 basechar 0
LayerCount: 2
Layer: 0  1 0 1  #fffffffe 1  #fffffffe 1 10 round round [1 0 0 1] [0 255]
SplineSet
1005 906 m 0
 1035 906 1106 836 1106 805 c 0
 1106 798 1102 794 1095 794 c 2
 706 794 l 1
 706 605 l 2
 706 598 702 594 695 594 c 2
 545 594 l 2
 533 594 521 594 509 594 c 0
 417 594 325 580 325 489 c 0
 325 457 337 437 353 423 c 1
 401 434 l 2
 438 443 473 452 516 452 c 0
 624 452 709 384 760 306 c 0
 787 265 799 238 799 188 c 0
 799 67 691 -3 573 -3 c 0
 423 -3 298 94 207 160 c 2
 102 236 l 2
 77 254 39 299 39 320 c 0
 39 327 43 331 50 331 c 0
 59 331 73 325 88 314 c 2
 192 239 l 2
 237 206 276 178 317 156 c 0
 365 130 416 109 483 109 c 0
 585 109 687 172 687 278 c 0
 687 296 684 323 672 328 c 0
 655 335 629 341 602 341 c 0
 565 341 533 333 497 324 c 2
 436 308 l 2
 435 308 434 308 433 308 c 0
 426 308 415 312 403 319 c 0
 331 364 244 443 219 536 c 0
 215 551 213 565 213 579 c 0
 213 687 311 706 419 706 c 0
 431 706 443 706 455 706 c 2
 594 706 l 1
 594 794 l 1
 -5 794 l 2
 -35 794 -106 864 -106 895 c 0
 -106 902 -102 906 -95 906 c 0
 272 906 638 906 1005 906 c 0
EndSplineSet
Layer: 1  0 1 1  #fffffffe 1  #fffffffe 1 50 miter butt [1 0 0 1] [0 255]
Refer: 1525 -1 N 1 0 0 1 0 0 2
Refer: 855 -1 N 1 0 0 1 0 0 2
Substitution2: "Decrease in height" Dda_small
Colour: b200
EndChar

StartChar: Ddha
Encoding: 50 2338 34
Width: 1000
GlyphClass: 2
InSpiro: 1
Flags: MW
AnchorPoint: "below_middle_mark" 570 0 basechar 0
AnchorPoint: "below_mark" 610 0 basechar 0
AnchorPoint: "above_mark" 650 850 basechar 0
LayerCount: 2
Layer: 0  1 0 1  #fffffffe 1  #fffffffe 1 10 round round [1 0 0 1] [0 255]
SplineSet
-5 794 m 2
 -35 794 -106 864 -106 895 c 0
 -106 902 -102 906 -95 906 c 0
 272 906 638 906 1005 906 c 0
 1035 906 1106 836 1106 805 c 0
 1106 798 1102 794 1095 794 c 2
 706 794 l 1
 706 505 l 2
 706 498 702 494 695 494 c 0
 522 486 360 417 312 269 c 0
 305 246 301 222 301 199 c 0
 301 179 304 160 309 144 c 0
 318 117 329 106 330 105 c 0
 361 74 433 58 495 56 c 1
 470 95 451 139 451 196 c 0
 451 301 520 383 625 383 c 0
 697 383 746 346 788 304 c 0
 832 260 865 212 865 145 c 0
 865 41 784 -19 703 -42 c 0
 669 -52 633 -56 597 -56 c 0
 460 -56 371 -7 294 70 c 0
 244 120 214 172 201 214 c 0
 193 240 189 265 189 289 c 0
 189 379 231 443 281 490 c 0
 363 567 470 598 594 605 c 1
 594 794 l 1
 -5 794 l 2
749 267 m 1
 739 270 728 271 715 271 c 0
 670 271 636 251 612 227 c 0
 584 199 563 158 563 106 c 0
 563 90 565 75 569 61 c 1
 655 75 727 121 748 198 c 0
 751 210 753 223 753 235 c 0
 753 246 751 258 749 267 c 1
EndSplineSet
Layer: 1  0 1 1  #fffffffe 1  #fffffffe 1 50 miter butt [1 0 0 1] [0 255]
Refer: 1512 -1 N 1 0 0 1 0 0 2
Refer: 855 -1 N 1 0 0 1 0 0 2
Substitution2: "Decrease in height" Ddha_small
Colour: b200
EndChar

StartChar: Nna
Encoding: 51 2339 35
Width: 1000
GlyphClass: 2
InSpiro: 1
Flags: MW
LayerCount: 2
Layer: 0  1 0 1  #fffffffe 1  #fffffffe 1 10 round round [1 0 0 1] [0 255]
SplineSet
1005 906 m 0
 1035 906 1106 836 1106 805 c 0
 1106 798 1102 794 1095 794 c 2
 906 794 l 1
 906 -45 l 2
 906 -52 902 -56 895 -56 c 0
 865 -56 794 14 794 45 c 2
 794 794 l 1
 656 794 l 1
 656 505 l 2
 656 377 596 294 470 294 c 0
 442 294 413 299 381 312 c 0
 351 325 296 361 261 402 c 0
 216 454 194 507 194 595 c 2
 194 794 l 1
 -5 794 l 2
 -35 794 -106 864 -106 895 c 0
 -106 902 -102 906 -95 906 c 0
 272 906 638 906 1005 906 c 0
306 505 m 2
 306 480 305 424 321 417 c 0
 336 411 357 406 380 406 c 0
 463 406 522 455 538 523 c 0
 544 546 544 570 544 595 c 2
 544 794 l 1
 306 794 l 1
 306 505 l 2
EndSplineSet
Layer: 1  0 1 1  #fffffffe 1  #fffffffe 1 50 miter butt [1 0 0 1] [0 255]
Refer: 901 -1 N 1 0 0 1 0 0 2
Refer: 857 -1 N 1 0 0 1 0 0 2
Refer: 855 -1 N 1 0 0 1 0 0 2
Colour: b200
EndChar

StartChar: Ta
Encoding: 52 2340 36
Width: 1000
GlyphClass: 2
InSpiro: 1
Flags: MW
LayerCount: 2
Layer: 0  1 0 1  #fffffffe 1  #fffffffe 1 10 round round [1 0 0 1] [0 255]
SplineSet
1005 906 m 0
 1035 906 1106 836 1106 805 c 0
 1106 798 1102 794 1095 794 c 2
 906 794 l 1
 906 514 906 235 906 -45 c 0
 906 -52 902 -56 895 -56 c 0
 865 -56 794 14 794 45 c 2
 794 512 l 1
 779 512 763 513 748 513 c 0
 610 513 482 496 441 396 c 0
 434 379 431 361 431 344 c 0
 431 292 455 254 477 225 c 0
 513 178 573 117 620 66 c 2
 654 29 l 2
 674 8 686 -14 686 -27 c 0
 686 -34 682 -38 675 -38 c 0
 659 -38 627 -16 606 7 c 0
 536 84 472 142 403 233 c 0
 372 274 344 322 330 367 c 0
 323 390 319 412 319 434 c 0
 319 509 363 556 412 583 c 0
 477 619 563 625 658 625 c 0
 691 625 724 624 757 624 c 2
 794 624 l 1
 794 794 l 1
 -5 794 l 2
 -35 794 -106 864 -106 895 c 0
 -106 902 -102 906 -95 906 c 0
 272 906 638 906 1005 906 c 0
EndSplineSet
Layer: 1  0 1 1  #fffffffe 1  #fffffffe 1 50 miter butt [1 0 0 1] [0 255]
Refer: 903 -1 N 1 0 0 1 0 0 2
Refer: 857 -1 N 1 0 0 1 0 0 2
Refer: 855 -1 N 1 0 0 1 0 0 2
Colour: b200
EndChar

StartChar: Tha
Encoding: 53 2341 37
Width: 1000
GlyphClass: 2
InSpiro: 1
Flags: MW
LayerCount: 2
Layer: 0  1 0 1  #fffffffe 1  #fffffffe 1 10 round round [1 0 0 1] [0 255]
SplineSet
955 906 m 0
 985 906 1056 836 1056 805 c 0
 1056 798 1052 794 1045 794 c 2
 906 794 l 1
 906 514 906 235 906 -45 c 0
 906 -52 902 -56 895 -56 c 0
 865 -56 794 14 794 45 c 2
 794 237 l 1
 747 210 696 195 636 195 c 0
 512 195 424 254 354 324 c 0
 308 370 277 418 258 460 c 0
 255 467 253 472 253 477 c 0
 253 483 257 487 262 488 c 0
 317 497 372 523 410 556 c 1
 406 556 401 555 397 555 c 0
 304 555 229 635 194 696 c 0
 176 728 168 749 168 787 c 0
 168 879 241 942 332 942 c 0
 358 942 385 936 415 923 c 0
 443 911 482 886 516 852 c 0
 573 795 611 738 611 647 c 0
 611 541 548 466 480 423 c 0
 448 403 412 388 374 380 c 1
 403 335 469 307 547 307 c 0
 649 307 743 364 794 439 c 1
 794 794 l 1
 764 795 694 864 694 895 c 0
 694 902 698 906 705 906 c 0
 788 906 872 906 955 906 c 0
421 830 m 0
 345 830 280 773 280 696 c 0
 280 690 281 670 286 669 c 0
 292 668 299 667 307 667 c 0
 319 667 332 673 345 673 c 0
 374 673 430 616 442 588 c 1
 472 624 499 682 499 738 c 0
 499 770 491 797 480 816 c 1
 468 823 443 830 421 830 c 0
EndSplineSet
Layer: 1  0 1 1  #fffffffe 1  #fffffffe 1 50 miter butt [1 0 0 1] [0 255]
Refer: 904 -1 N 1 0 0 1 0 0 2
Refer: 857 -1 N 1 0 0 1 0 0 2
Refer: 862 -1 N 1 0 0 1 0 0 2
Colour: b200
EndChar

StartChar: Da
Encoding: 54 2342 38
Width: 1000
GlyphClass: 2
InSpiro: 1
Flags: MW
AnchorPoint: "below_middle_mark" 500 -100 basechar 0
AnchorPoint: "below_mark" 722 0 basechar 0
AnchorPoint: "above_mark" 650 850 basechar 0
LayerCount: 2
Layer: 0  1 0 1  #fffffffe 1  #fffffffe 1 10 round round [1 0 0 1] [0 255]
SplineSet
780 134 m 0
 780 69 719 40 669 24 c 1
 689 -58 724 -134 761 -201 c 0
 766 -210 769 -219 769 -225 c 0
 769 -232 765 -236 758 -236 c 0
 731 -236 680 -186 665 -159 c 0
 635 -104 609 -48 588 8 c 1
 576 7 565 6 553 6 c 0
 438 6 361 62 299 131 c 0
 247 188 209 250 209 338 c 0
 209 491 330 578 463 599 c 0
 507 606 551 606 594 606 c 1
 594 794 l 1
 -5 794 l 2
 -35 794 -106 864 -106 895 c 0
 -106 902 -102 906 -95 906 c 0
 272 906 638 906 1005 906 c 0
 1035 906 1106 836 1106 805 c 0
 1106 798 1102 794 1095 794 c 2
 706 794 l 1
 706 505 l 2
 706 498 702 494 695 494 c 2
 685 494 l 2
 585 494 506 486 440 447 c 0
 378 411 321 341 321 249 c 0
 321 213 333 165 350 150 c 0
 372 131 419 118 464 118 c 0
 496 118 526 123 553 130 c 1
 550 145 548 161 548 178 c 0
 548 234 573 289 630 289 c 0
 689 289 745 223 766 185 c 0
 777 164 780 155 780 134 c 0
EndSplineSet
Layer: 1  0 1 1  #fffffffe 1  #fffffffe 1 50 miter butt [1 0 0 1] [0 255]
Refer: 1513 -1 N 1 0 0 1 0 0 2
Refer: 855 -1 N 1 0 0 1 0 0 2
Colour: b200
EndChar

StartChar: Dha
Encoding: 55 2343 39
Width: 1000
GlyphClass: 2
InSpiro: 1
Flags: MW
LayerCount: 2
Layer: 0  1 0 1  #fffffffe 1  #fffffffe 1 10 round round [1 0 0 1] [0 255]
SplineSet
955 906 m 0
 985 906 1056 836 1056 805 c 0
 1056 798 1052 794 1045 794 c 2
 906 794 l 1
 906 514 906 235 906 -45 c 0
 906 -52 902 -56 895 -56 c 0
 865 -56 794 14 794 45 c 2
 794 190 l 1
 735 161 662 131 580 131 c 0
 442 131 335 224 287 320 c 0
 271 353 264 381 264 409 c 0
 264 464 292 513 329 545 c 1
 263 597 196 672 196 775 c 0
 196 876 270 956 369 956 c 0
 467 956 553 864 580 797 c 0
 588 776 591 760 591 742 c 0
 591 694 570 663 552 631 c 0
 550 628 548 626 543 626 c 0
 513 626 442 696 442 727 c 0
 442 729 443 731 444 733 c 0
 461 763 479 791 479 831 c 0
 479 835 479 839 479 842 c 0
 473 843 466 844 459 844 c 0
 376 844 308 771 308 686 c 0
 308 613 341 592 411 592 c 0
 430 592 448 601 466 603 c 0
 480 605 495 606 510 606 c 0
 566 606 584 601 621 564 c 0
 644 541 659 515 659 501 c 0
 659 494 655 490 648 490 c 0
 632 490 616 494 599 494 c 0
 489 494 376 429 376 320 c 0
 376 300 382 279 389 267 c 1
 411 253 452 243 490 243 c 0
 612 243 709 307 794 352 c 1
 794 794 l 1
 764 795 694 864 694 895 c 0
 694 902 698 906 705 906 c 0
 788 906 872 906 955 906 c 0
EndSplineSet
Layer: 1  0 1 1  #fffffffe 1  #fffffffe 1 50 miter butt [1 0 0 1] [0 255]
Refer: 890 -1 N 1 0 0 1 0 0 2
Refer: 862 -1 N 1 0 0 1 0 0 2
Refer: 857 -1 N 1 0 0 1 0 0 2
Colour: b200
EndChar

StartChar: Na
Encoding: 56 2344 40
Width: 1000
GlyphClass: 2
InSpiro: 1
Flags: MW
LayerCount: 2
Layer: 0  1 0 1  #fffffffe 1  #fffffffe 1 10 round round [1 0 0 1] [0 255]
SplineSet
895 -56 m 0
 865 -56 794 14 794 45 c 2
 794 394 l 1
 456 394 l 1
 456 305 l 2
 456 262 439 231 397 231 c 0
 378 231 353 240 324 260 c 0
 297 279 274 300 262 312 c 0
 250 324 229 347 210 374 c 0
 190 403 181 428 181 447 c 0
 181 489 212 506 255 506 c 2
 355 506 l 1
 794 506 l 1
 794 794 l 1
 -5 794 l 2
 -35 794 -106 864 -106 895 c 0
 -106 902 -102 906 -95 906 c 0
 272 906 638 906 1005 906 c 0
 1035 906 1106 836 1106 805 c 0
 1106 798 1102 794 1095 794 c 2
 906 794 l 1
 906 514 906 235 906 -45 c 0
 906 -52 902 -56 895 -56 c 0
293 358 m 0
 293 349 299 343 308 343 c 0
 335 343 344 366 344 394 c 1
 316 394 293 385 293 358 c 0
EndSplineSet
Layer: 1  0 1 1  #fffffffe 1  #fffffffe 1 50 miter butt [1 0 0 1] [0 255]
Refer: 910 -1 N 1 0 0 1 0 0 2
Refer: 857 -1 N 1 0 0 1 0 0 2
Refer: 855 -1 N 1 0 0 1 0 0 2
Colour: b200
EndChar

StartChar: Nnna
Encoding: 57 2345 41
Width: 1000
GlyphClass: 3
Flags: MW
LayerCount: 2
Layer: 0  1 0 1  #fffffffe 1  #fffffffe 1 10 round round [1 0 0 1] [0 255]
SplineSet
895 -56 m 0
 865 -56 794 14 794 45 c 2
 794 394 l 1
 456 394 l 1
 456 305 l 2
 456 262 439 231 397 231 c 0
 378 231 353 240 324 260 c 0
 297 279 274 300 262 312 c 0
 250 324 229 347 210 374 c 0
 190 403 181 428 181 447 c 0
 181 489 212 506 255 506 c 2
 355 506 l 1
 794 506 l 1
 794 794 l 1
 -5 794 l 2
 -35 794 -106 864 -106 895 c 0
 -106 902 -102 906 -95 906 c 0
 272 906 638 906 1005 906 c 0
 1035 906 1106 836 1106 805 c 0
 1106 798 1102 794 1095 794 c 2
 906 794 l 1
 906 514 906 235 906 -45 c 0
 906 -52 902 -56 895 -56 c 0
458 -27 m 0
 458 -57 436 -79 406 -79 c 0
 348 -79 266 2 266 63 c 0
 266 93 286 115 317 115 c 0
 370 115 419 58 441 23 c 0
 453 3 458 -6 458 -27 c 0
293 358 m 0
 293 349 299 343 308 343 c 0
 335 343 344 366 344 394 c 1
 316 394 293 385 293 358 c 0
408 3 m 1
 408 3 l 1
EndSplineSet
Layer: 1  0 1 1  #fffffffe 1  #fffffffe 1 50 miter butt [1 0 0 1] [0 255]
Refer: 40 2344 N 1 0 0 1 0 0 3
Refer: 60 2364 S 1 0 0 1 -138 299 2
Ligature2: "All +- nukta +IZIA Nukta Forms" Na nuqta
MultipleSubs2: "Nukta decomposition" Na nuqta
LCarets2: 1 0
Colour: b200
EndChar

StartChar: Pa
Encoding: 58 2346 42
Width: 1000
GlyphClass: 2
InSpiro: 1
Flags: MW
LayerCount: 2
Layer: 0  1 0 1  #fffffffe 1  #fffffffe 1 10 round round [1 0 0 1] [0 255]
SplineSet
1005 906 m 2
 1035 906 1106 836 1106 805 c 0
 1106 798 1102 794 1095 794 c 2
 906 794 l 1
 906 514 906 235 906 -45 c 0
 906 -52 902 -56 895 -56 c 0
 865 -56 794 14 794 45 c 2
 794 282 l 1
 732 242 652 194 559 194 c 0
 418 194 310 299 253 392 c 0
 232 426 219 456 210 486 c 0
 194 541 194 594 194 645 c 2
 194 794 l 1
 -5 794 l 2
 -35 794 -106 864 -106 895 c 0
 -106 902 -102 906 -95 906 c 2
 1005 906 l 2
794 460 m 1
 794 794 l 1
 306 794 l 1
 306 555 l 2
 306 473 315 378 358 340 c 0
 379 321 424 306 468 306 c 0
 578 306 669 375 741 424 c 2
 794 460 l 1
EndSplineSet
Layer: 1  0 1 1  #fffffffe 1  #fffffffe 1 50 bevel butt [1 0 0 1] [0 255]
Refer: 905 -1 N 1 0 0 1 0 0 2
Refer: 857 -1 N 1 0 0 1 0 0 2
Refer: 855 -1 N 1 0 0 1 0 0 2
Colour: b200
EndChar

StartChar: Pha
Encoding: 59 2347 43
Width: 1000
GlyphClass: 2
InSpiro: 1
Flags: MW
AnchorPoint: "below_middle_mark" 416 32 basechar 0
AnchorPoint: "below_mark" 490 0 basechar 0
AnchorPoint: "above_mark" 550 850 basechar 0
LayerCount: 2
Layer: 0  1 0 1  #fffffffe 1  #fffffffe 1 10 round round [1 0 0 1] [0 255]
SplineSet
-5 794 m 2
 -35 794 -106 864 -106 895 c 0
 -106 902 -102 906 -95 906 c 2
 1005 906 l 2
 1035 906 1106 836 1106 805 c 0
 1106 798 1102 794 1095 794 c 2
 606 794 l 1
 606 585 l 1
 628 595 655 602 682 602 c 0
 700 602 712 600 729 595 c 0
 756 587 803 557 829 531 c 0
 867 493 883 461 891 439 c 0
 899 416 903 397 903 378 c 0
 903 320 878 278 854 236 c 2
 805 149 l 2
 803 146 801 144 796 144 c 0
 766 144 695 214 695 245 c 0
 695 248 696 249 697 251 c 2
 746 338 l 2
 769 379 791 418 791 465 c 0
 791 474 790 482 789 489 c 1
 783 490 777 490 771 490 c 0
 697 490 648 441 606 400 c 1
 606 -45 l 2
 606 -52 602 -56 595 -56 c 0
 565 -56 494 14 494 45 c 2
 494 302 l 1
 460 281 424 265 379 265 c 0
 362 265 344 267 326 272 c 0
 234 298 141 393 111 484 c 0
 96 529 94 573 94 627 c 0
 94 633 94 639 94 645 c 2
 94 794 l 1
 -5 794 l 2
289 377 m 0
 378 377 444 451 494 500 c 1
 494 794 l 1
 206 794 l 1
 206 555 l 2
 206 550 206 545 206 540 c 0
 206 483 209 425 230 391 c 1
 242 385 267 377 289 377 c 0
EndSplineSet
Layer: 1  0 1 1  #fffffffe 1  #fffffffe 1 50 miter butt [1 0 0 1] [0 255]
Refer: 855 -1 N 1 0 0 1 0 0 2
Refer: 854 -1 N 1 0 0 1 0 0 2
Refer: 909 -1 N 1 0 0 1 0 0 2
Colour: ff00
EndChar

StartChar: Ba
Encoding: 60 2348 44
Width: 1000
GlyphClass: 2
InSpiro: 1
Flags: MW
LayerCount: 2
Layer: 0  1 0 1  #fffffffe 1  #fffffffe 1 10 round round [1 0 0 1] [0 255]
SplineSet
1005 906 m 0
 1035 906 1106 836 1106 805 c 0
 1106 798 1102 794 1095 794 c 2
 906 794 l 1
 906 514 906 235 906 -45 c 0
 906 -52 902 -56 895 -56 c 0
 865 -56 794 14 794 45 c 2
 794 204 l 1
 746 175 680 149 608 149 c 0
 551 149 516 159 468 183 c 0
 439 198 403 223 369 257 c 0
 315 311 271 373 271 457 c 0
 271 546 325 610 384 645 c 0
 431 673 486 686 543 686 c 0
 630 686 710 666 758 618 c 0
 777 599 789 579 794 565 c 1
 794 794 l 1
 -5 794 l 2
 -35 794 -106 864 -106 895 c 0
 -106 902 -102 906 -95 906 c 0
 272 906 638 906 1005 906 c 0
477 530 m 1
 429 498 383 441 383 368 c 0
 383 338 392 308 404 292 c 1
 428 274 474 261 518 261 c 0
 567 261 621 276 659 295 c 1
 477 530 l 1
705 322 m 1
 738 343 768 368 794 395 c 1
 794 548 l 1
 792 545 789 544 785 544 c 0
 781 544 776 545 771 547 c 0
 732 563 686 574 633 574 c 0
 596 574 560 568 525 555 c 1
 705 322 l 1
EndSplineSet
Layer: 1  0 1 1  #fffffffe 1  #fffffffe 1 50 miter butt [1 0 0 1] [0 255]
Refer: 880 -1 N 1 0 0 1 0 0 2
Refer: 857 -1 N 1 0 0 1 0 0 2
Refer: 855 -1 N 1 0 0 1 0 0 2
Colour: b200
EndChar

StartChar: Bha
Encoding: 61 2349 45
Width: 1000
GlyphClass: 2
InSpiro: 1
Flags: MW
LayerCount: 2
Layer: 0  1 0 1  #fffffffe 1  #fffffffe 1 10 round round [1 0 0 1] [0 255]
SplineSet
895 -56 m 0
 865 -56 794 14 794 45 c 2
 794 394 l 1
 556 394 l 1
 556 305 l 2
 556 262 539 231 497 231 c 0
 478 231 453 240 424 260 c 0
 397 279 374 300 362 312 c 0
 350 324 329 347 310 374 c 0
 290 403 281 428 281 447 c 0
 281 489 312 506 355 506 c 2
 444 506 l 1
 444 745 l 2
 444 784 442 821 430 848 c 1
 418 853 403 856 385 856 c 0
 317 856 255 806 255 737 c 0
 255 726 257 714 260 706 c 1
 272 702 287 699 302 699 c 0
 332 699 403 629 403 598 c 0
 403 591 399 587 392 587 c 0
 371 587 350 591 326 600 c 0
 299 610 262 629 221 670 c 0
 182 709 143 763 143 826 c 0
 143 910 212 968 295 968 c 0
 372 968 422 929 466 885 c 0
 524 827 556 766 556 655 c 2
 556 506 l 1
 794 506 l 1
 794 794 l 1
 764 795 694 864 694 895 c 0
 694 902 698 906 705 906 c 0
 788 906 872 906 955 906 c 0
 985 906 1056 836 1056 805 c 0
 1056 798 1052 794 1045 794 c 2
 906 794 l 1
 906 514 906 235 906 -45 c 0
 906 -52 902 -56 895 -56 c 0
393 358 m 0
 393 349 399 343 408 343 c 0
 435 343 444 366 444 394 c 1
 416 394 393 385 393 358 c 0
EndSplineSet
Layer: 1  0 1 1  #fffffffe 1  #fffffffe 1 50 miter butt [1 0 0 1] [0 255]
Refer: 912 -1 N 1 0 0 1 0 0 2
Refer: 862 -1 N 1 0 0 1 0 0 2
Refer: 857 -1 N 1 0 0 1 0 0 2
Colour: b200
EndChar

StartChar: Ma
Encoding: 62 2350 46
Width: 1000
GlyphClass: 2
Flags: MW
LayerCount: 2
Layer: 0  1 0 1  #fffffffe 1  #fffffffe 1 10 round round [1 0 0 1] [0 255]
SplineSet
895 -56 m 0
 865 -56 794 14 794 45 c 2
 794 394 l 1
 456 394 l 1
 456 305 l 2
 456 262 439 231 397 231 c 0
 378 231 353 240 324 260 c 0
 297 279 274 300 262 312 c 0
 250 324 229 347 210 374 c 0
 190 403 181 428 181 447 c 0
 181 489 212 506 255 506 c 2
 344 506 l 1
 344 794 l 1
 -5 794 l 2
 -35 794 -106 864 -106 895 c 0
 -106 902 -102 906 -95 906 c 2
 1005 906 l 2
 1035 906 1106 836 1106 805 c 0
 1106 798 1102 794 1095 794 c 2
 906 794 l 1
 906 514 906 235 906 -45 c 0
 906 -52 902 -56 895 -56 c 0
293 358 m 0
 293 349 299 343 308 343 c 0
 335 343 344 366 344 394 c 1
 316 394 293 385 293 358 c 0
456 506 m 1
 794 506 l 1
 794 794 l 1
 456 794 l 1
 456 506 l 1
EndSplineSet
Layer: 1  0 1 1  #fffffffe 1  #fffffffe 1 50 miter butt [1 0 0 1] [0 255]
Refer: 911 -1 N 1 0 0 1 0 0 2
Refer: 857 -1 N 1 0 0 1 0 0 2
Refer: 855 -1 N 1 0 0 1 0 0 2
Colour: b200
EndChar

StartChar: Ya
Encoding: 63 2351 47
Width: 1000
GlyphClass: 2
InSpiro: 1
Flags: MW
LayerCount: 2
Layer: 0  1 0 1  #fffffffe 1  #fffffffe 1 10 round round [1 0 0 1] [0 255]
SplineSet
1005 906 m 2
 1035 906 1106 836 1106 805 c 0
 1106 798 1102 794 1095 794 c 2
 906 794 l 1
 906 514 906 235 906 -45 c 0
 906 -52 902 -56 895 -56 c 0
 865 -56 794 14 794 45 c 2
 794 273 l 1
 733 234 654 194 562 194 c 0
 412 194 296 300 241 404 c 0
 222 441 207 478 207 512 c 0
 207 518 210 522 215 523 c 0
 294 538 364 611 364 702 c 0
 364 730 353 764 345 777 c 0
 339 781 320 790 293 794 c 1
 -5 794 l 2
 -35 794 -106 864 -106 895 c 0
 -106 902 -102 906 -95 906 c 2
 1005 906 l 2
476 613 m 0
 476 511 406 434 320 413 c 1
 329 365 339 342 378 325 c 0
 403 314 435 305 472 305 c 0
 585 305 671 367 744 417 c 2
 794 451 l 1
 794 794 l 1
 398 794 l 1
 445 741 476 690 476 613 c 0
EndSplineSet
Layer: 1  0 1 1  #fffffffe 1  #fffffffe 1 50 miter butt [1 0 0 1] [0 255]
Refer: 907 -1 N 1 0 0 1 0 0 2
Refer: 857 -1 N 1 0 0 1 0 0 2
Refer: 855 -1 N 1 0 0 1 0 0 2
Colour: b200
EndChar

StartChar: Ra
Encoding: 64 2352 48
Width: 1000
GlyphClass: 2
InSpiro: 1
Flags: MW
AnchorPoint: "above_mark" 550 850 basechar 0
AnchorPoint: "below_middle_mark" 362 0 basechar 0
AnchorPoint: "below_mark" 384 0 basechar 0
LayerCount: 2
Layer: 0  1 0 1  #fffffffe 1  #fffffffe 1 10 round round [1 0 0 1] [0 255]
SplineSet
458 372 m 0
 428 372 369 433 359 462 c 1
 356 457 354 451 354 443 c 0
 354 437 356 432 357 429 c 0
 357 429 357 428 364 420 c 0
 470 291 586 175 715 69 c 0
 738 50 769 10 769 -8 c 0
 769 -15 765 -19 758 -19 c 0
 747 -19 729 -10 711 5 c 0
 562 127 422 267 300 416 c 0
 280 440 242 487 242 532 c 0
 242 566 263 589 297 589 c 0
 339 589 399 541 429 504 c 1
 504 540 565 626 565 720 c 0
 565 747 560 773 552 794 c 1
 -5 794 l 2
 -35 794 -106 864 -106 895 c 0
 -106 902 -102 906 -95 906 c 0
 272 906 638 906 1005 906 c 0
 1035 906 1106 836 1106 805 c 0
 1106 798 1102 794 1095 794 c 2
 627 794 l 1
 655 750 677 686 677 630 c 0
 677 498 580 392 461 372 c 0
 460 372 459 372 458 372 c 0
EndSplineSet
Layer: 1  0 1 1  #fffffffe 1  #fffffffe 1 50 miter butt [1 0 0 1] [0 255]
Refer: 913 -1 N 1 0 0 1 0 0 2
Refer: 855 -1 N 1 0 0 1 0 0 2
Colour: b200
EndChar

StartChar: Rra
Encoding: 65 2353 49
Width: 1000
GlyphClass: 3
Flags: MW
AnchorPoint: "above_mark" 550 850 basechar 0
AnchorPoint: "below_mark" 432 0 basechar 0
LayerCount: 2
Layer: 0  1 0 1  #fffffffe 1  #fffffffe 1 10 round round [1 0 0 1] [0 255]
SplineSet
458 372 m 0
 428 372 369 433 359 462 c 1
 356 457 354 451 354 443 c 0
 354 437 356 432 357 429 c 0
 357 429 357 428 364 420 c 0
 470 291 586 175 715 69 c 0
 738 50 769 10 769 -8 c 0
 769 -15 765 -19 758 -19 c 0
 747 -19 729 -10 711 5 c 0
 562 127 422 267 300 416 c 0
 280 440 242 487 242 532 c 0
 242 566 263 589 297 589 c 0
 339 589 399 541 429 504 c 1
 504 540 565 626 565 720 c 0
 565 747 560 773 552 794 c 1
 -5 794 l 2
 -35 794 -106 864 -106 895 c 0
 -106 902 -102 906 -95 906 c 0
 272 906 638 906 1005 906 c 0
 1035 906 1106 836 1106 805 c 0
 1106 798 1102 794 1095 794 c 2
 627 794 l 1
 655 750 677 686 677 630 c 0
 677 498 580 392 461 372 c 0
 460 372 459 372 458 372 c 0
366 54 m 0
 366 24 344 2 314 2 c 0
 256 2 174 83 174 144 c 0
 174 174 194 196 225 196 c 0
 278 196 327 139 349 104 c 0
 361 84 366 75 366 54 c 0
316 84 m 1
 316 84 l 1
EndSplineSet
Layer: 1  0 1 1  #fffffffe 1  #fffffffe 1 50 miter butt [1 0 0 1] [0 255]
Refer: 48 2352 N 1 0 0 1 0 0 3
Refer: 734 -1 S 1 0 0 1 -230 380 2
Ligature2: "All +- nukta +IZIA Nukta Forms" Ra nuqta
LCarets2: 1 0
Colour: b200
EndChar

StartChar: La
Encoding: 66 2354 50
Width: 1000
GlyphClass: 2
InSpiro: 1
Flags: MW
LayerCount: 2
Layer: 0  1 0 1  #fffffffe 1  #fffffffe 1 10 round round [1 0 0 1] [0 255]
SplineSet
1005 906 m 0
 1035 906 1106 836 1106 805 c 0
 1106 798 1102 794 1095 794 c 2
 906 794 l 1
 906 514 906 235 906 -45 c 0
 906 -52 902 -56 895 -56 c 0
 865 -56 794 14 794 45 c 2
 794 487 l 1
 792 487 789 487 787 487 c 0
 705 487 643 432 605 379 c 0
 605 378 604 378 603 377 c 0
 576 339 555 293 543 246 c 0
 542 241 539 239 533 239 c 0
 503 239 432 309 432 340 c 0
 432 341 433 343 433 344 c 0
 443 382 458 418 477 451 c 1
 449 466 413 478 372 478 c 0
 281 478 220 414 220 327 c 0
 220 270 245 225 270 192 c 0
 293 162 328 128 358 99 c 2
 439 21 l 2
 462 -1 481 -30 481 -45 c 0
 481 -52 477 -56 470 -56 c 0
 457 -56 433 -43 411 -21 c 2
 329 57 l 2
 283 101 239 144 197 199 c 0
 155 254 109 332 109 416 c 0
 109 518 177 590 283 590 c 0
 298 590 313 589 328 586 c 0
 387 575 449 545 509 499 c 1
 549 549 613 599 698 599 c 0
 733 599 767 589 794 576 c 1
 794 794 l 1
 -5 794 l 2
 -35 794 -106 864 -106 895 c 0
 -106 902 -102 906 -95 906 c 0
 272 906 638 906 1005 906 c 0
EndSplineSet
Layer: 1  0 1 1  #fffffffe 1  #fffffffe 1 50 miter butt [1 0 0 1] [0 255]
Refer: 921 -1 N 1 0 0 1 0 0 2
Refer: 857 -1 N 1 0 0 1 0 0 2
Refer: 855 -1 N 1 0 0 1 0 0 2
Substitution2: "Dflt +IZIA Mar (La, Sha)" La_MAR
Colour: bf00
EndChar

StartChar: LLa
Encoding: 67 2355 51
Width: 1000
GlyphClass: 2
InSpiro: 1
Flags: MW
AnchorPoint: "below_mark" 706 0 basechar 0
AnchorPoint: "above_mark" 650 850 basechar 0
LayerCount: 2
Layer: 0  1 0 1  #fffffffe 1  #fffffffe 1 10 round round [1 0 0 1] [0 255]
SplineSet
-5 794 m 2
 -35 794 -106 864 -106 895 c 0
 -106 902 -102 906 -95 906 c 0
 272 906 638 906 1005 906 c 0
 1035 906 1106 836 1106 805 c 0
 1106 798 1102 794 1095 794 c 2
 706 794 l 1
 706 585 l 1
 766 556 830 488 856 435 c 0
 874 400 880 369 880 340 c 0
 880 228 787 144 674 144 c 0
 592 144 530 183 479 229 c 1
 448 185 403 144 331 144 c 0
 255 144 200 186 157 229 c 0
 108 278 70 335 70 410 c 0
 70 522 163 606 276 606 c 0
 358 606 420 567 471 521 c 1
 499 561 537 595 594 604 c 1
 594 794 l 1
 -5 794 l 2
366 494 m 0
 268 494 182 417 182 321 c 0
 182 298 188 278 194 265 c 1
 204 261 223 256 241 256 c 0
 304 256 345 296 372 335 c 0
 402 378 420 428 444 475 c 1
 426 485 397 494 366 494 c 0
584 256 m 0
 682 256 768 333 768 429 c 0
 768 452 761 474 756 485 c 1
 744 491 726 494 709 494 c 0
 646 494 605 454 578 415 c 0
 548 372 530 322 506 275 c 1
 525 265 553 256 584 256 c 0
EndSplineSet
Layer: 1  0 1 1  #fffffffe 1  #fffffffe 1 50 miter butt [1 0 0 1] [0 255]
Refer: 1543 -1 S 1 0 0 1 0 0 2
Refer: 855 -1 N 1 0 0 1 0 0 2
Substitution2: "Decrease in height" LLa_small
Colour: ff00
EndChar

StartChar: LLLa
Encoding: 68 2356 52
Width: 1000
GlyphClass: 3
Flags: MW
AnchorPoint: "below_mark" 730 0 basechar 0
AnchorPoint: "above_mark" 650 850 basechar 0
LayerCount: 2
Layer: 0  1 0 1  #fffffffe 1  #fffffffe 1 10 round round [1 0 0 1] [0 255]
SplineSet
-5 794 m 2
 -35 794 -106 864 -106 895 c 0
 -106 902 -102 906 -95 906 c 0
 272 906 638 906 1005 906 c 0
 1035 906 1106 836 1106 805 c 0
 1106 798 1102 794 1095 794 c 2
 706 794 l 1
 706 585 l 1
 766 556 830 488 856 435 c 0
 874 400 880 369 880 340 c 0
 880 228 787 144 674 144 c 0
 592 144 530 183 479 229 c 1
 448 185 403 144 331 144 c 0
 255 144 200 186 157 229 c 0
 108 278 70 335 70 410 c 0
 70 522 163 606 276 606 c 0
 358 606 420 567 471 521 c 1
 499 561 537 595 594 604 c 1
 594 794 l 1
 -5 794 l 2
391 -36 m 0
 391 -66 369 -88 339 -88 c 0
 281 -88 199 -7 199 54 c 0
 199 84 219 106 250 106 c 0
 303 106 352 49 374 14 c 0
 386 -6 391 -15 391 -36 c 0
366 494 m 0
 268 494 182 417 182 321 c 0
 182 298 188 278 194 265 c 1
 204 261 223 256 241 256 c 0
 304 256 345 296 372 335 c 0
 402 378 420 428 444 475 c 1
 426 485 397 494 366 494 c 0
584 256 m 0
 682 256 768 333 768 429 c 0
 768 452 761 474 756 485 c 1
 744 491 726 494 709 494 c 0
 646 494 605 454 578 415 c 0
 548 372 530 322 506 275 c 1
 525 265 553 256 584 256 c 0
341 -6 m 1
 341 -6 l 1
EndSplineSet
Layer: 1  0 1 1  #fffffffe 1  #fffffffe 1 50 miter butt [1 0 0 1] [0 255]
Refer: 51 2355 N 1 0 0 1 0 0 3
Refer: 60 2364 S 1 0 0 1 -205 290 2
Ligature2: "All +- nukta +IZIA Nukta Forms" LLa nuqta
MultipleSubs2: "Nukta decomposition" LLa nuqta
LCarets2: 1 0
Colour: ff00
EndChar

StartChar: Va
Encoding: 69 2357 53
Width: 1000
GlyphClass: 2
InSpiro: 1
Flags: MW
LayerCount: 2
Layer: 0  1 0 1  #fffffffe 1  #fffffffe 1 10 round round [1 0 0 1] [0 255]
SplineSet
1005 906 m 0
 1035 906 1106 836 1106 805 c 0
 1106 798 1102 794 1095 794 c 2
 906 794 l 1
 906 514 906 235 906 -45 c 0
 906 -52 902 -56 895 -56 c 0
 865 -56 794 14 794 45 c 2
 794 204 l 1
 745 175 681 149 608 149 c 0
 551 149 516 159 468 183 c 0
 439 198 403 223 369 257 c 0
 315 311 271 373 271 457 c 0
 271 546 325 610 384 645 c 0
 431 673 486 686 543 686 c 0
 630 686 710 666 758 618 c 0
 777 599 789 579 794 565 c 1
 794 794 l 1
 -5 794 l 2
 -35 794 -106 864 -106 895 c 0
 -106 902 -102 906 -95 906 c 0
 272 906 638 906 1005 906 c 0
518 261 m 0
 640 261 730 329 794 395 c 1
 794 548 l 1
 792 545 789 544 785 544 c 0
 781 544 776 545 771 547 c 0
 732 563 686 574 633 574 c 0
 536 574 452 529 411 463 c 0
 393 434 383 400 383 368 c 0
 383 338 392 308 404 292 c 1
 428 274 474 261 518 261 c 0
EndSplineSet
Layer: 1  0 1 1  #fffffffe 1  #fffffffe 1 50 miter butt [1 0 0 1] [0 255]
Refer: 881 -1 N 1 0 0 1 0 0 2
Refer: 857 -1 N 1 0 0 1 0 0 2
Refer: 855 -1 N 1 0 0 1 0 0 2
Colour: b200
EndChar

StartChar: Sha
Encoding: 70 2358 54
Width: 1000
GlyphClass: 2
Flags: MW
LayerCount: 2
Layer: 0  1 0 1  #fffffffe 1  #fffffffe 1 10 round round [1 0 0 1] [0 255]
SplineSet
955 906 m 0
 985 906 1056 836 1056 805 c 0
 1056 798 1052 794 1045 794 c 2
 906 794 l 1
 906 -45 l 2
 906 -52 902 -56 895 -56 c 0
 865 -56 794 14 794 45 c 2
 794 794 l 1
 764 795 694 864 694 895 c 0
 694 902 698 906 705 906 c 0
 788 906 872 906 955 906 c 0
658 577 m 0
 658 437 569 340 464 295 c 1
 549 211 629 118 697 23 c 0
 708 8 714 -5 714 -14 c 0
 714 -21 710 -25 703 -25 c 0
 681 -25 637 14 619 39 c 0
 556 127 487 205 411 277 c 1
 385 271 359 267 329 267 c 0
 258 267 194 328 170 379 c 0
 162 395 161 404 161 414 c 0
 161 445 185 461 215 461 c 0
 269 461 314 426 349 399 c 1
 413 423 465 463 502 520 c 1
 382 534 282 607 235 699 c 0
 220 728 215 752 215 775 c 0
 215 854 283 911 362 911 c 0
 443 911 503 864 549 818 c 0
 613 754 658 685 658 577 c 0
451 799 m 0
 388 799 327 749 327 686 c 0
 327 673 330 662 333 655 c 1
 360 640 403 632 443 630 c 0
 465 629 508 591 526 567 c 1
 538 597 546 628 546 666 c 0
 546 712 532 757 514 782 c 0
 505 790 473 799 451 799 c 0
EndSplineSet
Layer: 1  0 1 1  #fffffffe 1  #fffffffe 1 50 miter butt [1 0 0 1] [0 255]
Refer: 917 -1 N 1 0 0 1 0 0 2
Refer: 862 -1 N 1 0 0 1 0 0 2
Refer: 857 -1 N 1 0 0 1 0 0 2
Substitution2: "Dflt +IZIA Mar (La, Sha)" Sha_MAR
Colour: bfff
EndChar

StartChar: Ssa
Encoding: 71 2359 55
Width: 1000
GlyphClass: 2
InSpiro: 1
Flags: MW
LayerCount: 2
Layer: 0  1 0 1  #fffffffe 1  #fffffffe 1 10 round round [1 0 0 1] [0 255]
SplineSet
1005 906 m 2
 1035 906 1106 836 1106 805 c 0
 1106 798 1102 794 1095 794 c 2
 906 794 l 1
 906 -45 l 2
 906 -52 902 -56 895 -56 c 0
 865 -56 794 14 794 45 c 2
 794 282 l 1
 732 242 652 194 559 194 c 0
 418 194 310 299 253 392 c 0
 232 426 219 456 210 486 c 0
 194 541 194 594 194 645 c 2
 194 794 l 1
 -5 794 l 2
 -35 794 -106 864 -106 895 c 0
 -106 902 -102 906 -95 906 c 2
 1005 906 l 2
758 435 m 1
 306 774 l 1
 306 555 l 2
 306 473 315 378 358 340 c 0
 379 321 424 306 468 306 c 0
 578 306 669 375 741 424 c 2
 758 435 l 1
794 476 m 1
 794 794 l 1
 369 794 l 1
 794 476 l 1
EndSplineSet
Layer: 1  0 1 1  #fffffffe 1  #fffffffe 1 50 miter butt [1 0 0 1] [0 255]
Refer: 906 -1 N 1 0 0 1 0 0 2
Refer: 857 -1 N 1 0 0 1 0 0 2
Refer: 855 -1 N 1 0 0 1 0 0 2
Colour: b200
EndChar

StartChar: Sa
Encoding: 72 2360 56
Width: 1000
GlyphClass: 2
InSpiro: 1
Flags: MW
LayerCount: 2
Layer: 0  1 0 1  #fffffffe 1  #fffffffe 1 10 round round [1 0 0 1] [0 255]
SplineSet
308 372 m 0
 278 372 219 433 209 462 c 1
 206 457 204 451 204 443 c 0
 204 437 206 432 207 429 c 0
 207 429 207 428 214 420 c 0
 320 291 436 175 565 69 c 0
 588 50 619 10 619 -8 c 0
 619 -15 615 -19 608 -19 c 0
 597 -19 579 -10 561 5 c 0
 412 127 272 267 150 416 c 0
 130 440 92 487 92 532 c 0
 92 566 113 589 147 589 c 0
 189 589 249 541 279 504 c 1
 354 540 415 626 415 720 c 0
 415 747 410 773 402 794 c 1
 -5 794 l 2
 -35 794 -106 864 -106 895 c 0
 -106 902 -102 906 -95 906 c 2
 1005 906 l 2
 1035 906 1106 836 1106 805 c 0
 1106 798 1102 794 1095 794 c 2
 906 794 l 1
 906 514 906 235 906 -45 c 0
 906 -52 902 -56 895 -56 c 0
 865 -56 794 14 794 45 c 2
 794 390 l 1
 762 383 728 379 690 379 c 0
 591 379 521 400 445 439 c 1
 408 405 362 381 311 372 c 0
 310 372 309 372 308 372 c 0
477 794 m 1
 505 750 527 686 527 630 c 0
 527 585 515 541 494 503 c 1
 527 495 562 491 600 491 c 0
 676 491 734 505 794 532 c 1
 794 794 l 1
 477 794 l 1
EndSplineSet
Layer: 1  0 1 1  #fffffffe 1  #fffffffe 1 50 miter butt [1 0 0 1] [0 255]
Refer: 914 -1 N 1 0 0 1 0 0 2
Refer: 857 -1 N 1 0 0 1 0 0 2
Refer: 855 -1 N 1 0 0 1 0 0 2
Colour: bfff
EndChar

StartChar: Ha
Encoding: 73 2361 57
Width: 1000
GlyphClass: 2
InSpiro: 1
Flags: MW
AnchorPoint: "above_mark" 750 850 basechar 0
AnchorPoint: "below_middle_mark" 556 0 basechar 0
LayerCount: 2
Layer: 0  1 0 1  #fffffffe 1  #fffffffe 1 10 round round [1 0 0 1] [0 255]
SplineSet
688 23 m 0
 658 23 587 93 587 124 c 0
 587 129 589 132 592 134 c 2
 637 156 l 2
 690 182 749 215 749 293 c 0
 749 309 746 324 741 334 c 1
 714 350 671 358 627 358 c 0
 489 358 357 295 357 154 c 0
 357 90 387 45 418 14 c 0
 435 -3 462 -25 494 -51 c 2
 557 -102 l 2
 581 -121 612 -162 612 -180 c 0
 612 -187 608 -191 601 -191 c 0
 570 -191 518 -134 492 -117 c 0
 413 -53 307 41 265 148 c 0
 252 181 245 212 245 243 c 0
 245 317 282 372 325 407 c 1
 293 445 273 481 264 512 c 0
 259 529 257 546 257 562 c 0
 257 684 380 706 499 706 c 2
 694 706 l 1
 694 794 l 1
 -5 794 l 2
 -35 794 -106 864 -106 895 c 0
 -106 902 -102 906 -95 906 c 0
 272 906 638 906 1005 906 c 0
 1035 906 1106 836 1106 805 c 0
 1106 798 1102 794 1095 794 c 2
 806 794 l 1
 806 605 l 0
 806 598 802 594 795 594 c 2
 589 594 l 2
 492 594 405 581 376 511 c 0
 371 498 369 485 369 472 c 0
 369 459 371 448 374 438 c 1
 424 462 475 470 537 470 c 0
 590 470 627 463 670 444 c 0
 700 431 742 406 782 365 c 0
 825 321 846 280 855 249 c 0
 859 233 861 218 861 204 c 0
 861 115 800 76 739 46 c 2
 694 24 l 2
 692 23 690 23 688 23 c 0
EndSplineSet
Layer: 1  0 1 1  #fffffffe 1  #fffffffe 1 50 miter butt [1 0 0 1] [0 255]
Refer: 1532 -1 S 1 0 0 1 0 0 2
Refer: 855 -1 N 1 0 0 1 0 0 2
Colour: b200
EndChar

StartChar: Oe_sign
Encoding: 74 2362 58
Width: 1000
GlyphClass: 4
Flags: MW
LayerCount: 2
Layer: 0  1 0 1  #fffffffe 1  #fffffffe 1 10 round round [1 0 0 1] [0 255]
SplineSet
895 794 m 0
 865 794 794 864 794 895 c 2
 794 1245 l 2
 794 1252 798 1256 805 1256 c 0
 835 1256 906 1186 906 1155 c 2
 906 805 l 2
 906 798 902 794 895 794 c 0
EndSplineSet
Layer: 1  0 1 1  #fffffffe 1  #fffffffe 1 50 miter square [1 0 0 1] [0 255]
Refer: 874 -1 S 1 0 0 1 0 0 2
Position2: "Zero width post-base -1000" dx=-1000 dy=0 dh=-1000 dv=0
Colour: ff00ff
EndChar

StartChar: Ooe_sign
Encoding: 75 2363 59
Width: 1000
GlyphClass: 2
Flags: MW
LayerCount: 2
Layer: 0  1 0 1  #fffffffe 1  #fffffffe 1 10 round round [1 0 0 1] [0 255]
SplineSet
-5 794 m 2
 -35 794 -106 864 -106 895 c 0
 -106 902 -102 906 -95 906 c 2
 344 906 l 1
 344 1245 l 2
 344 1252 348 1256 355 1256 c 0
 385 1256 456 1186 456 1155 c 2
 456 906 l 1
 1005 906 l 2
 1035 906 1106 836 1106 805 c 0
 1106 798 1102 794 1095 794 c 2
 456 794 l 1
 456 -45 l 2
 456 -52 452 -56 445 -56 c 0
 415 -56 344 14 344 45 c 2
 344 794 l 1
 -5 794 l 2
EndSplineSet
Layer: 1  0 1 1  #fffffffe 1  #fffffffe 1 50 miter butt [1 0 0 1] [0 255]
Refer: 874 -1 N 1 0 0 1 -450 0 2
Refer: 62 2366 N 1 0 0 1 0 0 3
Colour: ffffff
EndChar

StartChar: nuqta
Encoding: 76 2364 60
Width: 1000
GlyphClass: 4
InSpiro: 1
Flags: MW
AnchorPoint: "below_middle_mark" 500 -54.2002 mark 0
LayerCount: 2
Layer: 0  1 0 1  #fffffffe 1  #fffffffe 1 10 round round [1 0 0 1] [0 255]
SplineSet
596 -326 m 0
 596 -356 574 -378 544 -378 c 0
 486 -378 404 -297 404 -236 c 0
 404 -206 424 -184 455 -184 c 0
 508 -184 557 -241 579 -276 c 0
 591 -296 596 -305 596 -326 c 0
546 -296 m 1
 546 -296 l 1
EndSplineSet
Layer: 1  0 1 1  #fffffffe 1  #fffffffe 1 50 miter butt [1 0 0 1] [0 255]
Refer: 875 -1 N 1 0 0 1 0 0 2
Position2: "Zero width post-base -1000" dx=-1000 dy=0 dh=-1000 dv=0
Colour: ff00ff
EndChar

StartChar: avagraha
Encoding: 77 2365 61
Width: 1000
GlyphClass: 2
InSpiro: 1
Flags: MW
LayerCount: 2
Layer: 0  1 0 1  #fffffffe 1  #fffffffe 1 10 round round [1 0 0 1] [0 255]
SplineSet
764 257 m 0
 764 154 681 74 578 74 c 0
 484 74 412 131 359 184 c 0
 323 220 293 261 266 299 c 2
 209 381 l 2
 199 395 194 407 194 416 c 0
 194 423 198 427 205 427 c 0
 227 427 274 386 291 361 c 2
 348 279 l 2
 382 230 406 186 488 186 c 0
 576 186 652 259 652 346 c 0
 652 390 633 427 613 447 c 0
 585 475 522 512 482 542 c 0
 437 575 379 635 355 685 c 0
 342 713 336 736 336 759 c 0
 336 872 440 906 555 906 c 2
 655 906 l 2
 685 906 756 836 756 805 c 0
 756 798 752 794 745 794 c 2
 645 794 l 2
 562 794 502 780 468 731 c 0
 455 713 448 691 448 670 c 0
 448 638 456 628 472 616 c 0
 534 570 584 547 649 482 c 0
 703 428 764 352 764 257 c 0
EndSplineSet
Layer: 1  0 1 1  #fffffffe 1  #fffffffe 1 50 miter butt [1 0 0 1] [0 255]
Refer: 1170 -1 N 1 0 0 1 0 0 2
Colour: ffffff
EndChar

StartChar: Aa_sign
Encoding: 78 2366 62
Width: 1000
GlyphClass: 2
InSpiro: 1
Flags: MW
AnchorPoint: "above_mark" 400 850 basechar 0
LayerCount: 2
Layer: 0  1 0 1  #fffffffe 1  #fffffffe 1 10 round round [1 0 0 1] [0 255]
SplineSet
1005 906 m 0
 1035 906 1106 836 1106 805 c 0
 1106 798 1102 794 1095 794 c 2
 456 794 l 1
 456 -45 l 2
 456 -52 452 -56 445 -56 c 0
 415 -56 344 14 344 45 c 2
 344 794 l 1
 -5 794 l 2
 -35 794 -106 864 -106 895 c 0
 -106 902 -102 906 -95 906 c 0
 272 906 638 906 1005 906 c 0
EndSplineSet
Layer: 1  0 1 1  #fffffffe 1  #fffffffe 1 50 miter butt [1 0 0 1] [0 255]
Refer: 873 -1 S 1 0 0 1 0 0 2
Refer: 855 -1 N 1 0 0 1 0 0 2
Colour: ffffff
EndChar

StartChar: I_sign
Encoding: 79 2367 63
Width: 1000
GlyphClass: 2
Flags: MW
LayerCount: 2
Layer: 0  1 0 1  #fffffffe 1  #fffffffe 1 10 round round [1 0 0 1] [0 255]
SplineSet
45 794 m 2
 15 794 -56 864 -56 895 c 0
 -56 902 -52 906 -45 906 c 2
 94 906 l 1
 94 945 l 2
 94 1147 188 1256 390 1256 c 0
 634 1256 773 1114 884 975 c 2
 984 850 l 2
 998 832 1006 816 1006 805 c 0
 1006 798 1002 794 995 794 c 0
 976 794 935 826 916 850 c 2
 816 975 l 2
 737 1073 657 1144 480 1144 c 0
 317 1144 216 1062 207 906 c 1
 405 906 l 2
 435 906 506 836 506 805 c 0
 506 798 502 794 495 794 c 2
 206 794 l 1
 206 -45 l 2
 206 -52 202 -56 195 -56 c 0
 165 -56 94 14 94 45 c 2
 94 794 l 1
 45 794 l 2
EndSplineSet
Layer: 1  0 1 1  #fffffffe 1  #fffffffe 1 50 miter butt [1 0 0 1] [0 255]
Refer: 1498 -1 N 1 0 0 1 0 0 2
Refer: 856 -1 N 1 0 0 1 0 0 2
Refer: 922 -1 N 1 0 0 1 -450 0 2
Substitution2: "i +IZIA i_850" _var_i_850
Colour: ffffff
EndChar

StartChar: II_sign
Encoding: 80 2368 64
Width: 1000
GlyphClass: 2
Flags: MW
LayerCount: 2
Layer: 0  1 0 1  #fffffffe 1  #fffffffe 1 10 round round [1 0 0 1] [0 255]
SplineSet
495 794 m 2
 465 794 394 864 394 895 c 0
 394 902 398 906 405 906 c 2
 739 906 l 1
 673 960 605 1020 540 1070 c 0
 493 1106 442 1144 364 1144 c 0
 249 1144 179 1056 162 957 c 0
 156 924 156 890 156 855 c 2
 156 805 l 2
 156 798 152 794 145 794 c 0
 115 794 44 863 44 894 c 2
 44 944 l 2
 44 1030 53 1100 89 1155 c 0
 125 1210 189 1256 275 1256 c 0
 379 1256 472 1189 536 1140 c 0
 604 1088 662 1035 725 984 c 2
 822 906 l 1
 955 906 l 2
 985 906 1056 836 1056 805 c 0
 1056 798 1052 794 1045 794 c 2
 906 794 l 1
 906 -45 l 2
 906 -52 902 -56 895 -56 c 0
 865 -56 794 14 794 45 c 2
 794 794 l 1
 495 794 l 2
EndSplineSet
Layer: 1  0 1 1  #fffffffe 1  #fffffffe 1 50 miter butt [1 0 0 1] [0 255]
Refer: 1500 -1 N 1 0 0 1 0 0 2
Refer: 1137 -1 N 1 0 0 1.00138 450 -1.65941 2
Refer: 857 -1 N 1 0 0 1 0 0 2
Substitution2: "ii +IZIA ii_850" _var_ii_850
Colour: ffffff
EndChar

StartChar: U_sign
Encoding: 81 2369 65
Width: 1000
GlyphClass: 4
Flags: MW
AnchorPoint: "below_mark" 850 0 mark 0
LayerCount: 2
Layer: 0  1 0 1  #fffffffe 1  #fffffffe 1 10 round round [1 0 0 1] [0 255]
SplineSet
1001 -137 m 0
 1001 -212 937 -259 862 -259 c 0
 794 -259 746 -230 699 -197 c 0
 659 -169 616 -129 584 -90 c 0
 569 -72 561 -55 561 -44 c 0
 561 -37 565 -33 572 -33 c 0
 586 -33 612 -48 635 -71 c 0
 670 -106 701 -147 773 -147 c 0
 831 -147 884 -109 889 -56 c 1
 865 -57 845 -67 829 -80 c 0
 827 -82 825 -82 822 -82 c 0
 792 -82 721 -12 721 19 c 0
 721 44 781 56 806 56 c 0
 822 56 839 54 859 45 c 0
 877 37 905 21 936 -10 c 0
 967 -41 982 -69 990 -87 c 0
 998 -107 1001 -122 1001 -137 c 0
EndSplineSet
Layer: 1  0 1 1  #fffffffe 1  #fffffffe 1 50 miter butt [1 0 0 1] [0 255]
Refer: 920 -1 S 1 0 0 1 -5 0 2
Position2: "Zero width post-base -1000" dx=-1000 dy=0 dh=-1000 dv=0
Substitution2: "Low subsigns" U_sign_low
Substitution2: "Shrink U_sign" U_sign_small
Substitution2: "U, Uu +IZIA vattu" vattu
Colour: ff00ff
EndChar

StartChar: Uu_sign
Encoding: 82 2370 66
Width: 1000
GlyphClass: 4
InSpiro: 1
Flags: MW
AnchorPoint: "below_mark" 850 0 mark 0
LayerCount: 2
Layer: 0  1 0 1  #fffffffe 1  #fffffffe 1 10 round round [1 0 0 1] [0 255]
SplineSet
594 -51 m 0
 594 24 658 71 733 71 c 0
 801 71 849 42 896 9 c 0
 936 -19 979 -59 1011 -98 c 0
 1026 -116 1034 -133 1034 -144 c 0
 1034 -151 1030 -155 1023 -155 c 0
 1009 -155 983 -140 960 -117 c 0
 925 -82 894 -41 822 -41 c 0
 764 -41 711 -79 706 -132 c 1
 730 -131 750 -121 766 -108 c 0
 768 -106 770 -106 773 -106 c 0
 803 -106 874 -176 874 -207 c 0
 874 -232 814 -244 789 -244 c 0
 773 -244 756 -242 736 -233 c 0
 718 -225 690 -209 659 -178 c 0
 628 -147 613 -119 605 -101 c 0
 597 -81 594 -66 594 -51 c 0
EndSplineSet
Layer: 1  0 1 1  #fffffffe 1  #fffffffe 1 50 miter butt [1 0 0 1] [0 255]
Refer: 1171 -1 N 1 0 0 1 0 0 2
Position2: "Zero width post-base -1000" dx=-1000 dy=0 dh=-1000 dv=0
Substitution2: "Low subsigns" Uu_sign_low
Substitution2: "U, Uu +IZIA vattu" vattu
Colour: ff00ff
EndChar

StartChar: R_vocalic_sign
Encoding: 83 2371 67
Width: 1000
GlyphClass: 4
InSpiro: 1
Flags: MW
AnchorPoint: "below_mark" 850 0 mark 0
LayerCount: 2
Layer: 0  1 0 1  #fffffffe 1  #fffffffe 1 10 round round [1 0 0 1] [0 255]
SplineSet
805 56 m 0
 835 56 906 -14 906 -45 c 0
 906 -52 903 -56 896 -56 c 0
 795 -61 692 -118 692 -225 c 0
 692 -236 693 -248 696 -256 c 1
 712 -263 735 -266 757 -266 c 0
 815 -266 882 -241 929 -220 c 0
 931 -219 932 -219 934 -219 c 0
 964 -219 1035 -289 1035 -320 c 0
 1035 -336 995 -345 983 -349 c 0
 941 -365 896 -378 848 -378 c 0
 760 -378 706 -341 657 -292 c 0
 613 -248 580 -206 580 -136 c 0
 580 -18 691 56 805 56 c 0
EndSplineSet
Layer: 1  0 1 1  #fffffffe 1  #fffffffe 1 50 miter butt [1 0 0 1] [0 255]
Refer: 1140 -1 S 1 0 0 1 0 0 2
Position2: "Zero width post-base -1000" dx=-1000 dy=0 dh=-1000 dv=0
Substitution2: "Low subsigns" R_vocalic_sign_low
Colour: ff00ff
EndChar

StartChar: Rr_vocalic_sign
Encoding: 84 2372 68
Width: 1000
GlyphClass: 4
Flags: MW
AnchorPoint: "below_mark" 850 0 mark 0
LayerCount: 2
Layer: 0  1 0 1  #fffffffe 1  #fffffffe 1 10 round round [1 0 0 1] [0 255]
SplineSet
680 -302 m 1
 628 -262 576 -204 576 -132 c 0
 576 -10 699 40 803 56 c 0
 804 56 804 56 805 56 c 0
 835 56 906 -14 906 -45 c 0
 906 -51 903 -55 897 -56 c 0
 805 -70 708 -110 690 -200 c 0
 689 -207 688 -215 688 -222 c 0
 688 -228 688 -236 693 -237 c 0
 703 -239 713 -240 724 -240 c 0
 729 -240 733 -239 737 -239 c 0
 738 -239 739 -239 740 -239 c 0
 771 -236 804 -226 829 -214 c 0
 831 -213 833 -213 835 -213 c 0
 865 -213 936 -283 936 -314 c 0
 936 -319 935 -322 931 -324 c 0
 903 -337 868 -349 831 -352 c 1
 801 -378 772 -422 772 -470 c 0
 772 -477 772 -485 773 -491 c 1
 782 -493 793 -494 803 -494 c 0
 844 -494 890 -476 921 -457 c 0
 923 -456 924 -455 927 -455 c 0
 957 -455 1028 -525 1028 -556 c 0
 1028 -560 1026 -563 1023 -565 c 0
 989 -586 942 -606 893 -606 c 0
 863 -606 843 -602 812 -588 c 0
 789 -577 743 -544 715 -511 c 0
 684 -475 660 -439 660 -381 c 0
 660 -350 668 -325 680 -302 c 1
EndSplineSet
Layer: 1  0 1 1  #fffffffe 1  #fffffffe 1 50 miter butt [1 0 0 1] [0 255]
Refer: 1143 -1 N 1 0 0 1 0 0 2
Position2: "Zero width post-base -1000" dx=-1000 dy=0 dh=-1000 dv=0
Substitution2: "Decrease in height" RR_vocalic_low
Colour: ff00ff
EndChar

StartChar: E_candra_sign
Encoding: 85 2373 69
Width: 1000
GlyphClass: 4
Flags: MW
AnchorPoint: "above_mark" 850 851 mark 0
LayerCount: 2
Layer: 0  1 0 1  #fffffffe 1  #fffffffe 1 10 round round [1 0 0 1] [0 255]
SplineSet
905 1341 m 0
 935 1341 1006 1271 1006 1240 c 0
 1006 1189 970 1137 936 1107 c 0
 898 1074 848 1054 795 1054 c 0
 671 1054 570 1153 524 1238 c 0
 507 1270 494 1301 494 1330 c 0
 494 1337 498 1341 505 1341 c 0
 536 1341 602 1273 606 1243 c 0
 609 1221 616 1200 625 1187 c 1
 641 1175 675 1166 705 1166 c 0
 802 1166 882 1243 894 1332 c 0
 895 1338 899 1341 905 1341 c 0
EndSplineSet
Layer: 1  0 1 1  #fffffffe 1  #fffffffe 1 50 miter butt [1 0 0 1] [0 255]
Refer: 1145 -1 N 1 0 0 1 0 0 2
Position2: "Zero width post-base -1000" dx=-1000 dy=0 dh=-1000 dv=0
Colour: ff00ff
EndChar

StartChar: E_short_sign
Encoding: 86 2374 70
Width: 1000
GlyphClass: 4
InSpiro: 1
Flags: MW
AnchorPoint: "above_mark" 850 850 mark 0
LayerCount: 2
Layer: 0  1 0 1  #fffffffe 1  #fffffffe 1 10 round round [1 0 0 1] [0 255]
SplineSet
344 1325 m 0
 344 1332 348 1336 355 1336 c 0
 386 1336 447 1273 455 1244 c 2
 478 1164 l 2
 481 1155 483 1146 485 1139 c 1
 542 1121 600 1128 651 1104 c 0
 676 1092 711 1069 742 1038 c 0
 770 1010 784 988 795 973 c 2
 889 842 l 2
 900 827 906 814 906 805 c 0
 906 798 902 794 895 794 c 0
 873 794 829 833 811 858 c 2
 708 1000 l 1
 668 1021 606 1015 558 1030 c 0
 464 1059 394 1146 368 1236 c 2
 345 1316 l 2
 344 1319 344 1323 344 1325 c 0
EndSplineSet
Layer: 1  0 1 1  #fffffffe 1  #fffffffe 1 50 miter butt [1 0 0 1] [0 255]
Refer: 1144 -1 N 1 0 0 1 0 0 2
Position2: "Zero width post-base -1000" dx=-1000 dy=0 dh=-1000 dv=0
Colour: ff00ff
EndChar

StartChar: E_sign
Encoding: 87 2375 71
Width: 1000
GlyphClass: 4
InSpiro: 1
Flags: MW
AnchorPoint: "above_mark" 850 850 mark 0
LayerCount: 2
Layer: 0  1 0 1  #fffffffe 1  #fffffffe 1 10 round round [1 0 0 1] [0 255]
SplineSet
398 1250 m 0
 398 1269 452 1270 469 1270 c 0
 491 1270 513 1267 536 1260 c 0
 575 1248 623 1224 676 1171 c 0
 736 1111 766 1036 811 966 c 2
 894 835 l 2
 901 823 906 812 906 805 c 0
 906 798 902 794 895 794 c 0
 871 794 822 839 806 865 c 2
 723 996 l 2
 695 1041 671 1093 641 1135 c 0
 630 1144 587 1158 558 1158 c 0
 540 1158 521 1156 503 1150 c 0
 502 1150 501 1149 499 1149 c 0
 469 1149 398 1219 398 1250 c 0
EndSplineSet
Layer: 1  0 1 1  #fffffffe 1  #fffffffe 1 50 miter butt [1 0 0 1] [0 255]
Refer: 1146 -1 N 1 0 0 1 0 0 2
Position2: "Zero width post-base -1000" dx=-1000 dy=0 dh=-1000 dv=0
Colour: ff00ff
EndChar

StartChar: Ai_sign
Encoding: 88 2376 72
Width: 1000
GlyphClass: 4
InSpiro: 1
Flags: MW
AnchorPoint: "above_mark" 850 850 mark 0
LayerCount: 2
Layer: 0  1 0 1  #fffffffe 1  #fffffffe 1 10 round round [1 0 0 1] [0 255]
SplineSet
424 1166 m 0
 394 1166 323 1236 323 1267 c 0
 323 1271 324 1274 326 1276 c 0
 356 1301 392 1316 438 1316 c 0
 535 1316 602 1250 651 1192 c 0
 713 1119 747 1045 798 972 c 2
 890 841 l 2
 900 827 906 814 906 805 c 0
 906 798 902 794 895 794 c 0
 886 794 871 801 856 812 c 2
 710 919 l 2
 672 947 634 981 597 1006 c 0
 581 1017 560 1024 531 1024 c 0
 496 1024 469 1013 444 995 c 0
 442 994 440 993 437 993 c 0
 407 993 336 1063 336 1094 c 0
 336 1098 337 1101 340 1103 c 0
 369 1124 400 1137 443 1137 c 0
 520 1137 585 1084 628 1049 c 0
 652 1030 675 1012 698 995 c 2
 731 971 l 1
 718 990 l 2
 683 1040 652 1089 623 1136 c 0
 595 1182 590 1204 527 1204 c 0
 489 1204 458 1190 432 1168 c 0
 430 1166 427 1166 424 1166 c 0
EndSplineSet
Layer: 1  0 1 1  #fffffffe 1  #fffffffe 1 50 miter butt [1 0 0 1] [0 255]
Refer: 1147 -1 N 1 0 0 1 0 0 2
Position2: "Zero width post-base -1000" dx=-1000 dy=0 dh=-1000 dv=0
Colour: ff00ff
EndChar

StartChar: O_candra_sign
Encoding: 89 2377 73
Width: 1000
GlyphClass: 2
Flags: MW
LayerCount: 2
Layer: 0  1 0 1  #fffffffe 1  #fffffffe 1 10 round round [1 0 0 1] [0 255]
SplineSet
1005 906 m 0
 1035 906 1106 836 1106 805 c 0
 1106 798 1102 794 1095 794 c 2
 456 794 l 1
 456 -45 l 2
 456 -52 452 -56 445 -56 c 0
 415 -56 344 14 344 45 c 2
 344 794 l 1
 -5 794 l 2
 -35 794 -106 864 -106 895 c 0
 -106 902 -102 906 -95 906 c 0
 272 906 638 906 1005 906 c 0
555 1341 m 0
 585 1341 656 1271 656 1240 c 0
 656 1189 620 1137 586 1107 c 0
 548 1074 498 1054 445 1054 c 0
 321 1054 220 1153 174 1238 c 0
 157 1270 144 1301 144 1330 c 0
 144 1337 148 1341 155 1341 c 0
 186 1341 252 1273 256 1243 c 0
 259 1221 266 1200 275 1187 c 1
 291 1175 325 1166 355 1166 c 0
 452 1166 532 1243 544 1332 c 0
 545 1338 549 1341 555 1341 c 0
EndSplineSet
Layer: 1  0 1 1  #fffffffe 1  #fffffffe 1 50 miter butt [1 0 0 1] [0 255]
Refer: 62 2366 N 1 0 0 1 0 0 3
Refer: 69 2373 S 1 0 0 1 -350 0 2
Colour: ffffff
EndChar

StartChar: O_short_sign
Encoding: 90 2378 74
Width: 1000
GlyphClass: 2
Flags: MW
LayerCount: 2
Layer: 0  1 0 1  #fffffffe 1  #fffffffe 1 10 round round [1 0 0 1] [0 255]
SplineSet
45 794 m 2
 15 794 -56 864 -56 895 c 0
 -56 902 -52 906 -45 906 c 2
 376 906 l 1
 308 1000 l 1
 268 1021 206 1015 158 1030 c 0
 64 1059 -6 1146 -32 1236 c 2
 -55 1316 l 2
 -56 1319 -56 1323 -56 1325 c 0
 -56 1332 -52 1336 -45 1336 c 0
 -14 1336 47 1273 55 1244 c 2
 78 1164 l 2
 81 1155 83 1146 85 1139 c 1
 142 1121 200 1128 251 1104 c 0
 276 1092 311 1069 342 1038 c 0
 370 1010 384 988 395 973 c 2
 444 906 l 1
 1055 906 l 2
 1085 906 1156 836 1156 805 c 0
 1156 798 1152 794 1145 794 c 2
 506 794 l 1
 506 -45 l 2
 506 -52 502 -56 495 -56 c 0
 465 -56 394 14 394 45 c 2
 394 794 l 1
 45 794 l 2
EndSplineSet
Layer: 1  0 1 1  #fffffffe 1  #fffffffe 1 50 miter butt [1 0 0 1] [0 255]
Refer: 1144 -1 S 1 0 0 1 -400 0 2
Refer: 62 2366 N 1 0 0 1 50 0 3
Colour: ffffff
EndChar

StartChar: O_sign
Encoding: 91 2379 75
Width: 1000
GlyphClass: 2
Flags: MW
LayerCount: 2
Layer: 0  1 0 1  #fffffffe 1  #fffffffe 1 10 round round [1 0 0 1] [0 255]
SplineSet
1005 906 m 2
 1035 906 1106 836 1106 805 c 0
 1106 798 1102 794 1095 794 c 2
 456 794 l 1
 456 -45 l 2
 456 -52 452 -56 445 -56 c 0
 415 -56 344 14 344 45 c 2
 344 794 l 1
 -5 794 l 2
 -35 794 -106 864 -106 895 c 0
 -106 902 -102 906 -95 906 c 2
 330 906 l 1
 273 996 l 2
 245 1041 221 1093 191 1135 c 0
 180 1144 137 1158 108 1158 c 0
 90 1158 71 1156 53 1150 c 0
 52 1150 51 1149 49 1149 c 0
 19 1149 -52 1219 -52 1250 c 0
 -52 1269 2 1270 19 1270 c 0
 41 1270 63 1267 86 1260 c 0
 125 1248 173 1224 226 1171 c 0
 286 1111 316 1036 361 966 c 2
 399 906 l 1
 1005 906 l 2
EndSplineSet
Layer: 1  0 1 1  #fffffffe 1  #fffffffe 1 50 miter butt [1 0 0 1] [0 255]
Refer: 1146 -1 S 1 0 0 1 -450 0 2
Refer: 62 2366 N 1 0 0 1 0 0 3
MultipleSubs2: "Vowels decomposition" Aa_sign E_sign
Colour: ffffff
EndChar

StartChar: Au_sign
Encoding: 92 2380 76
Width: 1000
GlyphClass: 2
Flags: MW
LayerCount: 2
Layer: 0  1 0 1  #fffffffe 1  #fffffffe 1 10 round round [1 0 0 1] [0 255]
SplineSet
1055 906 m 2
 1085 906 1156 836 1156 805 c 0
 1156 798 1152 794 1145 794 c 2
 506 794 l 1
 506 -45 l 2
 506 -52 502 -56 495 -56 c 0
 465 -56 394 14 394 45 c 2
 394 794 l 1
 45 794 l 2
 15 794 -56 864 -56 895 c 0
 -56 902 -52 906 -45 906 c 2
 328 906 l 1
 310 919 l 2
 272 947 234 981 197 1006 c 0
 181 1017 160 1024 131 1024 c 0
 96 1024 69 1013 44 995 c 0
 42 994 40 993 37 993 c 0
 7 993 -64 1063 -64 1094 c 0
 -64 1098 -63 1101 -60 1103 c 0
 -31 1124 0 1137 43 1137 c 0
 120 1137 185 1084 228 1049 c 0
 252 1030 275 1012 298 995 c 2
 331 971 l 1
 318 990 l 2
 283 1040 252 1089 223 1136 c 0
 195 1182 190 1204 127 1204 c 0
 89 1204 58 1190 32 1168 c 0
 30 1166 27 1166 24 1166 c 0
 -6 1166 -77 1236 -77 1267 c 0
 -77 1271 -76 1274 -74 1276 c 0
 -44 1301 -8 1316 38 1316 c 0
 135 1316 202 1250 251 1192 c 0
 313 1119 347 1045 398 972 c 2
 445 906 l 1
 1055 906 l 2
EndSplineSet
Layer: 1  0 1 1  #fffffffe 1  #fffffffe 1 50 miter butt [1 0 0 1] [0 255]
Refer: 1147 -1 S 1 0 0 1 -400 0 2
Refer: 62 2366 N 1 0 0 1 50 0 3
MultipleSubs2: "Vowels decomposition" Aa_sign Ai_sign
Colour: ffffff
EndChar

StartChar: halant
Encoding: 93 2381 77
Width: 1000
GlyphClass: 4
InSpiro: 1
Flags: MW
AnchorPoint: "below_mark" 850 0 mark 0
LayerCount: 2
Layer: 0  1 0 1  #fffffffe 1  #fffffffe 1 10 round round [1 0 0 1] [0 255]
SplineSet
443 -91 m 0
 443 -71 501 -71 521 -71 c 0
 642 -71 751 -150 822 -221 c 0
 865 -264 904 -314 936 -365 c 0
 943 -377 947 -387 947 -394 c 0
 947 -401 943 -405 936 -405 c 0
 911 -405 862 -359 846 -333 c 0
 798 -256 733 -183 609 -183 c 0
 586 -183 568 -186 548 -191 c 0
 547 -191 545 -192 544 -192 c 0
 514 -192 443 -122 443 -91 c 0
EndSplineSet
Layer: 1  0 1 1  #fffffffe 1  #fffffffe 1 50 miter butt [1 0 0 1] [0 255]
Refer: 1172 -1 S 1 0 0 1 209 54 2
Position2: "Zero width post-base -1000" dx=-1000 dy=0 dh=-1000 dv=0
Substitution2: "Low subsigns" halant_low
Colour: ff00ff
EndChar

StartChar: E_prishtha
Encoding: 94 2382 78
Width: 1000
GlyphClass: 2
Flags: MW
LayerCount: 2
Layer: 0  1 0 1  #fffffffe 1  #fffffffe 1 10 round round [1 0 0 1] [0 255]
SplineSet
955 906 m 2
 985 906 1056 836 1056 805 c 0
 1056 798 1052 794 1045 794 c 2
 656 794 l 1
 656 -45 l 2
 656 -52 652 -56 645 -56 c 0
 615 -56 544 14 544 45 c 2
 544 895 l 2
 544 902 548 906 555 906 c 2
 955 906 l 2
EndSplineSet
Layer: 1  0 1 1  #fffffffe 1  #fffffffe 1 50 miter butt [1 0 0 1] [0 255]
Refer: 1173 -1 N 1 0 0 1 0 0 2
Colour: ffffff
EndChar

StartChar: Aw_sign
Encoding: 95 2383 79
Width: 1000
GlyphClass: 2
Flags: MW
LayerCount: 2
Layer: 0  1 0 1  #fffffffe 1  #fffffffe 1 10 round round [1 0 0 1] [0 255]
SplineSet
1005 906 m 2
 1035 906 1106 836 1106 805 c 0
 1106 798 1102 794 1095 794 c 2
 456 794 l 1
 456 -45 l 2
 456 -52 452 -56 445 -56 c 0
 415 -56 344 14 344 45 c 2
 344 794 l 1
 -5 794 l 2
 -35 794 -106 864 -106 895 c 0
 -106 902 -102 906 -95 906 c 2
 313 906 l 1
 264 934 195 943 121 947 c 0
 -12 954 -75 973 -157 1055 c 0
 -196 1094 -220 1134 -233 1165 c 0
 -245 1194 -249 1220 -249 1245 c 0
 -249 1252 -245 1256 -238 1256 c 0
 -207 1256 -137 1186 -137 1155 c 0
 -137 1130 -130 1104 -121 1090 c 1
 -77 1059 9 1062 80 1056 c 0
 143 1051 197 1038 247 1014 c 1
 227 1038 170 1056 132 1071 c 0
 84 1089 49 1109 8 1150 c 0
 -30 1188 -48 1221 -57 1245 c 0
 -65 1266 -69 1286 -69 1304 c 0
 -69 1317 -70 1336 -56 1336 c 0
 -26 1336 45 1266 45 1235 c 0
 45 1228 43 1222 43 1215 c 0
 43 1204 46 1194 48 1186 c 1
 84 1169 115 1161 153 1144 c 0
 188 1128 237 1096 276 1057 c 0
 309 1024 329 995 345 973 c 2
 394 906 l 1
 1005 906 l 2
EndSplineSet
Layer: 1  0 1 1  #fffffffe 1  #fffffffe 1 50 miter butt [1 0 0 1] [0 255]
Refer: 1154 -1 S 1 0 0 1 -450 0 2
Refer: 62 2366 N 1 0 0 1 0 0 3
Colour: ffffff
EndChar

StartChar: Om
Encoding: 96 2384 80
Width: 1000
InSpiro: 1
Flags: MW
LayerCount: 2
Layer: 0  1 0 1  #fffffffe 1  #fffffffe 1 10 round round [1 0 0 1] [0 255]
SplineSet
670 1072 m 0
 670 1042 648 1020 618 1020 c 0
 560 1020 478 1101 478 1162 c 0
 478 1192 498 1214 529 1214 c 0
 582 1214 631 1157 653 1122 c 0
 665 1102 670 1093 670 1072 c 0
259 318 m 0
 337 318 391 392 391 470 c 0
 391 500 383 527 373 545 c 1
 355 540 337 537 318 537 c 0
 285 537 269 546 239 576 c 0
 216 599 201 625 201 639 c 0
 201 646 205 650 212 650 c 0
 217 650 223 649 228 649 c 0
 249 649 267 652 285 658 c 0
 287 660 291 662 295 662 c 0
 296 662 295 662 296 662 c 0
 343 680 392 721 392 784 c 0
 392 789 393 800 390 801 c 0
 317 823 238 789 191 761 c 0
 189 760 187 759 184 759 c 0
 154 759 84 829 84 860 c 0
 84 864 85 867 88 869 c 0
 134 897 188 919 256 919 c 0
 371 919 468 823 496 744 c 0
 502 726 505 711 505 696 c 0
 505 647 482 612 455 588 c 1
 500 590 534 614 558 639 c 0
 619 703 651 825 774 825 c 0
 793 825 812 821 836 811 c 0
 883 790 953 725 979 672 c 0
 994 641 1002 610 1002 571 c 0
 1002 462 934 362 823 362 c 0
 802 362 781 367 757 376 c 0
 723 389 638 445 618 497 c 1
 596 485 571 476 540 476 c 0
 518 476 499 479 477 487 c 1
 495 450 503 422 503 379 c 0
 503 285 442 206 347 206 c 0
 255 206 178 276 129 332 c 0
 77 391 44 452 8 517 c 2
 -28 581 l 2
 -33 590 -35 599 -35 605 c 0
 -35 612 -31 616 -24 616 c 0
 3 616 54 566 69 539 c 0
 105 474 140 390 188 342 c 0
 201 329 227 318 259 318 c 0
729 1127 m 0
 759 1127 830 1057 830 1026 c 0
 830 975 794 923 760 893 c 0
 722 860 672 840 619 840 c 0
 495 840 394 939 348 1024 c 0
 331 1056 318 1087 318 1116 c 0
 318 1123 322 1127 329 1127 c 0
 360 1127 426 1059 430 1029 c 0
 433 1007 440 986 449 973 c 1
 466 961 498 952 529 952 c 0
 626 952 706 1029 718 1118 c 0
 719 1124 723 1127 729 1127 c 0
620 1102 m 1
 620 1102 l 1
734 474 m 0
 829 474 890 567 890 660 c 0
 890 679 888 697 883 711 c 1
 877 712 870 714 861 714 c 0
 836 714 814 705 794 691 c 0
 729 648 704 564 645 515 c 1
 670 503 688 474 734 474 c 0
EndSplineSet
Layer: 1  0 1 1  #fffffffe 1  #fffffffe 1 50 miter butt [1 0 0 1] [0 255]
Refer: 1158 -1 S 1 0 0 1 -176 -64 2
Refer: 1159 -1 N 1 0 0 1 0 0 2
Colour: ffffff
EndChar

StartChar: udatta
Encoding: 97 2385 81
Width: 1000
GlyphClass: 4
Flags: MW
AnchorPoint: "above_mark" 850 850 mark 0
LayerCount: 2
Layer: 0  1 0 1  #fffffffe 1  #fffffffe 1 10 round round [1 0 0 1] [0 255]
SplineSet
805 1306 m 0
 835 1306 906 1236 906 1205 c 2
 906 955 l 2
 906 948 902 944 895 944 c 0
 865 944 794 1014 794 1045 c 2
 794 1295 l 2
 794 1302 798 1306 805 1306 c 0
EndSplineSet
Layer: 1  0 1 1  #fffffffe 1  #fffffffe 1 50 miter butt [1 0 0 1] [0 255]
Refer: 1160 -1 N 1 0 0 1 0 0 2
Position2: "Zero width post-base -1000" dx=-1000 dy=0 dh=-1000 dv=0
Colour: ff00ff
EndChar

StartChar: anudatta
Encoding: 98 2386 82
Width: 1000
GlyphClass: 4
Flags: MW
AnchorPoint: "below_middle_mark" 526 -6 mark 0
LayerCount: 2
Layer: 0  1 0 1  #fffffffe 1  #fffffffe 1 10 round round [1 0 0 1] [0 255]
SplineSet
805 -144 m 2
 835 -144 906 -214 906 -245 c 0
 906 -252 902 -256 895 -256 c 2
 195 -256 l 2
 165 -256 94 -186 94 -155 c 0
 94 -148 98 -144 105 -144 c 2
 805 -144 l 2
EndSplineSet
Layer: 1  0 1 1  #fffffffe 1  #fffffffe 1 50 miter butt [1 0 0 1] [0 255]
Refer: 859 -1 N 1 0 0 1 0 -200 2
Position2: "Zero width post-base -1000" dx=-1000 dy=0 dh=-1000 dv=0
Colour: ff00ff
EndChar

StartChar: grave
Encoding: 99 2387 83
Width: 1000
GlyphClass: 4
InSpiro: 1
Flags: MW
AnchorPoint: "above_mark" 850 851 mark 0
LayerCount: 2
Layer: 0  1 0 1  #fffffffe 1  #fffffffe 1 10 round round [1 0 0 1] [0 255]
SplineSet
694 1305 m 0
 694 1312 698 1316 705 1316 c 0
 733 1316 788 1261 801 1233 c 2
 901 1023 l 2
 904 1016 906 1010 906 1005 c 0
 906 998 902 994 895 994 c 0
 867 994 812 1049 799 1077 c 2
 699 1287 l 2
 696 1294 694 1300 694 1305 c 0
EndSplineSet
Layer: 1  0 1 1  #fffffffe 1  #fffffffe 1 50 miter butt [1 0 0 1] [0 255]
Refer: 1174 -1 N 1 0 0 1 0 0 2
Position2: "Zero width post-base -1000" dx=-1000 dy=0 dh=-1000 dv=0
Colour: ff00ff
EndChar

StartChar: acute
Encoding: 100 2388 84
Width: 1000
GlyphClass: 4
Flags: MW
AnchorPoint: "above_mark" 850 850 mark 0
LayerCount: 2
Layer: 0  1 0 1  #fffffffe 1  #fffffffe 1 10 round round [1 0 0 1] [0 255]
SplineSet
855 1316 m 0
 885 1316 956 1246 956 1215 c 0
 956 1213 956 1212 955 1210 c 2
 855 990 l 2
 853 986 850 984 845 984 c 0
 815 984 744 1054 744 1085 c 0
 744 1087 744 1088 745 1090 c 2
 845 1310 l 2
 847 1314 850 1316 855 1316 c 0
EndSplineSet
Layer: 1  0 1 1  #fffffffe 1  #fffffffe 1 50 miter butt [1 0 0 1] [0 255]
Refer: 1175 -1 N 1 0 0 1 0 0 2
Position2: "Zero width post-base -1000" dx=-1000 dy=0 dh=-1000 dv=0
Colour: ff00ff
EndChar

StartChar: E_candra_long
Encoding: 101 2389 85
Width: 1000
GlyphClass: 4
InSpiro: 1
Flags: MW
AnchorPoint: "above_mark" 850 850 mark 0
LayerCount: 2
Layer: 0  1 0 1  #fffffffe 1  #fffffffe 1 10 round round [1 0 0 1] [0 255]
SplineSet
905 1056 m 2
 935 1056 1006 986 1006 955 c 0
 1006 948 1002 944 995 944 c 2
 595 944 l 2
 565 944 494 1014 494 1045 c 0
 494 1052 498 1056 505 1056 c 2
 766 1056 l 1
 661 1070 568 1157 524 1238 c 0
 507 1270 494 1301 494 1330 c 0
 494 1337 498 1341 505 1341 c 0
 536 1341 602 1273 606 1243 c 0
 609 1221 616 1200 625 1187 c 1
 641 1175 675 1166 705 1166 c 0
 802 1166 882 1243 894 1332 c 0
 895 1338 899 1341 905 1341 c 0
 935 1341 1006 1271 1006 1240 c 0
 1006 1189 970 1137 936 1107 c 0
 905 1080 865 1062 823 1056 c 1
 905 1056 l 2
EndSplineSet
Layer: 1  0 1 1  #fffffffe 1  #fffffffe 1 50 miter butt [1 0 0 1] [0 255]
Refer: 1176 -1 N 1 0 0 1 0 0 2
Position2: "Zero width post-base -1000" dx=-1000 dy=0 dh=-1000 dv=0
Colour: ff00ff
EndChar

StartChar: Ue_sign
Encoding: 102 2390 86
Width: 1000
GlyphClass: 4
InSpiro: 1
Flags: MW
AnchorPoint: "below_middle_mark" 500 0 mark 0
LayerCount: 2
Layer: 0  1 0 1  #fffffffe 1  #fffffffe 1 10 round round [1 0 0 1] [0 255]
SplineSet
705 -134 m 0
 735 -134 806 -204 806 -235 c 0
 806 -239 804 -242 802 -244 c 0
 729 -300 639 -331 545 -331 c 0
 503 -331 460 -325 418 -312 c 0
 362 -295 284 -260 232 -208 c 0
 209 -185 194 -159 194 -145 c 0
 194 -138 198 -134 205 -134 c 0
 215 -134 231 -141 247 -154 c 0
 292 -188 374 -219 455 -219 c 0
 540 -219 628 -189 698 -136 c 0
 700 -135 702 -134 705 -134 c 0
EndSplineSet
Layer: 1  0 1 1  #fffffffe 1  #fffffffe 1 50 miter butt [1 0 0 1] [0 255]
Refer: 1177 -1 S 1 0 0 1 0 0 2
Position2: "Zero width post-base -1000" dx=-1000 dy=0 dh=-1000 dv=0
Substitution2: "Low subsigns" Ue_sign_low
Colour: ff00ff
EndChar

StartChar: Uue_sign
Encoding: 103 2391 87
Width: 1000
GlyphClass: 4
Flags: MW
AnchorPoint: "below_middle_mark" 500 0 mark 0
LayerCount: 2
Layer: 0  1 0 1  #fffffffe 1  #fffffffe 1 10 round round [1 0 0 1] [0 255]
SplineSet
705 -34 m 0
 735 -34 806 -104 806 -135 c 0
 806 -139 804 -142 802 -144 c 0
 729 -200 639 -231 545 -231 c 0
 503 -231 460 -225 418 -212 c 0
 362 -195 284 -160 232 -108 c 0
 209 -85 194 -59 194 -45 c 0
 194 -38 198 -34 205 -34 c 0
 215 -34 231 -41 247 -54 c 0
 292 -88 374 -119 455 -119 c 0
 540 -119 628 -89 698 -36 c 0
 700 -35 702 -34 705 -34 c 0
705 -234 m 0
 735 -234 806 -304 806 -335 c 0
 806 -339 804 -342 802 -344 c 0
 729 -400 639 -431 545 -431 c 0
 503 -431 460 -425 418 -412 c 0
 362 -395 284 -360 232 -308 c 0
 209 -285 194 -259 194 -245 c 0
 194 -238 198 -234 205 -234 c 0
 215 -234 231 -241 247 -254 c 0
 292 -288 374 -319 455 -319 c 0
 540 -319 628 -289 698 -236 c 0
 700 -235 702 -234 705 -234 c 0
EndSplineSet
Layer: 1  0 1 1  #fffffffe 1  #fffffffe 1 50 miter butt [1 0 0 1] [0 255]
Refer: 1178 -1 N 1 0 0 1 0 0 2
Position2: "Zero width post-base -1000" dx=-1000 dy=0 dh=-1000 dv=0
Substitution2: "Low subsigns" Uue_sign_low
Colour: ff00ff
EndChar

StartChar: Qa
Encoding: 104 2392 88
Width: 1000
GlyphClass: 3
Flags: MW
AnchorPoint: "below_middle_mark" 505 0 basechar 0
AnchorPoint: "below_mark" 450 0 basechar 0
AnchorPoint: "above_mark" 550 850 basechar 0
LayerCount: 2
Layer: 0  1 0 1  #fffffffe 1  #fffffffe 1 10 round round [1 0 0 1] [0 255]
SplineSet
-5 794 m 2
 -35 794 -106 864 -106 895 c 0
 -106 902 -102 906 -95 906 c 0
 272 906 638 906 1005 906 c 0
 1035 906 1106 836 1106 805 c 0
 1106 798 1102 794 1095 794 c 2
 606 794 l 1
 606 504 l 1
 631 518 657 527 692 527 c 0
 711 527 731 524 754 515 c 0
 779 505 815 485 851 449 c 0
 897 403 934 347 934 264 c 0
 934 218 922 176 907 136 c 0
 892 97 875 59 855 23 c 0
 853 20 850 18 845 18 c 0
 815 18 744 88 744 119 c 0
 744 121 744 123 745 125 c 0
 779 187 822 270 822 356 c 0
 822 376 820 396 814 411 c 1
 805 414 793 415 780 415 c 0
 697 415 646 348 606 301 c 1
 606 -45 l 2
 606 -52 602 -56 595 -56 c 0
 565 -56 494 14 494 45 c 2
 494 192 l 1
 457 168 417 152 368 152 c 0
 343 152 317 157 289 168 c 0
 262 179 218 205 184 239 c 0
 150 273 130 306 118 331 c 0
 104 361 99 388 99 413 c 0
 99 507 169 577 263 577 c 0
 311 577 359 555 390 524 c 0
 413 501 428 475 428 461 c 0
 428 454 424 450 417 450 c 0
 412 450 405 452 398 455 c 0
 389 459 370 465 350 465 c 0
 272 465 211 402 211 324 c 0
 211 306 215 288 221 276 c 1
 235 270 257 264 279 264 c 0
 378 264 445 342 494 400 c 1
 494 794 l 1
 -5 794 l 2
348 -48 m 0
 348 -78 326 -100 296 -100 c 0
 238 -100 156 -19 156 42 c 0
 156 72 176 94 207 94 c 0
 260 94 309 37 331 2 c 0
 343 -18 348 -27 348 -48 c 0
298 -18 m 1
 298 -18 l 1
EndSplineSet
Layer: 1  0 1 1  #fffffffe 1  #fffffffe 1 50 miter butt [1 0 0 1] [0 255]
Refer: 21 2325 N 1 0 0 1 0 0 2
Refer: 60 2364 S 1 0 0 1 -248 278 2
Ligature2: "All +- nukta +IZIA Nukta Forms" Ka nuqta
MultipleSubs2: "Nukta decomposition" Ka nuqta
LCarets2: 1 0
Colour: ff00
EndChar

StartChar: Khha
Encoding: 105 2393 89
Width: 1000
GlyphClass: 3
Flags: MW
LayerCount: 2
Layer: 0  1 0 1  #fffffffe 1  #fffffffe 1 10 round round [1 0 0 1] [0 255]
SplineSet
895 -56 m 0
 865 -56 794 14 794 45 c 2
 794 79 l 1
 743 56 687 44 630 44 c 0
 619 44 608 44 597 45 c 0
 478 55 347 126 239 234 c 0
 172 301 131 358 83 420 c 0
 65 444 28 489 28 533 c 0
 28 567 50 590 83 590 c 0
 117 590 160 562 194 528 c 1
 237 580 267 643 267 730 c 0
 267 752 264 774 260 794 c 1
 -5 794 l 2
 -35 794 -106 864 -106 895 c 0
 -106 902 -102 906 -95 906 c 2
 1005 906 l 2
 1035 906 1106 836 1106 805 c 0
 1106 798 1102 794 1095 794 c 2
 906 794 l 1
 906 -45 l 2
 906 -52 902 -56 895 -56 c 0
220 22 m 0
 220 -8 198 -30 168 -30 c 0
 110 -30 28 51 28 112 c 0
 28 142 48 164 79 164 c 0
 132 164 181 107 203 72 c 0
 215 52 220 43 220 22 c 0
244 372 m 0
 214 372 155 433 145 462 c 1
 142 457 140 450 140 443 c 0
 140 423 161 405 173 390 c 0
 214 337 248 295 283 261 c 0
 333 213 423 156 540 156 c 0
 631 156 726 191 794 256 c 1
 794 274 l 1
 771 265 742 257 711 257 c 0
 629 257 574 293 521 346 c 0
 477 390 455 433 446 464 c 0
 440 483 438 499 438 516 c 0
 438 628 533 700 639 700 c 0
 708 700 758 674 794 629 c 1
 794 794 l 1
 346 794 l 1
 370 742 379 699 379 640 c 0
 379 519 323 432 251 374 c 0
 249 372 247 372 244 372 c 0
727 588 m 0
 638 588 550 523 550 427 c 0
 550 414 552 385 560 381 c 0
 573 375 597 369 621 369 c 0
 702 369 761 415 794 469 c 1
 794 576 l 1
 775 582 752 588 727 588 c 0
170 52 m 1
 170 52 l 1
EndSplineSet
Layer: 1  0 1 1  #fffffffe 1  #fffffffe 1 50 miter butt [1 0 0 1] [0 255]
Refer: 22 2326 N 1 0 0 1 0 0 3
Refer: 60 2364 S 1 0 0 1 -376 348 2
Ligature2: "All +- nukta +IZIA Nukta Forms" Kha nuqta
LCarets2: 1 0
Colour: ff00
EndChar

StartChar: Ghha
Encoding: 106 2394 90
Width: 1000
GlyphClass: 3
Flags: MW
LayerCount: 2
Layer: 0  1 0 1  #fffffffe 1  #fffffffe 1 10 round round [1 0 0 1] [0 255]
SplineSet
895 -56 m 0
 865 -56 794 14 794 45 c 2
 794 794 l 1
 456 794 l 1
 456 405 l 1
 456 305 l 2
 456 262 439 231 397 231 c 0
 378 231 353 240 324 260 c 0
 297 279 274 300 262 312 c 0
 250 324 229 347 210 374 c 0
 190 403 181 428 181 447 c 0
 181 489 212 506 255 506 c 2
 344 506 l 1
 344 794 l 1
 -5 794 l 2
 -35 794 -106 864 -106 895 c 0
 -106 902 -102 906 -95 906 c 2
 1005 906 l 2
 1035 906 1106 836 1106 805 c 0
 1106 798 1102 794 1095 794 c 2
 906 794 l 1
 906 -45 l 2
 906 -52 902 -56 895 -56 c 0
302 16 m 0
 302 -14 280 -36 250 -36 c 0
 192 -36 110 45 110 106 c 0
 110 136 130 158 161 158 c 0
 214 158 263 101 285 66 c 0
 297 46 302 37 302 16 c 0
293 358 m 0
 293 349 299 343 308 343 c 0
 335 343 344 366 344 394 c 1
 316 394 293 385 293 358 c 0
252 46 m 1
 252 46 l 1
EndSplineSet
Layer: 1  0 1 1  #fffffffe 1  #fffffffe 1 50 miter butt [1 0 0 1] [0 255]
Refer: 23 2327 N 1 0 0 1 0 0 3
Refer: 60 2364 S 1 0 0 1 -294 342 2
Ligature2: "All +- nukta +IZIA Nukta Forms" Ga nuqta
MultipleSubs2: "Nukta decomposition" Ga nuqta
LCarets2: 1 0
Colour: bfff
EndChar

StartChar: Za
Encoding: 107 2395 91
Width: 1000
GlyphClass: 3
Flags: MW
LayerCount: 2
Layer: 0  1 0 1  #fffffffe 1  #fffffffe 1 10 round round [1 0 0 1] [0 255]
SplineSet
407 276 m 0
 490 276 561 348 561 431 c 0
 561 468 548 502 531 519 c 0
 524 526 504 542 478 561 c 2
 408 611 l 2
 383 629 344 673 344 695 c 0
 344 702 348 706 355 706 c 2
 794 706 l 1
 794 794 l 1
 -5 794 l 2
 -35 794 -106 864 -106 895 c 0
 -106 902 -102 906 -95 906 c 0
 272 906 638 906 1005 906 c 0
 1035 906 1106 836 1106 805 c 0
 1106 798 1102 794 1095 794 c 2
 906 794 l 1
 906 514 906 235 906 -45 c 0
 906 -52 902 -56 895 -56 c 0
 865 -56 794 14 794 45 c 2
 794 594 l 1
 523 594 l 1
 589 539 673 454 673 342 c 0
 673 243 596 164 497 164 c 0
 419 164 332 223 281 274 c 0
 172 383 119 533 50 676 c 0
 46 683 44 690 44 695 c 0
 44 702 48 706 55 706 c 0
 83 706 137 652 150 624 c 0
 172 579 193 536 213 491 c 0
 242 427 271 354 316 309 c 0
 333 292 362 276 407 276 c 0
337 -15 m 0
 337 -45 315 -67 285 -67 c 0
 227 -67 145 14 145 75 c 0
 145 105 165 127 196 127 c 0
 249 127 298 70 320 35 c 0
 332 15 337 6 337 -15 c 0
287 15 m 1
 287 15 l 1
EndSplineSet
Layer: 1  0 1 1  #fffffffe 1  #fffffffe 1 50 miter butt [1 0 0 1] [0 255]
Refer: 28 2332 N 1 0 0 1 0 0 3
Refer: 60 2364 S 1 0 0 1 -259 311 2
Ligature2: "All +- nukta +IZIA Nukta Forms" Ja nuqta
MultipleSubs2: "Nukta decomposition" Ja nuqta
LCarets2: 1 0
Colour: ff00
EndChar

StartChar: Dddha
Encoding: 108 2396 92
Width: 1000
GlyphClass: 3
InSpiro: 1
Flags: MW
AnchorPoint: "above_mark" 650 850 basechar 0
LayerCount: 2
Layer: 0  1 0 1  #fffffffe 1  #fffffffe 1 10 round round [1 0 0 1] [0 255]
SplineSet
1005 906 m 0
 1035 906 1106 836 1106 805 c 0
 1106 798 1102 794 1095 794 c 2
 706 794 l 1
 706 605 l 2
 706 598 702 594 695 594 c 2
 545 594 l 2
 533 594 521 594 509 594 c 0
 417 594 325 580 325 489 c 0
 325 457 337 437 353 423 c 1
 401 434 l 2
 438 443 473 452 516 452 c 0
 624 452 709 384 760 306 c 0
 787 265 799 238 799 188 c 0
 799 67 691 -3 573 -3 c 0
 423 -3 298 94 207 160 c 2
 102 236 l 2
 77 254 39 299 39 320 c 0
 39 327 43 331 50 331 c 0
 59 331 73 325 88 314 c 2
 192 239 l 2
 237 206 276 178 317 156 c 0
 365 130 416 109 483 109 c 0
 585 109 687 172 687 278 c 0
 687 296 684 323 672 328 c 0
 655 335 629 341 602 341 c 0
 565 341 533 333 497 324 c 2
 436 308 l 2
 435 308 434 308 433 308 c 0
 426 308 415 312 403 319 c 0
 331 364 244 443 219 536 c 0
 215 551 213 565 213 579 c 0
 213 687 311 706 419 706 c 0
 431 706 443 706 455 706 c 2
 594 706 l 1
 594 794 l 1
 -5 794 l 2
 -35 794 -106 864 -106 895 c 0
 -106 902 -102 906 -95 906 c 0
 272 906 638 906 1005 906 c 0
598 -236 m 0
 598 -266 576 -288 546 -288 c 0
 488 -288 406 -207 406 -146 c 0
 406 -116 426 -94 457 -94 c 0
 510 -94 559 -151 581 -186 c 0
 593 -206 598 -215 598 -236 c 0
548 -206 m 1
 548 -206 l 1
EndSplineSet
Layer: 1  0 1 1  #fffffffe 1  #fffffffe 1 50 miter butt [1 0 0 1] [0 255]
Refer: 33 2337 N 1 0 0 1 0 0 3
Refer: 60 2364 S 1 0 0 1 2 90 2
Ligature2: "All +- nukta +IZIA Nukta Forms" Dda nuqta
MultipleSubs2: "Nukta decomposition" Dda nuqta
LCarets2: 1 0
Colour: bfff
EndChar

StartChar: Rha
Encoding: 109 2397 93
Width: 1000
GlyphClass: 3
Flags: MW
AnchorPoint: "above_mark" 650 850 basechar 0
LayerCount: 2
Layer: 0  1 0 1  #fffffffe 1  #fffffffe 1 10 round round [1 0 0 1] [0 255]
SplineSet
-5 794 m 2
 -35 794 -106 864 -106 895 c 0
 -106 902 -102 906 -95 906 c 0
 272 906 638 906 1005 906 c 0
 1035 906 1106 836 1106 805 c 0
 1106 798 1102 794 1095 794 c 2
 706 794 l 1
 706 505 l 2
 706 498 702 494 695 494 c 0
 522 486 360 417 312 269 c 0
 305 246 301 222 301 199 c 0
 301 179 304 160 309 144 c 0
 318 117 329 106 330 105 c 0
 361 74 433 58 495 56 c 1
 470 95 451 139 451 196 c 0
 451 301 520 383 625 383 c 0
 697 383 746 346 788 304 c 0
 832 260 865 212 865 145 c 0
 865 41 784 -19 703 -42 c 0
 669 -52 633 -56 597 -56 c 0
 460 -56 371 -7 294 70 c 0
 244 120 214 172 201 214 c 0
 193 240 189 265 189 289 c 0
 189 379 231 443 281 490 c 0
 363 567 470 598 594 605 c 1
 594 794 l 1
 -5 794 l 2
637 -248 m 0
 637 -278 615 -300 585 -300 c 0
 527 -300 445 -219 445 -158 c 0
 445 -128 465 -106 496 -106 c 0
 549 -106 598 -163 620 -198 c 0
 632 -218 637 -227 637 -248 c 0
749 267 m 1
 739 270 728 271 715 271 c 0
 670 271 636 251 612 227 c 0
 584 199 563 158 563 106 c 0
 563 90 565 75 569 61 c 1
 655 75 727 121 748 198 c 0
 751 210 753 223 753 235 c 0
 753 246 751 258 749 267 c 1
587 -218 m 1
 587 -218 l 1
EndSplineSet
Layer: 1  0 1 1  #fffffffe 1  #fffffffe 1 50 miter butt [1 0 0 1] [0 255]
Refer: 34 2338 N 1 0 0 1 0 0 3
Refer: 60 2364 S 1 0 0 1 41 78 2
Ligature2: "All +- nukta +IZIA Nukta Forms" Ddha nuqta
MultipleSubs2: "Nukta decomposition" Ddha nuqta
LCarets2: 1 0
Colour: bfff
EndChar

StartChar: Fa
Encoding: 110 2398 94
Width: 1000
GlyphClass: 3
Flags: MW
AnchorPoint: "below_middle_mark" 838 0 basechar 0
AnchorPoint: "below_mark" 758 0 basechar 0
AnchorPoint: "above_mark" 550 850 basechar 0
LayerCount: 2
Layer: 0  1 0 1  #fffffffe 1  #fffffffe 1 10 round round [1 0 0 1] [0 255]
SplineSet
-5 794 m 2
 -35 794 -106 864 -106 895 c 0
 -106 902 -102 906 -95 906 c 2
 1005 906 l 2
 1035 906 1106 836 1106 805 c 0
 1106 798 1102 794 1095 794 c 2
 606 794 l 1
 606 585 l 1
 628 595 655 602 682 602 c 0
 700 602 712 600 729 595 c 0
 756 587 803 557 829 531 c 0
 867 493 883 461 891 439 c 0
 899 416 903 397 903 378 c 0
 903 320 878 278 854 236 c 2
 805 149 l 2
 803 146 801 144 796 144 c 0
 766 144 695 214 695 245 c 0
 695 248 696 249 697 251 c 2
 746 338 l 2
 769 379 791 418 791 465 c 0
 791 474 790 482 789 489 c 1
 783 490 777 490 771 490 c 0
 697 490 648 441 606 400 c 1
 606 -45 l 2
 606 -52 602 -56 595 -56 c 0
 565 -56 494 14 494 45 c 2
 494 302 l 1
 460 281 424 265 379 265 c 0
 362 265 344 267 326 272 c 0
 234 298 141 393 111 484 c 0
 96 529 94 573 94 627 c 0
 94 633 94 639 94 645 c 2
 94 794 l 1
 -5 794 l 2
370 -28 m 0
 370 -58 348 -80 318 -80 c 0
 260 -80 178 1 178 62 c 0
 178 92 198 114 229 114 c 0
 282 114 331 57 353 22 c 0
 365 2 370 -7 370 -28 c 0
289 377 m 0
 378 377 444 451 494 500 c 1
 494 794 l 1
 206 794 l 1
 206 555 l 2
 206 550 206 545 206 540 c 0
 206 483 209 425 230 391 c 1
 242 385 267 377 289 377 c 0
320 2 m 1
 320 2 l 1
EndSplineSet
Layer: 1  0 1 1  #fffffffe 1  #fffffffe 1 50 miter butt [1 0 0 1] [0 255]
Refer: 43 2347 N 1 0 0 1 0 0 3
Refer: 60 2364 S 1 0 0 1 -226 298 2
Ligature2: "All +- nukta +IZIA Nukta Forms" Pha nuqta
MultipleSubs2: "Nukta decomposition" Pha nuqta
LCarets2: 1 0
Colour: ff00
EndChar

StartChar: Yya
Encoding: 111 2399 95
Width: 1000
GlyphClass: 3
Flags: MW
LayerCount: 2
Layer: 0  1 0 1  #fffffffe 1  #fffffffe 1 10 round round [1 0 0 1] [0 255]
SplineSet
1005 906 m 2
 1035 906 1106 836 1106 805 c 0
 1106 798 1102 794 1095 794 c 2
 906 794 l 1
 906 514 906 235 906 -45 c 0
 906 -52 902 -56 895 -56 c 0
 865 -56 794 14 794 45 c 2
 794 273 l 1
 733 234 654 194 562 194 c 0
 412 194 296 300 241 404 c 0
 222 441 207 478 207 512 c 0
 207 518 210 522 215 523 c 0
 294 538 364 611 364 702 c 0
 364 730 353 764 345 777 c 0
 339 781 320 790 293 794 c 1
 -5 794 l 2
 -35 794 -106 864 -106 895 c 0
 -106 902 -102 906 -95 906 c 2
 1005 906 l 2
494 -53 m 0
 494 -83 472 -105 442 -105 c 0
 384 -105 302 -24 302 37 c 0
 302 67 322 89 353 89 c 0
 406 89 455 32 477 -3 c 0
 489 -23 494 -32 494 -53 c 0
476 613 m 0
 476 511 406 434 320 413 c 1
 329 365 339 342 378 325 c 0
 403 314 435 305 472 305 c 0
 585 305 671 367 744 417 c 2
 794 451 l 1
 794 794 l 1
 398 794 l 1
 445 741 476 690 476 613 c 0
444 -23 m 1
 444 -23 l 1
EndSplineSet
Layer: 1  0 1 1  #fffffffe 1  #fffffffe 1 50 miter butt [1 0 0 1] [0 255]
Refer: 47 2351 N 1 0 0 1 0 0 3
Refer: 60 2364 S 1 0 0 1 -102 273 2
Ligature2: "All +- nukta +IZIA Nukta Forms" Ya nuqta
MultipleSubs2: "Nukta decomposition" Ya nuqta
LCarets2: 1 0
Colour: bfff
EndChar

StartChar: Rr_vocalic
Encoding: 112 2400 96
Width: 1000
GlyphClass: 2
InSpiro: 1
Flags: MW
AnchorPoint: "below_middle_mark" 500 0 basechar 0
AnchorPoint: "above_mark" 550 850 basechar 0
LayerCount: 2
Layer: 0  1 0 1  #fffffffe 1  #fffffffe 1 10 round round [1 0 0 1] [0 255]
SplineSet
486 396 m 1
 453 438 368 477 280 477 c 0
 220 477 162 460 119 437 c 0
 117 436 115 436 113 436 c 0
 83 436 12 506 12 537 c 0
 12 553 54 564 66 568 c 0
 106 582 147 589 192 589 c 0
 237 589 283 582 330 564 c 0
 381 545 438 511 494 459 c 1
 494 794 l 1
 -5 794 l 2
 -35 794 -106 864 -106 895 c 0
 -106 902 -102 906 -95 906 c 0
 272 906 638 906 1005 906 c 0
 1035 906 1106 836 1106 805 c 0
 1106 798 1102 794 1095 794 c 2
 606 794 l 1
 606 420 l 1
 654 428 700 435 742 451 c 1
 738 465 735 482 735 499 c 0
 735 542 756 579 800 579 c 0
 856 579 912 513 930 478 c 0
 939 460 940 453 940 438 c 0
 940 389 896 365 862 350 c 1
 878 318 904 283 927 258 c 0
 945 238 956 217 956 205 c 0
 956 199 953 195 947 194 c 0
 855 180 758 140 740 50 c 0
 739 43 738 35 738 28 c 0
 738 22 738 14 743 13 c 0
 753 11 763 10 774 10 c 0
 779 10 783 11 787 11 c 0
 788 11 789 11 790 11 c 0
 821 14 854 24 879 36 c 0
 881 37 883 37 885 37 c 0
 915 37 986 -33 986 -64 c 0
 986 -69 985 -72 981 -74 c 0
 953 -87 918 -99 881 -102 c 1
 851 -128 822 -172 822 -220 c 0
 822 -227 822 -235 823 -241 c 1
 832 -243 843 -244 853 -244 c 0
 894 -244 940 -226 971 -207 c 0
 973 -206 974 -205 977 -205 c 0
 1007 -205 1078 -275 1078 -306 c 0
 1078 -310 1076 -313 1073 -315 c 0
 1039 -336 992 -356 943 -356 c 0
 913 -356 893 -352 862 -338 c 0
 839 -327 793 -294 765 -261 c 0
 734 -225 710 -189 710 -131 c 0
 710 -100 718 -75 730 -52 c 1
 678 -12 626 46 626 118 c 0
 626 231 734 281 825 301 c 1
 818 311 811 320 804 330 c 1
 742 313 673 303 606 295 c 1
 606 -45 l 2
 606 -52 602 -56 595 -56 c 0
 565 -56 494 14 494 45 c 2
 494 229 l 1
 202 46 l 2
 200 45 198 44 195 44 c 0
 165 44 94 114 94 145 c 0
 94 149 95 152 98 154 c 2
 486 396 l 1
EndSplineSet
Layer: 1  0 1 1  #fffffffe 1  #fffffffe 1 50 miter butt [1 0 0 1] [0 255]
Refer: 1253 -1 N 1 0 0 1 0 0 2
Refer: 1141 -1 N 1 0 0 1 0 0 2
Refer: 855 -1 N 1 0 0 1 0 0 2
Refer: 854 -1 N 1 0 0 1 0 0 2
Colour: ff00
EndChar

StartChar: LL_vocalic
Encoding: 113 2401 97
Width: 1000
GlyphClass: 2
InSpiro: 1
Flags: MW
AnchorPoint: "above_mark" 650 850 basechar 0
LayerCount: 2
Layer: 0  1 0 1  #fffffffe 1  #fffffffe 1 10 round round [1 0 0 1] [0 255]
SplineSet
1005 906 m 0
 1035 906 1106 836 1106 805 c 0
 1106 798 1102 794 1095 794 c 2
 706 794 l 1
 706 569 l 1
 769 528 828 459 848 385 c 0
 854 362 858 340 858 313 c 0
 858 241 836 188 804 138 c 0
 803 136 801 135 798 134 c 2
 730 118 l 2
 678 105 629 68 629 2 c 0
 629 -10 631 -21 633 -29 c 1
 647 -34 665 -37 684 -37 c 0
 718 -37 753 -26 779 -14 c 0
 781 -13 783 -13 785 -13 c 0
 815 -13 886 -83 886 -114 c 0
 886 -119 884 -122 881 -124 c 0
 854 -137 820 -147 784 -149 c 1
 753 -175 722 -221 722 -270 c 0
 722 -277 722 -285 723 -291 c 1
 732 -293 743 -294 753 -294 c 0
 794 -294 840 -276 871 -257 c 0
 873 -256 874 -255 877 -255 c 0
 907 -255 978 -325 978 -356 c 0
 978 -360 976 -363 973 -365 c 0
 939 -386 892 -406 843 -406 c 0
 813 -406 793 -402 762 -388 c 0
 739 -377 693 -344 665 -311 c 0
 634 -275 610 -239 610 -181 c 0
 610 -148 618 -122 632 -98 c 1
 578 -58 517 6 517 90 c 0
 517 168 571 215 634 230 c 2
 698 245 l 1
 727 291 746 339 746 403 c 0
 746 435 739 464 728 485 c 1
 718 489 699 495 680 495 c 0
 598 495 539 432 504 378 c 0
 477 337 457 293 443 246 c 0
 442 242 439 239 433 239 c 0
 403 239 332 309 332 340 c 0
 332 342 333 343 333 344 c 0
 344 381 359 417 377 451 c 1
 349 466 313 478 272 478 c 0
 181 478 120 414 120 327 c 0
 120 270 145 225 170 192 c 0
 193 162 228 128 258 99 c 2
 339 21 l 2
 362 -1 381 -30 381 -45 c 0
 381 -52 377 -56 370 -56 c 0
 357 -56 333 -43 311 -21 c 2
 229 57 l 2
 183 101 139 144 97 199 c 0
 55 254 9 332 9 416 c 0
 9 518 77 590 183 590 c 0
 198 590 213 589 228 586 c 0
 286 575 348 545 408 499 c 1
 446 551 505 607 590 607 c 0
 591 607 593 607 594 607 c 1
 594 794 l 1
 -5 794 l 2
 -35 794 -106 864 -106 895 c 0
 -106 902 -102 906 -95 906 c 0
 272 906 638 906 1005 906 c 0
EndSplineSet
Layer: 1  0 1 1  #fffffffe 1  #fffffffe 1 50 miter butt [1 0 0 1] [0 255]
Refer: 1514 -1 S 1 0 0 1 0 0 2
Refer: 855 -1 N 1 0 0 1 0 0 2
Colour: ff00
EndChar

StartChar: L_vocalic_sign
Encoding: 114 2402 98
Width: 1000
GlyphClass: 4
InSpiro: 1
Flags: MW
AnchorPoint: "below_mark" 850 0 mark 0
LayerCount: 2
Layer: 0  1 0 1  #fffffffe 1  #fffffffe 1 10 round round [1 0 0 1] [0 255]
SplineSet
714 6 m 1
 734 31 762 55 804 55 c 0
 877 55 940 -16 967 -63 c 0
 982 -89 989 -107 989 -141 c 0
 989 -179 978 -207 961 -233 c 0
 959 -236 955 -237 951 -237 c 0
 950 -237 950 -237 949 -237 c 0
 917 -237 895 -255 884 -278 c 1
 906 -275 929 -267 946 -259 c 0
 948 -258 950 -258 952 -258 c 0
 982 -258 1052 -327 1052 -358 c 0
 1052 -363 1051 -366 1047 -368 c 0
 1022 -380 990 -392 956 -392 c 0
 895 -392 861 -364 825 -328 c 0
 792 -295 749 -245 771 -184 c 1
 771 -184 l 0
 741 -184 670 -115 670 -84 c 0
 670 -77 673 -71 675 -66 c 1
 642 -73 620 -100 620 -135 c 0
 620 -179 644 -193 668 -216 c 0
 692 -239 750 -289 750 -321 c 0
 750 -328 746 -332 739 -332 c 0
 726 -332 702 -319 680 -297 c 0
 638 -257 600 -224 562 -175 c 0
 537 -142 508 -94 508 -46 c 0
 508 9 544 47 601 47 c 0
 646 47 675 32 714 6 c 1
877 -59 m 1
 832 -71 805 -114 789 -155 c 1
 804 -138 826 -126 855 -125 c 1
 867 -105 875 -85 877 -59 c 1
EndSplineSet
Layer: 1  0 1 1  #fffffffe 1  #fffffffe 1 50 miter butt [1 0 0 1] [0 255]
Refer: 1180 -1 S 1 0 0 1 0 0 2
Position2: "Zero width post-base -1000" dx=-1000 dy=0 dh=-1000 dv=0
Substitution2: "Move L_vocalics to the left" L_vocalic_sign_left
Substitution2: "Decrease in height" L_vocalic_sign_low
Colour: ff00ff
EndChar

StartChar: LL_vocalic_sign
Encoding: 115 2403 99
Width: 1000
GlyphClass: 4
InSpiro: 1
Flags: MW
AnchorPoint: "below_mark" 850 0 mark 0
LayerCount: 2
Layer: 0  1 0 1  #fffffffe 1  #fffffffe 1 10 round round [1 0 0 1] [0 255]
SplineSet
855 -71 m 1
 858 -68 861 -65 863 -61 c 1
 852 -64 842 -69 833 -75 c 1
 855 -71 l 1
1048 -347 m 0
 1048 -366 995 -371 975 -371 c 0
 900 -371 835 -304 814 -255 c 0
 809 -243 808 -235 808 -228 c 0
 808 -224 808 -221 809 -218 c 0
 788 -196 768 -169 763 -145 c 1
 735 -138 687 -91 674 -63 c 1
 648 -66 619 -81 619 -108 c 0
 619 -108 l 0
 652 -131 685 -149 711 -175 c 0
 734 -198 749 -224 749 -238 c 0
 749 -245 745 -249 738 -249 c 0
 715 -249 681 -220 664 -208 c 0
 619 -178 568 -139 535 -91 c 0
 514 -60 507 -37 507 -19 c 0
 507 29 551 50 600 50 c 0
 644 50 676 38 712 19 c 1
 734 39 763 56 803 56 c 0
 826 56 841 53 866 41 c 0
 908 21 988 -46 988 -113 c 0
 988 -142 974 -179 946 -184 c 1
 970 -203 1002 -243 1002 -262 c 0
 1002 -267 1000 -270 996 -272 c 1
 1019 -292 1048 -330 1048 -347 c 0
EndSplineSet
Layer: 1  0 1 1  #fffffffe 1  #fffffffe 1 50 miter butt [1 0 0 1] [0 255]
Refer: 1181 -1 S 0.5 0 0 0.5 531 17 2
Position2: "Zero width post-base -1000" dx=-1000 dy=0 dh=-1000 dv=0
Substitution2: "Move L_vocalics to the left" LL_vocalic_sign_left
Substitution2: "Decrease in height" LL_vocalic_sign_low
Colour: ff00ff
EndChar

StartChar: danda
Encoding: 116 2404 100
Width: 1000
InSpiro: 1
Flags: MW
LayerCount: 2
Layer: 0  1 0 1  #fffffffe 1  #fffffffe 1 10 round round [1 0 0 1] [0 255]
SplineSet
355 906 m 0
 385 906 456 836 456 805 c 2
 456 -45 l 2
 456 -52 452 -56 445 -56 c 0
 415 -56 344 14 344 45 c 2
 344 895 l 2
 344 902 348 906 355 906 c 0
EndSplineSet
Layer: 1  0 1 1  #fffffffe 1  #fffffffe 1 50 miter butt [1 0 0 1] [0 255]
Refer: 871 -1 N 1 0 0 1 0 0 2
Colour: ffffff
EndChar

StartChar: duo_danda
Encoding: 117 2405 101
Width: 1000
Flags: MW
LayerCount: 2
Layer: 0  1 0 1  #fffffffe 1  #fffffffe 1 10 round round [1 0 0 1] [0 255]
SplineSet
355 906 m 0
 385 906 456 836 456 805 c 2
 456 -45 l 2
 456 -52 452 -56 445 -56 c 0
 415 -56 344 14 344 45 c 2
 344 895 l 2
 344 902 348 906 355 906 c 0
655 906 m 0
 685 906 756 836 756 805 c 2
 756 -45 l 2
 756 -52 752 -56 745 -56 c 0
 715 -56 644 14 644 45 c 2
 644 895 l 2
 644 902 648 906 655 906 c 0
EndSplineSet
Layer: 1  0 1 1  #fffffffe 1  #fffffffe 1 50 miter butt [1 0 0 1] [0 255]
Refer: 100 2404 N 1 0 0 1 0 0 2
Refer: 100 2404 N 1 0 0 1 300 0 2
Colour: ffffff
EndChar

StartChar: zero
Encoding: 118 2406 102
Width: 1000
GlyphClass: 2
InSpiro: 1
Flags: MW
LayerCount: 2
Layer: 0  1 0 1  #fffffffe 1  #fffffffe 1 10 round round [1 0 0 1] [0 255]
SplineSet
766 570 m 0
 766 441 677 328 545 328 c 0
 512 328 478 336 441 353 c 0
 409 368 362 400 326 439 c 0
 287 481 268 517 256 548 c 0
 240 587 234 624 234 660 c 0
 234 789 323 902 455 902 c 0
 488 902 522 894 559 877 c 0
 591 862 638 830 674 791 c 0
 713 749 732 713 744 682 c 0
 760 643 766 606 766 570 c 0
654 660 m 0
 654 700 641 748 626 769 c 1
 609 781 576 790 545 790 c 0
 494 790 439 766 403 727 c 0
 364 685 346 626 346 570 c 0
 346 530 359 482 374 461 c 1
 391 449 424 440 455 440 c 0
 506 440 561 464 597 503 c 0
 636 545 654 604 654 660 c 0
EndSplineSet
Layer: 1  0 1 1  #fffffffe 1  #fffffffe 1 50 miter butt [1 0 0 1] [0 255]
Refer: 1184 -1 N 1 0 0 1 0 0 2
Colour: ffff00
EndChar

StartChar: one
Encoding: 119 2407 103
Width: 1000
GlyphClass: 2
InSpiro: 1
Flags: MW
AnchorPoint: "below_middle_mark" 427.998 0 basechar 0
LayerCount: 2
Layer: 0  1 0 1  #fffffffe 1  #fffffffe 1 10 round round [1 0 0 1] [0 255]
SplineSet
530 798 m 0
 470 798 410 754 410 694 c 0
 410 662 424 657 443 646 c 0
 461 635 483 613 497 595 c 1
 536 630 584 686 584 749 c 0
 584 764 581 778 577 789 c 1
 565 794 548 798 530 798 c 0
641 -87 m 0
 611 -87 540 -17 540 14 c 0
 540 17 541 19 542 21 c 0
 566 53 598 91 598 142 c 0
 598 160 595 169 586 176 c 2
 375 350 l 2
 352 369 321 409 321 427 c 0
 321 435 322 449 327 453 c 0
 371 491 416 528 461 565 c 1
 400 605 298 692 298 784 c 0
 298 861 366 910 441 910 c 0
 465 910 491 905 519 893 c 0
 544 882 581 859 614 826 c 0
 647 793 667 761 678 737 c 0
 691 708 696 684 696 660 c 0
 696 557 612 495 552 446 c 0
 516 417 481 388 446 358 c 1
 590 240 l 2
 638 201 710 137 710 52 c 0
 710 -7 676 -48 650 -83 c 0
 648 -85 645 -87 641 -87 c 0
EndSplineSet
Layer: 1  0 1 1  #fffffffe 1  #fffffffe 1 50 miter butt [1 0 0 1] [0 255]
Refer: 1185 -1 N 1 0 0 1 0 0 2
Colour: ffff00
EndChar

StartChar: two
Encoding: 120 2408 104
Width: 1000
GlyphClass: 2
InSpiro: 1
Flags: MW
LayerCount: 2
Layer: 0  1 0 1  #fffffffe 1  #fffffffe 1 10 round round [1 0 0 1] [0 255]
SplineSet
720 588 m 0
 720 458 637 372 545 329 c 1
 630 240 705 144 769 45 c 0
 777 33 781 22 781 14 c 0
 781 7 777 3 770 3 c 0
 746 3 698 47 681 73 c 0
 624 161 562 239 493 310 c 1
 471 304 448 298 421 298 c 0
 398 298 383 302 364 311 c 0
 350 318 329 331 304 356 c 0
 277 383 252 414 252 451 c 0
 252 484 276 503 309 503 c 0
 358 503 410 458 436 435 c 1
 525 473 608 556 608 678 c 0
 608 718 597 756 581 776 c 1
 570 786 522 799 491 799 c 0
 418 799 356 773 300 749 c 0
 298 748 297 748 295 748 c 0
 265 748 194 818 194 849 c 0
 194 865 236 873 248 878 c 0
 296 896 342 911 403 911 c 0
 428 911 454 908 481 899 c 0
 519 887 568 861 617 812 c 0
 677 752 720 685 720 588 c 0
EndSplineSet
Layer: 1  0 1 1  #fffffffe 1  #fffffffe 1 50 miter butt [1 0 0 1] [0 255]
Refer: 1186 -1 N 1 0 0 1 0 0 2
Colour: ffff00
EndChar

StartChar: three
Encoding: 121 2409 105
Width: 1000
GlyphClass: 2
InSpiro: 1
Flags: MW
AnchorPoint: "below_middle_mark" 469.988 -140 basechar 0
LayerCount: 2
Layer: 0  1 0 1  #fffffffe 1  #fffffffe 1 10 round round [1 0 0 1] [0 255]
SplineSet
572 508 m 1
 540 496 499 488 459 488 c 0
 421 488 407 495 375 527 c 0
 352 550 337 576 337 590 c 0
 337 597 341 601 348 601 c 0
 355 601 362 600 369 600 c 0
 470 600 557 643 583 722 c 0
 587 734 589 747 589 759 c 0
 589 769 588 778 586 785 c 1
 568 792 543 797 519 797 c 0
 452 797 375 769 320 747 c 0
 318 746 317 746 315 746 c 0
 285 746 214 816 214 847 c 0
 214 852 216 855 220 857 c 0
 279 881 352 909 427 909 c 0
 516 909 574 871 624 821 c 0
 673 772 692 730 698 699 c 0
 700 689 701 678 701 668 c 0
 701 607 668 566 631 539 c 1
 684 491 739 425 739 340 c 0
 739 238 654 188 575 164 c 1
 633 102 686 36 731 -31 c 0
 740 -44 745 -57 745 -65 c 0
 745 -72 741 -76 734 -76 c 0
 711 -76 664 -34 647 -9 c 0
 608 49 566 101 520 149 c 1
 495 143 471 136 441 136 c 0
 373 136 318 192 290 237 c 0
 274 262 271 272 271 291 c 0
 271 325 296 345 330 345 c 0
 385 345 438 296 466 271 c 1
 541 292 627 335 627 429 c 0
 627 453 619 476 612 487 c 1
 606 493 585 503 572 508 c 1
EndSplineSet
Layer: 1  0 1 1  #fffffffe 1  #fffffffe 1 50 miter butt [1 0 0 1] [0 255]
Refer: 1187 -1 N 1 0 0 1 0 0 2
Colour: ffff00
EndChar

StartChar: four
Encoding: 122 2410 106
Width: 1000
GlyphClass: 2
InSpiro: 1
Flags: MW
LayerCount: 2
Layer: 0  1 0 1  #fffffffe 1  #fffffffe 1 10 round round [1 0 0 1] [0 255]
SplineSet
255 956 m 0
 285 956 356 886 356 855 c 0
 356 852 356 850 354 848 c 0
 335 825 322 799 322 762 c 0
 322 736 333 706 341 696 c 0
 345 691 352 684 368 668 c 0
 400 636 433 603 465 571 c 1
 597 703 l 2
 634 740 678 781 678 851 c 0
 678 866 668 896 667 899 c 1
 653 917 644 934 644 945 c 0
 644 952 648 956 655 956 c 0
 694 956 751 882 767 850 c 0
 782 821 790 798 790 762 c 0
 790 684 743 637 703 597 c 0
 659 553 614 508 570 464 c 1
 620 411 689 332 708 249 c 0
 712 233 713 217 713 202 c 0
 713 106 639 44 545 44 c 0
 428 44 324 152 296 234 c 0
 289 254 286 273 286 291 c 0
 286 345 306 384 329 419 c 0
 357 462 393 499 429 535 c 1
 397 567 364 600 332 632 c 0
 315 649 288 677 264 710 c 0
 231 756 210 791 210 851 c 0
 210 895 224 926 246 952 c 0
 248 954 251 956 255 956 c 0
455 156 m 0
 534 156 601 211 601 292 c 0
 601 359 568 394 535 429 c 1
 483 377 422 320 403 239 c 0
 400 227 399 214 399 202 c 0
 399 188 401 175 404 165 c 1
 418 159 436 156 455 156 c 0
EndSplineSet
Layer: 1  0 1 1  #fffffffe 1  #fffffffe 1 50 miter butt [1 0 0 1] [0 255]
Refer: 1188 -1 N 1 0 0 1 0 0 2
Colour: ffff00
EndChar

StartChar: five
Encoding: 123 2411 107
Width: 1000
GlyphClass: 2
InSpiro: 1
Flags: MW
LayerCount: 2
Layer: 0  1 0 1  #fffffffe 1  #fffffffe 1 10 round round [1 0 0 1] [0 255]
SplineSet
726 430 m 0
 726 372 673 345 631 329 c 1
 671 195 733 71 807 -32 c 0
 817 -47 824 -60 824 -69 c 0
 824 -76 820 -80 813 -80 c 0
 791 -80 747 -41 729 -16 c 0
 654 89 595 198 553 310 c 1
 543 309 534 308 524 308 c 0
 466 308 431 319 383 345 c 0
 347 364 295 406 263 445 c 0
 210 509 182 568 182 660 c 0
 182 767 231 865 280 935 c 0
 282 938 285 939 289 939 c 0
 319 939 390 869 390 838 c 0
 390 835 389 833 388 831 c 0
 342 766 293 668 293 571 c 0
 293 529 308 471 325 451 c 1
 346 433 391 420 434 420 c 0
 460 420 487 425 513 433 c 1
 508 450 505 469 505 490 c 0
 505 538 530 581 578 581 c 0
 635 581 690 517 711 480 c 0
 722 459 726 451 726 430 c 0
EndSplineSet
Layer: 1  0 1 1  #fffffffe 1  #fffffffe 1 50 miter butt [1 0 0 1] [0 255]
Refer: 1189 -1 N 1 0 0 1 0 0 2
Substitution2: "Dflt +IZIA Nep (Jha, five, eight, nine)" five_NEP
Colour: ffff00
EndChar

StartChar: six
Encoding: 124 2412 108
Width: 1000
GlyphClass: 2
InSpiro: 1
Flags: MW
LayerCount: 2
Layer: 0  1 0 1  #fffffffe 1  #fffffffe 1 10 round round [1 0 0 1] [0 255]
SplineSet
766 273 m 0
 766 222 719 199 677 190 c 1
 694 109 733 32 777 -17 c 0
 796 -38 807 -59 807 -71 c 0
 807 -78 803 -82 796 -82 c 0
 780 -82 746 -58 725 -35 c 0
 663 34 624 95 592 179 c 1
 586 179 581 179 575 179 c 0
 463 179 393 221 331 283 c 0
 297 317 274 353 261 382 c 0
 248 411 243 436 243 460 c 0
 243 513 268 550 298 575 c 1
 248 624 207 680 207 756 c 0
 207 861 289 914 390 914 c 0
 445 914 495 903 549 900 c 0
 579 898 648 830 648 799 c 0
 648 792 644 788 637 788 c 0
 585 788 531 802 479 802 c 0
 392 802 319 756 319 666 c 0
 319 646 324 628 330 615 c 0
 335 613 342 610 351 607 c 1
 388 622 427 627 468 627 c 0
 532 627 558 624 598 584 c 0
 621 561 636 535 636 521 c 0
 636 514 632 510 625 510 c 0
 603 510 580 515 557 515 c 0
 524 515 493 512 464 502 c 1
 464 496 460 492 453 492 c 0
 449 492 446 492 443 493 c 0
 399 473 355 433 355 370 c 0
 355 349 359 323 371 316 c 0
 398 300 441 291 485 291 c 0
 510 291 535 294 561 298 c 1
 559 309 558 321 558 333 c 0
 558 378 579 418 625 418 c 0
 660 418 686 396 714 368 c 0
 740 342 766 314 766 273 c 0
369 316 m 1
 369 316 l 1
 369 316 l 1
EndSplineSet
Layer: 1  0 1 1  #fffffffe 1  #fffffffe 1 50 miter butt [1 0 0 1] [0 255]
Refer: 1190 -1 N 1 0 0 1 0 0 2
Colour: ffff00
EndChar

StartChar: seven
Encoding: 125 2413 109
Width: 1000
GlyphClass: 2
InSpiro: 1
Flags: MW
LayerCount: 2
Layer: 0  1 0 1  #fffffffe 1  #fffffffe 1 10 round round [1 0 0 1] [0 255]
SplineSet
608 798 m 0
 552 798 499 752 499 696 c 0
 499 687 500 678 502 673 c 0
 534 656 580 645 620 637 c 0
 649 631 698 582 711 553 c 1
 711 560 711 568 711 575 c 0
 711 650 693 743 659 786 c 1
 649 792 631 798 608 798 c 0
387 786 m 0
 387 859 448 910 520 910 c 0
 608 910 683 841 728 784 c 0
 774 725 794 674 810 600 c 0
 818 563 823 524 823 486 c 0
 823 346 750 221 611 221 c 0
 570 221 543 228 506 246 c 0
 454 271 390 328 351 378 c 0
 289 459 264 537 239 638 c 0
 210 756 187 876 171 996 c 0
 171 997 171 998 171 999 c 0
 171 1006 175 1010 182 1010 c 0
 213 1010 279 942 283 912 c 0
 299 794 321 677 349 562 c 0
 375 456 395 333 521 333 c 0
 573 333 611 354 642 385 c 0
 676 419 700 468 708 527 c 1
 707 527 706 526 704 526 c 0
 686 526 667 534 650 538 c 0
 552 563 470 614 419 693 c 0
 395 730 387 755 387 786 c 0
EndSplineSet
Layer: 1  0 1 1  #fffffffe 1  #fffffffe 1 50 miter butt [1 0 0 1] [0 255]
Refer: 1191 -1 N 1 0 0 1 0 0 2
Colour: ffff00
EndChar

StartChar: eight
Encoding: 126 2414 110
Width: 1000
GlyphClass: 2
InSpiro: 1
Flags: MW
LayerCount: 2
Layer: 0  1 0 1  #fffffffe 1  #fffffffe 1 10 round round [1 0 0 1] [0 255]
SplineSet
720 242 m 0
 750 242 821 172 821 141 c 0
 821 137 819 134 816 132 c 0
 765 100 710 75 653 57 c 0
 613 44 571 34 526 34 c 0
 471 34 438 43 393 67 c 0
 314 109 213 204 213 326 c 0
 213 416 261 472 305 526 c 2
 620 912 l 2
 622 914 625 916 629 916 c 0
 659 916 730 846 730 815 c 0
 730 812 730 810 728 808 c 2
 413 422 l 2
 370 369 325 318 325 236 c 0
 325 209 331 184 341 168 c 1
 364 155 398 146 435 146 c 0
 474 146 515 154 555 167 c 0
 611 185 664 209 714 240 c 0
 716 241 717 242 720 242 c 0
EndSplineSet
Layer: 1  0 1 1  #fffffffe 1  #fffffffe 1 50 miter butt [1 0 0 1] [0 255]
Refer: 1192 -1 N 1 0 0 1 0 0 2
Substitution2: "Dflt +IZIA Nep (Jha, five, eight, nine)" eight_NEP
Colour: ffff00
EndChar

StartChar: nine
Encoding: 127 2415 111
Width: 1000
GlyphClass: 2
InSpiro: 1
Flags: MW
LayerCount: 2
Layer: 0  1 0 1  #fffffffe 1  #fffffffe 1 10 round round [1 0 0 1] [0 255]
SplineSet
749 -93 m 0
 719 -93 648 -23 648 8 c 0
 648 10 648 11 649 13 c 0
 666 50 685 87 685 136 c 0
 685 176 675 188 656 204 c 2
 342 473 l 2
 314 497 275 533 249 566 c 0
 216 608 198 647 191 681 c 0
 188 695 187 709 187 722 c 0
 187 829 270 903 375 903 c 0
 397 903 421 900 445 891 c 0
 478 880 519 857 564 812 c 0
 612 764 655 705 655 622 c 0
 655 512 575 434 469 431 c 1
 666 262 l 2
 693 239 728 206 751 173 c 0
 786 124 797 96 797 45 c 0
 797 -9 777 -48 759 -87 c 0
 757 -91 754 -93 749 -93 c 0
376 543 m 0
 469 543 543 618 543 713 c 0
 543 738 537 761 528 776 c 1
 512 785 488 791 463 791 c 0
 372 791 299 724 299 632 c 0
 299 591 317 563 331 550 c 1
 344 546 360 543 376 543 c 0
EndSplineSet
Layer: 1  0 1 1  #fffffffe 1  #fffffffe 1 50 miter butt [1 0 0 1] [0 255]
Refer: 1193 -1 N 1 0 0 1 0 0 2
Substitution2: "Dflt +IZIA Nep (Jha, five, eight, nine)" nine_NEP
Colour: ffff00
EndChar

StartChar: abbreviation
Encoding: 128 2416 112
Width: 1000
InSpiro: 1
Flags: MW
LayerCount: 2
Layer: 0  1 0 1  #fffffffe 1  #fffffffe 1 10 round round [1 0 0 1] [0 255]
SplineSet
544 945 m 0
 469 945 405 881 405 806 c 0
 405 790 408 775 412 764 c 1
 423 760 438 757 454 757 c 0
 529 757 593 821 593 896 c 0
 593 912 590 927 586 938 c 1
 575 942 560 945 544 945 c 0
705 806 m 0
 705 715 635 645 544 645 c 0
 440 645 348 738 313 813 c 0
 299 843 293 870 293 896 c 0
 293 987 363 1057 454 1057 c 0
 558 1057 650 964 685 889 c 0
 699 859 705 832 705 806 c 0
EndSplineSet
Layer: 1  0 1 1  #fffffffe 1  #fffffffe 1 50 miter butt [1 0 0 1] [0 255]
SplineSet
349 851 m 4
 349 934 416 1001 499 1001 c 4
 582 1001 649 934 649 851 c 4
 649 768 582 701 499 701 c 4
 416 701 349 768 349 851 c 4
  Spiro
    349 851 o
    369.405 926.711 o
    423.289 980.595 o
    499 1001 o
    574.711 980.595 o
    628.595 926.711 o
    649 851 o
    628.595 775.289 o
    574.711 721.405 o
    499 701 o
    423.289 721.405 o
    369.405 775.289 o
    0 0 z
  EndSpiro
EndSplineSet
Colour: ffffff
EndChar

StartChar: spacing_dot
Encoding: 129 2417 113
Width: 1000
InSpiro: 1
Flags: MW
LayerCount: 2
Layer: 0  1 0 1  #fffffffe 1  #fffffffe 1 10 round round [1 0 0 1] [0 255]
SplineSet
596 1134 m 0
 596 1104 574 1082 544 1082 c 0
 486 1082 404 1163 404 1224 c 0
 404 1254 424 1276 455 1276 c 0
 508 1276 557 1219 579 1184 c 0
 591 1164 596 1155 596 1134 c 0
546 1164 m 1
 546 1164 l 1
EndSplineSet
Layer: 1  0 1 1  #fffffffe 1  #fffffffe 1 50 miter butt [1 0 0 1] [0 255]
Refer: 875 -1 S 1 0 0 1 0 1460 2
Colour: ffffff
EndChar

StartChar: A_candra
Encoding: 130 2418 114
Width: 1000
GlyphClass: 2
Flags: MW
LayerCount: 2
Layer: 0  1 0 1  #fffffffe 1  #fffffffe 1 10 round round [1 0 0 1] [0 255]
SplineSet
905 1341 m 0
 935 1341 1006 1271 1006 1240 c 0
 1006 1189 970 1137 936 1107 c 0
 898 1074 848 1054 795 1054 c 0
 671 1054 570 1153 524 1238 c 0
 507 1270 494 1301 494 1330 c 0
 494 1337 498 1341 505 1341 c 0
 536 1341 602 1273 606 1243 c 0
 609 1221 616 1200 625 1187 c 1
 641 1175 675 1166 705 1166 c 0
 802 1166 882 1243 894 1332 c 0
 895 1338 899 1341 905 1341 c 0
955 906 m 0
 985 906 1056 836 1056 805 c 0
 1056 798 1052 794 1045 794 c 2
 906 794 l 1
 906 514 906 235 906 -45 c 0
 906 -52 902 -56 895 -56 c 0
 865 -56 794 14 794 45 c 2
 794 382 l 1
 777 378 758 376 738 376 c 0
 724 376 709 377 694 380 c 1
 703 353 708 329 708 296 c 0
 708 187 636 93 526 93 c 0
 423 93 338 171 283 233 c 0
 224 300 186 370 144 445 c 2
 102 521 l 2
 97 530 94 539 94 545 c 0
 94 552 98 556 105 556 c 0
 132 556 183 506 198 479 c 0
 241 401 285 299 344 240 c 0
 363 221 396 205 438 205 c 0
 531 205 596 292 596 386 c 0
 596 431 582 472 563 494 c 1
 540 487 517 483 492 483 c 0
 456 483 441 491 410 522 c 0
 387 545 372 571 372 585 c 0
 372 592 376 596 383 596 c 0
 389 596 396 595 402 595 c 0
 425 595 448 599 471 606 c 0
 473 609 476 610 480 610 c 0
 481 610 481 610 482 610 c 0
 538 631 598 679 598 755 c 0
 598 767 596 779 593 788 c 1
 508 826 397 780 341 746 c 0
 339 745 338 744 335 744 c 0
 305 744 234 814 234 845 c 0
 234 849 236 852 239 854 c 0
 293 886 356 913 435 913 c 0
 563 913 668 812 700 723 c 0
 707 703 710 685 710 668 c 0
 710 592 663 542 613 514 c 1
 621 505 627 497 634 488 c 0
 639 488 645 488 650 488 c 0
 713 488 761 516 794 550 c 1
 794 821 l 1
 771 841 744 878 744 895 c 0
 744 902 748 906 755 906 c 0
 822 906 888 906 955 906 c 0
EndSplineSet
Layer: 1  0 1 1  #fffffffe 1  #fffffffe 1 50 miter butt [1 0 0 1] [0 255]
Refer: 1145 -1 S 1 0 0 1 0 0 2
Refer: 5 2309 N 1 0 0 1 0 0 3
MultipleSubs2: "Vowels decomposition" A E_candra_sign
Colour: ffff
EndChar

StartChar: Oe
Encoding: 131 2419 115
Width: 1000
GlyphClass: 2
Flags: MW
LayerCount: 2
Layer: 0  1 0 1  #fffffffe 1  #fffffffe 1 10 round round [1 0 0 1] [0 255]
SplineSet
794 821 m 1
 771 841 744 878 744 895 c 0
 744 902 748 906 755 906 c 2
 794 906 l 1
 794 1245 l 2
 794 1252 798 1256 805 1256 c 0
 835 1256 906 1186 906 1155 c 2
 906 906 l 1
 955 906 l 2
 985 906 1056 836 1056 805 c 0
 1056 798 1052 794 1045 794 c 2
 906 794 l 1
 906 514 906 235 906 -45 c 0
 906 -52 902 -56 895 -56 c 0
 865 -56 794 14 794 45 c 2
 794 382 l 1
 777 378 758 376 738 376 c 0
 724 376 709 377 694 380 c 1
 703 353 708 329 708 296 c 0
 708 187 636 93 526 93 c 0
 423 93 338 171 283 233 c 0
 224 300 186 370 144 445 c 2
 102 521 l 2
 97 530 94 539 94 545 c 0
 94 552 98 556 105 556 c 0
 132 556 183 506 198 479 c 0
 241 401 285 299 344 240 c 0
 363 221 396 205 438 205 c 0
 531 205 596 292 596 386 c 0
 596 431 582 472 563 494 c 1
 540 487 517 483 492 483 c 0
 456 483 441 491 410 522 c 0
 387 545 372 571 372 585 c 0
 372 592 376 596 383 596 c 0
 389 596 396 595 402 595 c 0
 425 595 448 599 471 606 c 0
 473 609 476 610 480 610 c 0
 481 610 481 610 482 610 c 0
 538 631 598 679 598 755 c 0
 598 767 596 779 593 788 c 1
 508 826 397 780 341 746 c 0
 339 745 338 744 335 744 c 0
 305 744 234 814 234 845 c 0
 234 849 236 852 239 854 c 0
 293 886 356 913 435 913 c 0
 563 913 668 812 700 723 c 0
 707 703 710 685 710 668 c 0
 710 592 663 542 613 514 c 1
 621 505 627 497 634 488 c 0
 639 488 645 488 650 488 c 0
 713 488 761 516 794 550 c 1
 794 821 l 1
EndSplineSet
Layer: 1  0 1 1  #fffffffe 1  #fffffffe 1 50 miter butt [1 0 0 1] [0 255]
Refer: 874 -1 S 1 0 0 1 0 0 2
Refer: 5 2309 N 1 0 0 1 0 0 3
MultipleSubs2: "Vowels decomposition" A Oe_sign
Colour: ffff
EndChar

StartChar: Ooe
Encoding: 132 2420 116
Width: 1000
GlyphClass: 2
Flags: MW
LayerCount: 2
Layer: 0  1 0 1  #fffffffe 1  #fffffffe 1 10 round round [1 0 0 1] [0 255]
SplineSet
694 821 m 1
 671 841 644 878 644 895 c 0
 644 902 648 906 655 906 c 0
 735 906 814 906 894 906 c 1
 894 1245 l 2
 894 1252 898 1256 905 1256 c 0
 935 1256 1006 1186 1006 1155 c 2
 1006 879 l 1
 1029 859 1056 822 1056 805 c 0
 1056 798 1052 794 1045 794 c 2
 1006 794 l 1
 1006 -45 l 2
 1006 -52 1002 -56 995 -56 c 0
 965 -56 894 14 894 45 c 2
 894 794 l 1
 865 794 835 794 806 794 c 1
 806 514 806 235 806 -45 c 0
 806 -52 802 -56 795 -56 c 0
 765 -56 694 14 694 45 c 2
 694 382 l 1
 677 378 658 376 638 376 c 0
 624 376 609 377 594 380 c 1
 603 353 608 329 608 296 c 0
 608 187 536 93 426 93 c 0
 323 93 238 171 183 233 c 0
 124 300 86 370 44 445 c 2
 2 521 l 2
 -3 530 -6 539 -6 545 c 0
 -6 552 -2 556 5 556 c 0
 32 556 83 506 98 479 c 0
 141 401 185 299 244 240 c 0
 263 221 296 205 338 205 c 0
 431 205 496 292 496 386 c 0
 496 431 482 472 463 494 c 1
 440 487 417 483 392 483 c 0
 356 483 341 491 310 522 c 0
 287 545 272 571 272 585 c 0
 272 592 276 596 283 596 c 0
 289 596 296 595 302 595 c 0
 325 595 348 599 371 606 c 0
 373 609 376 610 380 610 c 0
 381 610 381 610 382 610 c 0
 438 631 498 679 498 755 c 0
 498 767 496 779 493 788 c 1
 409 826 297 779 241 746 c 0
 239 745 238 744 235 744 c 0
 205 744 134 814 134 845 c 0
 134 849 136 852 139 854 c 0
 193 886 256 913 335 913 c 0
 463 913 568 812 600 723 c 0
 607 703 610 685 610 668 c 0
 610 592 563 542 513 514 c 1
 521 505 527 497 534 488 c 0
 539 488 545 488 550 488 c 0
 613 488 661 516 694 550 c 1
 694 821 l 1
EndSplineSet
Layer: 1  0 1 1  #fffffffe 1  #fffffffe 1 50 miter butt [1 0 0 1] [0 255]
Refer: 874 -1 S 1 0 0 1 100 0 2
Refer: 6 2310 N 1 0 0 1 0 0 3
MultipleSubs2: "Vowels decomposition" Aa Oe_sign
Colour: ffff
EndChar

StartChar: Aw
Encoding: 133 2421 117
Width: 1000
GlyphClass: 2
Flags: MW
LayerCount: 2
Layer: 0  1 0 1  #fffffffe 1  #fffffffe 1 10 round round [1 0 0 1] [0 255]
SplineSet
955 906 m 2
 985 906 1056 836 1056 805 c 0
 1056 798 1052 794 1045 794 c 2
 1006 794 l 1
 1006 -45 l 2
 1006 -52 1002 -56 995 -56 c 0
 965 -56 894 14 894 45 c 2
 894 794 l 1
 865 794 835 794 806 794 c 1
 806 514 806 235 806 -45 c 0
 806 -52 802 -56 795 -56 c 0
 765 -56 694 14 694 45 c 2
 694 382 l 1
 677 378 658 376 638 376 c 0
 624 376 609 377 594 380 c 1
 603 353 608 329 608 296 c 0
 608 187 536 93 426 93 c 0
 323 93 238 171 183 233 c 0
 124 300 86 370 44 445 c 2
 2 521 l 2
 -3 530 -6 539 -6 545 c 0
 -6 552 -2 556 5 556 c 0
 32 556 83 506 98 479 c 0
 141 401 185 299 244 240 c 0
 263 221 296 205 338 205 c 0
 431 205 496 292 496 386 c 0
 496 431 482 472 463 494 c 1
 440 487 417 483 392 483 c 0
 356 483 341 491 310 522 c 0
 287 545 272 571 272 585 c 0
 272 592 276 596 283 596 c 0
 289 596 296 595 302 595 c 0
 325 595 348 599 371 606 c 0
 373 609 376 610 380 610 c 0
 381 610 381 610 382 610 c 0
 438 631 498 679 498 755 c 0
 498 767 496 779 493 788 c 1
 409 826 297 779 241 746 c 0
 239 745 238 744 235 744 c 0
 205 744 134 814 134 845 c 0
 134 849 136 852 139 854 c 0
 193 886 256 913 335 913 c 0
 463 913 568 812 600 723 c 0
 607 703 610 685 610 668 c 0
 610 592 563 542 513 514 c 1
 521 505 527 497 534 488 c 0
 539 488 545 488 550 488 c 0
 613 488 661 516 694 550 c 1
 694 821 l 1
 671 841 644 878 644 895 c 0
 644 902 648 906 655 906 c 0
 724 906 794 906 863 906 c 1
 814 934 745 943 671 947 c 0
 538 954 475 973 393 1055 c 0
 354 1094 330 1134 317 1165 c 0
 305 1194 301 1220 301 1245 c 0
 301 1252 305 1256 312 1256 c 0
 343 1256 413 1186 413 1155 c 0
 413 1130 420 1104 429 1090 c 1
 473 1059 559 1062 630 1056 c 0
 693 1051 747 1038 797 1014 c 1
 777 1038 720 1056 682 1071 c 0
 634 1089 599 1109 558 1150 c 0
 520 1188 502 1221 493 1245 c 0
 485 1266 481 1286 481 1304 c 0
 481 1317 480 1336 494 1336 c 0
 524 1336 595 1266 595 1235 c 0
 595 1228 593 1222 593 1215 c 0
 593 1204 596 1194 598 1186 c 1
 634 1169 665 1161 703 1144 c 0
 738 1128 787 1096 826 1057 c 0
 859 1024 879 995 895 973 c 2
 944 906 l 1
 955 906 l 2
EndSplineSet
Layer: 1  0 1 1  #fffffffe 1  #fffffffe 1 50 miter butt [1 0 0 1] [0 255]
Refer: 1154 -1 S 1 0 0 1 100 0 2
Refer: 6 2310 N 1 0 0 1 0 0 3
MultipleSubs2: "Vowels decomposition" A Aw_sign
Colour: ffff
EndChar

StartChar: Ue
Encoding: 134 2422 118
Width: 1000
GlyphClass: 2
Flags: MW
LayerCount: 2
Layer: 0  1 0 1  #fffffffe 1  #fffffffe 1 10 round round [1 0 0 1] [0 255]
SplineSet
955 906 m 0
 985 906 1056 836 1056 805 c 0
 1056 798 1052 794 1045 794 c 2
 906 794 l 1
 906 514 906 235 906 -45 c 0
 906 -52 902 -56 895 -56 c 0
 865 -56 794 14 794 45 c 2
 794 382 l 1
 777 378 758 376 738 376 c 0
 724 376 709 377 694 380 c 1
 703 353 708 329 708 296 c 0
 708 187 636 93 526 93 c 0
 423 93 338 171 283 233 c 0
 224 300 186 370 144 445 c 2
 102 521 l 2
 97 530 94 539 94 545 c 0
 94 552 98 556 105 556 c 0
 132 556 183 506 198 479 c 0
 241 401 285 299 344 240 c 0
 363 221 396 205 438 205 c 0
 531 205 596 292 596 386 c 0
 596 431 582 472 563 494 c 1
 540 487 517 483 492 483 c 0
 456 483 441 491 410 522 c 0
 387 545 372 571 372 585 c 0
 372 592 376 596 383 596 c 0
 389 596 396 595 402 595 c 0
 425 595 448 599 471 606 c 0
 473 609 476 610 480 610 c 0
 481 610 481 610 482 610 c 0
 538 631 598 679 598 755 c 0
 598 767 596 779 593 788 c 1
 508 826 397 780 341 746 c 0
 339 745 338 744 335 744 c 0
 305 744 234 814 234 845 c 0
 234 849 236 852 239 854 c 0
 293 886 356 913 435 913 c 0
 563 913 668 812 700 723 c 0
 707 703 710 685 710 668 c 0
 710 592 663 542 613 514 c 1
 621 505 627 497 634 488 c 0
 639 488 645 488 650 488 c 0
 713 488 761 516 794 550 c 1
 794 821 l 1
 771 841 744 878 744 895 c 0
 744 902 748 906 755 906 c 0
 822 906 888 906 955 906 c 0
705 -134 m 0
 735 -134 806 -204 806 -235 c 0
 806 -239 804 -242 802 -244 c 0
 729 -300 639 -331 545 -331 c 0
 503 -331 460 -325 418 -312 c 0
 362 -295 284 -260 232 -208 c 0
 209 -185 194 -159 194 -145 c 0
 194 -138 198 -134 205 -134 c 0
 215 -134 231 -141 247 -154 c 0
 292 -188 374 -219 455 -219 c 0
 540 -219 628 -189 698 -136 c 0
 700 -135 702 -134 705 -134 c 0
EndSplineSet
Layer: 1  0 1 1  #fffffffe 1  #fffffffe 1 50 miter butt [1 0 0 1] [0 255]
Refer: 5 2309 N 1 0 0 1 0 0 3
Refer: 86 2390 S 1 0 0 1 0 0 2
Colour: ffff
EndChar

StartChar: Uue
Encoding: 135 2423 119
Width: 1000
GlyphClass: 2
Flags: MW
LayerCount: 2
Layer: 0  1 0 1  #fffffffe 1  #fffffffe 1 10 round round [1 0 0 1] [0 255]
SplineSet
955 906 m 0
 985 906 1056 836 1056 805 c 0
 1056 798 1052 794 1045 794 c 2
 906 794 l 1
 906 514 906 235 906 -45 c 0
 906 -52 902 -56 895 -56 c 0
 865 -56 794 14 794 45 c 2
 794 382 l 1
 777 378 758 376 738 376 c 0
 724 376 709 377 694 380 c 1
 703 353 708 329 708 296 c 0
 708 187 636 93 526 93 c 0
 423 93 338 171 283 233 c 0
 224 300 186 370 144 445 c 2
 102 521 l 2
 97 530 94 539 94 545 c 0
 94 552 98 556 105 556 c 0
 132 556 183 506 198 479 c 0
 241 401 285 299 344 240 c 0
 363 221 396 205 438 205 c 0
 531 205 596 292 596 386 c 0
 596 431 582 472 563 494 c 1
 540 487 517 483 492 483 c 0
 456 483 441 491 410 522 c 0
 387 545 372 571 372 585 c 0
 372 592 376 596 383 596 c 0
 389 596 396 595 402 595 c 0
 425 595 448 599 471 606 c 0
 473 609 476 610 480 610 c 0
 481 610 481 610 482 610 c 0
 538 631 598 679 598 755 c 0
 598 767 596 779 593 788 c 1
 508 826 397 780 341 746 c 0
 339 745 338 744 335 744 c 0
 305 744 234 814 234 845 c 0
 234 849 236 852 239 854 c 0
 293 886 356 913 435 913 c 0
 563 913 668 812 700 723 c 0
 707 703 710 685 710 668 c 0
 710 592 663 542 613 514 c 1
 621 505 627 497 634 488 c 0
 639 488 645 488 650 488 c 0
 713 488 761 516 794 550 c 1
 794 821 l 1
 771 841 744 878 744 895 c 0
 744 902 748 906 755 906 c 0
 822 906 888 906 955 906 c 0
705 -34 m 0
 735 -34 806 -104 806 -135 c 0
 806 -139 804 -142 802 -144 c 0
 729 -200 639 -231 545 -231 c 0
 503 -231 460 -225 418 -212 c 0
 362 -195 284 -160 232 -108 c 0
 209 -85 194 -59 194 -45 c 0
 194 -38 198 -34 205 -34 c 0
 215 -34 231 -41 247 -54 c 0
 292 -88 374 -119 455 -119 c 0
 540 -119 628 -89 698 -36 c 0
 700 -35 702 -34 705 -34 c 0
705 -234 m 0
 735 -234 806 -304 806 -335 c 0
 806 -339 804 -342 802 -344 c 0
 729 -400 639 -431 545 -431 c 0
 503 -431 460 -425 418 -412 c 0
 362 -395 284 -360 232 -308 c 0
 209 -285 194 -259 194 -245 c 0
 194 -238 198 -234 205 -234 c 0
 215 -234 231 -241 247 -254 c 0
 292 -288 374 -319 455 -319 c 0
 540 -319 628 -289 698 -236 c 0
 700 -235 702 -234 705 -234 c 0
EndSplineSet
Layer: 1  0 1 1  #fffffffe 1  #fffffffe 1 50 miter butt [1 0 0 1] [0 255]
Refer: 5 2309 N 1 0 0 1 0 0 3
Refer: 87 2391 S 1 0 0 1 0 0 2
Colour: ffff
EndChar

StartChar: Dda_MAR
Encoding: 136 2424 120
Width: 1000
GlyphClass: 2
InSpiro: 1
Flags: MW
AnchorPoint: "above_mark" 400 850 basechar 0
AnchorPoint: "below_mark" 568 0 basechar 0
LayerCount: 2
Layer: 0  1 0 1  #fffffffe 1  #fffffffe 1 10 round round [1 0 0 1] [0 255]
SplineSet
-5 794 m 2
 -35 794 -106 864 -106 895 c 0
 -106 902 -102 906 -95 906 c 0
 272 906 638 906 1005 906 c 0
 1035 906 1106 836 1106 805 c 0
 1106 798 1102 794 1095 794 c 2
 456 794 l 1
 456 636 l 1
 483 639 510 642 538 642 c 0
 665 642 751 573 808 493 c 0
 840 448 862 399 862 328 c 0
 862 225 814 136 770 69 c 0
 768 66 765 65 761 65 c 0
 731 65 660 135 660 166 c 0
 660 169 661 171 662 173 c 0
 704 235 750 323 750 417 c 0
 750 451 741 487 730 507 c 1
 707 523 667 529 628 529 c 0
 569 529 513 519 456 516 c 1
 456 427 l 2
 456 385 447 349 405 349 c 0
 345 349 282 425 260 459 c 0
 243 484 224 515 224 552 c 0
 224 616 283 625 344 627 c 1
 344 794 l 1
 -5 794 l 2
338 475 m 1
 339 477 340 480 341 483 c 1
 340 481 339 478 338 475 c 1
EndSplineSet
Layer: 1  0 1 1  #fffffffe 1  #fffffffe 1 50 miter butt [1 0 0 1] [0 255]
Refer: 855 -1 N 1 0 0 1 0 0 2
Refer: 1182 -1 S 1 0 0 1 0 0 2
Colour: bfff
EndChar

StartChar: Zha
Encoding: 137 2425 121
Width: 1000
GlyphClass: 2
Flags: MW
LayerCount: 2
Layer: 0  1 0 1  #fffffffe 1  #fffffffe 1 10 round round [1 0 0 1] [0 255]
SplineSet
538 -136 m 0
 538 -166 516 -188 486 -188 c 0
 428 -188 346 -107 346 -46 c 0
 346 -16 366 6 397 6 c 0
 450 6 499 -51 521 -86 c 0
 533 -106 538 -115 538 -136 c 0
704 26 m 0
 704 -4 682 -26 652 -26 c 0
 594 -26 512 55 512 116 c 0
 512 146 532 168 563 168 c 0
 616 168 665 111 687 76 c 0
 699 56 704 47 704 26 c 0
373 26 m 0
 373 -4 351 -26 321 -26 c 0
 263 -26 181 55 181 116 c 0
 181 146 201 168 232 168 c 0
 285 168 334 111 356 76 c 0
 368 56 373 47 373 26 c 0
407 276 m 0
 490 276 561 348 561 431 c 0
 561 468 548 502 531 519 c 0
 524 526 504 542 478 561 c 2
 408 611 l 2
 383 629 344 673 344 695 c 0
 344 702 348 706 355 706 c 2
 794 706 l 1
 794 794 l 1
 -5 794 l 2
 -35 794 -106 864 -106 895 c 0
 -106 902 -102 906 -95 906 c 0
 272 906 638 906 1005 906 c 0
 1035 906 1106 836 1106 805 c 0
 1106 798 1102 794 1095 794 c 2
 906 794 l 1
 906 514 906 235 906 -45 c 0
 906 -52 902 -56 895 -56 c 0
 865 -56 794 14 794 45 c 2
 794 594 l 1
 523 594 l 1
 589 539 673 454 673 342 c 0
 673 243 596 164 497 164 c 0
 419 164 332 223 281 274 c 0
 172 383 119 533 50 676 c 0
 46 683 44 690 44 695 c 0
 44 702 48 706 55 706 c 0
 83 706 137 652 150 624 c 0
 172 579 193 536 213 491 c 0
 242 427 271 354 316 309 c 0
 333 292 362 276 407 276 c 0
488 -106 m 1
 488 -106 l 1
654 56 m 1
 654 56 l 1
323 56 m 1
 323 56 l 1
EndSplineSet
Layer: 1  0 1 1  #fffffffe 1  #fffffffe 1 50 miter butt [1 0 0 1] [0 255]
Refer: 60 2364 S 1 0 0 1 -58 190 2
Refer: 60 2364 S 1 0 0 1 108 352 2
Refer: 60 2364 S 1 0 0 1 -223 352 2
Refer: 28 2332 N 1 0 0 1 0 0 2
Colour: ff00
EndChar

StartChar: Ya_heavy
Encoding: 138 2426 122
Width: 1000
GlyphClass: 2
InSpiro: 1
Flags: MW
LayerCount: 2
Layer: 0  1 0 1  #fffffffe 1  #fffffffe 1 10 round round [1 0 0 1] [0 255]
SplineSet
1005 906 m 2
 1035 906 1106 836 1106 805 c 0
 1106 798 1102 794 1095 794 c 2
 906 794 l 1
 906 514 906 235 906 -45 c 0
 906 -52 902 -56 895 -56 c 0
 865 -56 794 14 794 45 c 2
 794 273 l 1
 733 234 654 194 562 194 c 0
 412 194 296 300 241 404 c 0
 222 441 207 478 207 512 c 0
 207 518 210 522 215 523 c 0
 294 538 364 611 364 702 c 0
 364 730 353 764 345 777 c 0
 339 781 320 790 293 794 c 1
 -5 794 l 2
 -35 794 -106 864 -106 895 c 0
 -106 902 -102 906 -95 906 c 2
 1005 906 l 2
476 613 m 0
 476 511 406 434 320 413 c 1
 329 365 339 342 378 325 c 0
 403 314 435 305 472 305 c 0
 585 305 671 367 744 417 c 2
 768 433 l 1
 466 679 l 1
 473 656 476 634 476 613 c 0
794 479 m 1
 794 794 l 1
 407 794 l 1
 794 479 l 1
EndSplineSet
Layer: 1  0 1 1  #fffffffe 1  #fffffffe 1 50 miter butt [1 0 0 1] [0 255]
Refer: 908 -1 N 1 0 0 1 0 0 2
Refer: 857 -1 N 1 0 0 1 0 0 2
Refer: 855 -1 N 1 0 0 1 0 0 2
Colour: bfff
EndChar

StartChar: Gga
Encoding: 139 2427 123
Width: 1000
GlyphClass: 2
InSpiro: 1
Flags: MW
LayerCount: 2
Layer: 0  1 0 1  #fffffffe 1  #fffffffe 1 10 round round [1 0 0 1] [0 255]
SplineSet
195 -56 m 2
 165 -56 94 14 94 45 c 0
 94 52 98 56 105 56 c 2
 794 56 l 1
 794 794 l 1
 456 794 l 1
 456 405 l 1
 456 305 l 2
 456 262 439 231 397 231 c 0
 378 231 353 240 324 260 c 0
 297 279 274 300 262 312 c 0
 250 324 229 347 210 374 c 0
 190 403 181 428 181 447 c 0
 181 489 212 506 255 506 c 2
 344 506 l 1
 344 794 l 1
 -5 794 l 2
 -35 794 -106 864 -106 895 c 0
 -106 902 -102 906 -95 906 c 2
 1005 906 l 2
 1035 906 1106 836 1106 805 c 0
 1106 798 1102 794 1095 794 c 2
 906 794 l 1
 906 -45 l 2
 906 -52 902 -56 895 -56 c 2
 195 -56 l 2
293 358 m 0
 293 349 299 343 308 343 c 0
 335 343 344 366 344 394 c 1
 316 394 293 385 293 358 c 0
EndSplineSet
Layer: 1  0 1 1  #fffffffe 1  #fffffffe 1 50 miter butt [1 0 0 1] [0 255]
Refer: 859 -1 S 1 0 0 1 0 0 2
Refer: 23 2327 N 1 0 0 1 0 0 2
Colour: bfff
EndChar

StartChar: Jja
Encoding: 140 2428 124
Width: 1000
GlyphClass: 2
Flags: MW
LayerCount: 2
Layer: 0  1 0 1  #fffffffe 1  #fffffffe 1 10 round round [1 0 0 1] [0 255]
SplineSet
-5 794 m 2
 -35 794 -106 864 -106 895 c 0
 -106 902 -102 906 -95 906 c 0
 272 906 638 906 1005 906 c 0
 1035 906 1106 836 1106 805 c 0
 1106 798 1102 794 1095 794 c 2
 906 794 l 1
 906 514 906 235 906 -45 c 0
 906 -52 902 -56 895 -56 c 2
 195 -56 l 2
 165 -56 94 14 94 45 c 0
 94 52 98 56 105 56 c 2
 794 56 l 1
 794 180 l 1
 751 152 700 135 647 135 c 0
 597 135 562 145 515 168 c 0
 482 184 441 213 404 251 c 0
 346 311 302 378 302 471 c 0
 302 516 316 561 337 594 c 1
 145 594 l 2
 115 594 44 664 44 695 c 0
 44 702 48 706 55 706 c 0
 245 706 435 706 625 706 c 0
 655 706 726 636 726 605 c 0
 726 598 722 594 715 594 c 2
 701 594 l 2
 572 594 484 564 438 478 c 0
 422 448 414 415 414 382 c 0
 414 345 428 297 444 281 c 0
 463 262 513 247 556 247 c 0
 675 247 769 334 794 433 c 1
 794 794 l 1
 -5 794 l 2
EndSplineSet
Layer: 1  0 1 1  #fffffffe 1  #fffffffe 1 50 miter butt [1 0 0 1] [0 255]
Refer: 859 -1 N 1 0 0 1 0 0 2
Refer: 26 2330 N 1 0 0 1 0 0 2
Colour: bfff
EndChar

StartChar: glottal_stop
Encoding: 141 2429 125
Width: 1000
GlyphClass: 2
InSpiro: 1
Flags: MW
LayerCount: 2
Layer: 0  1 0 1  #fffffffe 1  #fffffffe 1 10 round round [1 0 0 1] [0 255]
SplineSet
545 44 m 0
 515 44 444 114 444 145 c 2
 444 515 l 2
 444 522 448 526 455 526 c 0
 457 526 459 526 461 526 c 0
 562 526 646 595 646 698 c 0
 646 720 638 745 632 756 c 1
 608 771 567 782 526 782 c 0
 468 782 411 765 367 745 c 0
 365 744 364 744 362 744 c 0
 332 744 261 814 261 845 c 0
 261 850 263 853 267 855 c 0
 315 877 371 894 437 894 c 0
 591 894 726 766 753 653 c 0
 757 638 758 623 758 609 c 0
 758 493 667 417 556 414 c 1
 556 55 l 2
 556 48 552 44 545 44 c 0
EndSplineSet
Layer: 1  0 1 1  #fffffffe 1  #fffffffe 1 50 miter butt [1 0 0 1] [0 255]
Refer: 1183 -1 N 1 0 0 1 0 0 2
Colour: ffffff
EndChar

StartChar: Ddda
Encoding: 142 2430 126
Width: 1000
GlyphClass: 2
InSpiro: 1
Flags: MW
AnchorPoint: "above_mark" 650 850 basechar 0
AnchorPoint: "below_mark" 592 0 basechar 0
LayerCount: 2
Layer: 0  1 0 1  #fffffffe 1  #fffffffe 1 10 round round [1 0 0 1] [0 255]
SplineSet
1005 906 m 0
 1035 906 1106 836 1106 805 c 0
 1106 798 1102 794 1095 794 c 2
 706 794 l 1
 706 731 706 668 706 605 c 0
 706 598 702 594 695 594 c 0
 694 594 694 594 693 594 c 2
 545 594 l 2
 533 594 521 594 509 594 c 0
 426 594 325 588 325 507 c 0
 325 481 334 475 350 465 c 1
 401 475 l 2
 438 483 474 491 516 491 c 0
 625 491 702 433 753 366 c 0
 777 334 788 310 794 289 c 0
 798 275 799 263 799 251 c 0
 799 186 754 142 709 118 c 0
 669 97 621 87 573 87 c 0
 429 87 309 165 216 222 c 2
 112 286 l 2
 86 302 39 351 39 376 c 0
 39 383 43 387 50 387 c 0
 57 387 67 384 78 377 c 2
 183 312 l 2
 270 259 353 198 483 198 c 0
 526 198 570 207 607 227 c 0
 645 247 687 286 687 340 c 0
 687 349 686 357 684 364 c 1
 663 373 632 379 603 379 c 0
 566 379 533 372 497 364 c 2
 436 351 l 2
 435 351 434 351 433 351 c 0
 427 351 420 353 411 358 c 0
 349 391 282 447 243 508 c 0
 226 535 213 561 213 596 c 0
 213 694 320 706 419 706 c 0
 431 706 443 706 455 706 c 2
 594 706 l 1
 594 794 l 1
 -5 794 l 2
 -35 794 -106 864 -106 895 c 0
 -106 902 -102 906 -95 906 c 0
 272 906 638 906 1005 906 c 0
805 56 m 2
 835 56 906 -14 906 -45 c 0
 906 -52 902 -56 895 -56 c 2
 195 -56 l 2
 165 -56 94 14 94 45 c 0
 94 52 98 56 105 56 c 2
 805 56 l 2
EndSplineSet
Layer: 1  0 1 1  #fffffffe 1  #fffffffe 1 50 miter butt [1 0 0 1] [0 255]
Refer: 1526 -1 S 1 0 0 1 0 0 2
Refer: 859 -1 N 1 0 0 1 0 0 2
Refer: 855 -1 N 1 0 0 1 0 0 2
Colour: bfff
EndChar

StartChar: Bba
Encoding: 143 2431 127
Width: 1000
GlyphClass: 2
Flags: MW
LayerCount: 2
Layer: 0  1 0 1  #fffffffe 1  #fffffffe 1 10 round round [1 0 0 1] [0 255]
SplineSet
-5 794 m 2
 -35 794 -106 864 -106 895 c 0
 -106 902 -102 906 -95 906 c 0
 272 906 638 906 1005 906 c 0
 1035 906 1106 836 1106 805 c 0
 1106 798 1102 794 1095 794 c 2
 906 794 l 1
 906 514 906 235 906 -45 c 0
 906 -52 902 -56 895 -56 c 2
 195 -56 l 2
 165 -56 94 14 94 45 c 0
 94 52 98 56 105 56 c 2
 794 56 l 1
 794 204 l 1
 746 175 680 149 608 149 c 0
 551 149 516 159 468 183 c 0
 439 198 403 223 369 257 c 0
 315 311 271 373 271 457 c 0
 271 546 325 610 384 645 c 0
 431 673 486 686 543 686 c 0
 630 686 710 666 758 618 c 0
 777 599 789 579 794 565 c 1
 794 794 l 1
 -5 794 l 2
477 530 m 1
 429 498 383 441 383 368 c 0
 383 338 392 308 404 292 c 1
 428 274 474 261 518 261 c 0
 567 261 621 276 659 295 c 1
 477 530 l 1
705 322 m 1
 738 343 768 368 794 395 c 1
 794 548 l 1
 792 545 789 544 785 544 c 0
 781 544 776 545 771 547 c 0
 732 563 686 574 633 574 c 0
 596 574 560 568 525 555 c 1
 705 322 l 1
EndSplineSet
Layer: 1  0 1 1  #fffffffe 1  #fffffffe 1 50 miter butt [1 0 0 1] [0 255]
Refer: 859 -1 N 1 0 0 1 0 0 2
Refer: 44 2348 N 1 0 0 1 0 0 2
Colour: bfff
EndChar

StartChar: _ZWNJ
Encoding: 163 8204 1150
Width: 1000
Flags: MW
LayerCount: 2
Layer: 0  1 0 1  #fffffffe 1  #fffffffe 1 10 round round [1 0 0 1] [0 255]
SplineSet
556 55 m 2
 556 48 552 44 545 44 c 0
 514 44 444 115 444 145 c 2
 434 1245 l 2
 434 1252 438 1256 445 1256 c 0
 476 1256 546 1185 546 1155 c 2
 556 55 l 2
EndSplineSet
Layer: 1  0 1 1  #fffffffe 1  #fffffffe 1 50 miter butt [1 0 0 1] [0 255]
Refer: 1656 -1 S 1 0 0 1 0 0 2
Colour: ffffff
EndChar

StartChar: _ZWJ
Encoding: 164 8205 1151
Width: 1000
InSpiro: 1
Flags: MW
LayerCount: 2
Layer: 0  1 0 1  #fffffffe 1  #fffffffe 1 10 round round [1 0 0 1] [0 255]
SplineSet
605 1256 m 0
 635 1256 706 1186 706 1155 c 0
 706 1151 705 1149 703 1147 c 2
 571 1015 l 1
 668 918 l 2
 691 895 706 869 706 855 c 0
 706 848 702 844 695 844 c 0
 681 844 655 859 632 882 c 2
 556 959 l 1
 556 -45 l 2
 556 -52 552 -56 545 -56 c 0
 515 -56 444 14 444 45 c 2
 444 888 l 1
 403 847 l 2
 401 845 399 844 395 844 c 0
 365 844 294 914 294 945 c 0
 294 949 295 951 297 953 c 2
 429 1085 l 1
 332 1182 l 2
 309 1205 294 1231 294 1245 c 0
 294 1252 298 1256 305 1256 c 0
 319 1256 345 1241 368 1218 c 2
 465 1121 l 1
 597 1253 l 2
 599 1255 601 1256 605 1256 c 0
EndSplineSet
Layer: 1  0 1 1  #fffffffe 1  #fffffffe 1 50 miter butt [1 0 0 1] [0 255]
Refer: 1657 -1 S 1 0 0 1 0 0 2
Colour: ffffff
EndChar

StartChar: hyphen
Encoding: 165 8208 1690
Width: 1000
Flags: MW
LayerCount: 2
Layer: 0  1 0 1  #fffffffe 1  #fffffffe 1 10 round round [1 0 0 1] [0 255]
SplineSet
605 506 m 2
 635 506 706 436 706 405 c 0
 706 398 702 394 695 394 c 2
 395 394 l 2
 365 394 294 464 294 495 c 0
 294 502 298 506 305 506 c 2
 605 506 l 2
EndSplineSet
Layer: 1  0 1 1  #fffffffe 1  #fffffffe 1 50 miter butt [1 0 0 1] [0 255]
Refer: 1499 -1 S 1 0 0 1 0 0 2
Colour: ffffff
EndChar

StartChar: hyphen_NB
Encoding: 166 8209 1691
Width: 1000
Flags: MW
LayerCount: 2
Layer: 0  1 0 1  #fffffffe 1  #fffffffe 1 10 round round [1 0 0 1] [0 255]
SplineSet
605 506 m 2
 635 506 706 436 706 405 c 0
 706 398 702 394 695 394 c 2
 395 394 l 2
 365 394 294 464 294 495 c 0
 294 502 298 506 305 506 c 2
 605 506 l 2
EndSplineSet
Layer: 1  0 1 1  #fffffffe 1  #fffffffe 1 50 miter butt [1 0 0 1] [0 255]
Refer: 1499 -1 S 1 0 0 1 0 0 2
Colour: ffffff
EndChar

StartChar: dash_figure
Encoding: 167 8210 1692
Width: 1000
Flags: MW
LayerCount: 2
Layer: 0  1 0 1  #fffffffe 1  #fffffffe 1 10 round round [1 0 0 1] [0 255]
SplineSet
605 506 m 2
 635 506 706 436 706 405 c 0
 706 398 702 394 695 394 c 2
 395 394 l 2
 365 394 294 464 294 495 c 0
 294 502 298 506 305 506 c 2
 605 506 l 2
EndSplineSet
Layer: 1  0 1 1  #fffffffe 1  #fffffffe 1 50 miter butt [1 0 0 1] [0 255]
Refer: 1499 -1 S 1 0 0 1 0 0 2
Colour: ffffff
EndChar

StartChar: dash_en
Encoding: 168 8211 1693
Width: 1000
Flags: MW
LayerCount: 2
Layer: 0  1 0 1  #fffffffe 1  #fffffffe 1 10 round round [1 0 0 1] [0 255]
SplineSet
605 506 m 2
 635 506 706 436 706 405 c 0
 706 398 702 394 695 394 c 2
 395 394 l 2
 365 394 294 464 294 495 c 0
 294 502 298 506 305 506 c 2
 605 506 l 2
EndSplineSet
Layer: 1  0 1 1  #fffffffe 1  #fffffffe 1 50 miter butt [1 0 0 1] [0 255]
Refer: 1499 -1 S 1 0 0 1 0 0 2
Colour: ffffff
EndChar

StartChar: dash_em
Encoding: 169 8212 1694
Width: 1000
Flags: MW
LayerCount: 2
Layer: 0  1 0 1  #fffffffe 1  #fffffffe 1 10 round round [1 0 0 1] [0 255]
SplineSet
855 506 m 2
 885 506 956 436 956 405 c 0
 956 398 952 394 945 394 c 2
 145 394 l 2
 115 394 44 464 44 495 c 0
 44 502 48 506 55 506 c 2
 855 506 l 2
EndSplineSet
Layer: 1  0 1 1  #fffffffe 1  #fffffffe 1 50 miter butt [1 0 0 1] [0 255]
Refer: 1695 -1 S 1 0 0 1 0 0 2
Colour: ffffff
EndChar

StartChar: dotted_circle
Encoding: 175 9676 1149
Width: 1000
Flags: MW
LayerCount: 2
Layer: 0  1 0 1  #fffffffe 1  #fffffffe 1 10 round round [1 0 0 1] [0 255]
SplineSet
715 807 m 2
 745 807 816 737 816 706 c 0
 816 699 812 695 805 695 c 2
 804 695 l 2
 774 695 703 765 703 796 c 0
 703 803 707 807 714 807 c 2
 715 807 l 2
715 505 m 2
 745 505 816 435 816 404 c 0
 816 397 812 393 805 393 c 2
 804 393 l 2
 774 393 703 463 703 494 c 0
 703 501 707 505 714 505 c 2
 715 505 l 2
607 397 m 2
 637 397 708 327 708 296 c 0
 708 289 704 285 697 285 c 2
 696 285 l 2
 666 285 595 355 595 386 c 0
 595 393 599 397 606 397 c 2
 607 397 l 2
607 915 m 2
 637 915 708 845 708 814 c 0
 708 807 704 803 697 803 c 2
 696 803 l 2
 666 803 595 873 595 904 c 0
 595 911 599 915 606 915 c 2
 607 915 l 2
456 356 m 2
 486 356 557 286 557 255 c 0
 557 248 553 244 546 244 c 2
 545 244 l 2
 515 244 444 314 444 345 c 0
 444 352 448 356 455 356 c 2
 456 356 l 2
305 397 m 2
 335 397 406 327 406 296 c 0
 406 289 402 285 395 285 c 2
 394 285 l 2
 364 285 293 355 293 386 c 0
 293 393 297 397 304 397 c 2
 305 397 l 2
156 656 m 2
 186 656 257 586 257 555 c 0
 257 548 253 544 246 544 c 2
 245 544 l 2
 215 544 144 614 144 645 c 0
 144 652 148 656 155 656 c 2
 156 656 l 2
306 915 m 2
 336 915 407 845 407 814 c 0
 407 807 403 803 396 803 c 2
 395 803 l 2
 365 803 294 873 294 904 c 0
 294 911 298 915 305 915 c 2
 306 915 l 2
456 956 m 2
 486 956 557 886 557 855 c 0
 557 848 553 844 546 844 c 2
 545 844 l 2
 515 844 444 914 444 945 c 0
 444 952 448 956 455 956 c 2
 456 956 l 2
286 695 m 2
 256 695 185 765 185 796 c 0
 185 803 189 807 196 807 c 2
 197 807 l 2
 227 807 298 737 298 706 c 0
 298 699 294 695 287 695 c 2
 286 695 l 2
845 544 m 2
 815 544 744 614 744 645 c 0
 744 652 748 656 755 656 c 2
 757 656 l 2
 787 656 858 586 858 555 c 0
 858 548 854 544 847 544 c 2
 845 544 l 2
286 393 m 2
 256 393 185 463 185 494 c 0
 185 501 189 505 196 505 c 2
 197 505 l 2
 227 505 298 435 298 404 c 0
 298 397 294 393 287 393 c 2
 286 393 l 2
EndSplineSet
Layer: 1  0 1 1  #fffffffe 1  #fffffffe 1 -1 round round [1 0 0 1] [0 255]
Refer: 1655 -1 S 1 0 0 1 0 0 2
Colour: ffffff
EndChar

StartChar: _vedic_karshana
Encoding: 192 7376 775
Width: 1000
GlyphClass: 4
Flags: MW
AnchorPoint: "above_mark" 850 850 mark 0
LayerCount: 2
Layer: 0  1 0 1  #fffffffe 1  #fffffffe 1 10 round round [1 0 0 1] [0 255]
SplineSet
775 894 m 0
 745 894 674 964 674 995 c 0
 674 998 675 999 676 1001 c 2
 796 1201 l 2
 798 1204 801 1206 805 1206 c 0
 830 1206 880 1158 896 1132 c 2
 1016 932 l 2
 1022 921 1026 912 1026 905 c 0
 1026 898 1022 894 1015 894 c 0
 990 894 940 942 924 968 c 2
 875 1050 l 1
 784 899 l 2
 782 896 779 894 775 894 c 0
EndSplineSet
Layer: 1  0 1 1  #fffffffe 1  #fffffffe 1 50 miter butt [1 0 0 1] [0 255]
Refer: 1258 -1 S 1 0 0 1 0 0 2
Substitution2: "Low combining signs and digits" _vedic_karshana_low
Colour: ffffff
EndChar

StartChar: _vedic_shara
Encoding: 193 7377 776
Width: 1000
GlyphClass: 4
InSpiro: 1
Flags: MW
AnchorPoint: "above_mark" 850 850 mark 0
LayerCount: 2
Layer: 0  1 0 1  #fffffffe 1  #fffffffe 1 10 round round [1 0 0 1] [0 255]
SplineSet
848 1105 m 1
 872 1086 906 1044 906 1025 c 2
 906 875 l 2
 906 868 902 864 895 864 c 0
 865 864 794 934 794 965 c 2
 794 1015 l 1
 790 1008 786 994 775 994 c 0
 745 994 674 1064 674 1095 c 0
 674 1098 675 1099 676 1101 c 2
 796 1301 l 2
 798 1304 801 1306 805 1306 c 0
 830 1306 880 1258 896 1232 c 2
 1016 1032 l 2
 1022 1021 1026 1012 1026 1005 c 0
 1026 998 1022 994 1015 994 c 0
 990 994 940 1042 924 1068 c 2
 875 1150 l 1
 848 1105 l 1
EndSplineSet
Layer: 1  0 1 1  #fffffffe 1  #fffffffe 1 50 miter butt [1 0 0 1] [0 255]
Refer: 1654 -1 S 1 0 0 1 0 0 2
Substitution2: "Low combining signs and digits" _vedic_shara_low
Colour: ffffff
EndChar

StartChar: _vedic_prenkha
Encoding: 194 7378 777
Width: 1000
GlyphClass: 4
Flags: MW
LayerCount: 2
Layer: 0  1 0 1  #fffffffe 1  #fffffffe 1 10 round round [1 0 0 1] [0 255]
SplineSet
775 1153 m 2
 805 1153 876 1083 876 1052 c 0
 876 1045 872 1041 865 1041 c 2
 225 1041 l 2
 195 1041 124 1111 124 1142 c 0
 124 1149 128 1153 135 1153 c 2
 775 1153 l 2
EndSplineSet
Layer: 1  0 1 1  #fffffffe 1  #fffffffe 1 50 miter butt [1 0 0 1] [0 255]
SplineSet
180 1097 m 1
 820 1097 l 1025
EndSplineSet
Substitution2: "Low combining signs and digits" _vedic_prenkha_low
Colour: ffffff
EndChar

StartChar: _vedic_nihshvasa
Encoding: 195 7379 778
Width: 1000
GlyphClass: 2
Flags: MW
LayerCount: 2
Layer: 0  1 0 1  #fffffffe 1  #fffffffe 1 10 round round [1 0 0 1] [0 255]
SplineSet
367 1107 m 0
 397 1107 468 1037 468 1006 c 0
 468 1005 468 1005 468 1004 c 2
 416 628 l 2
 415 622 411 619 405 619 c 0
 375 619 304 689 304 720 c 0
 304 721 304 721 304 722 c 2
 356 1098 l 2
 357 1104 361 1107 367 1107 c 0
589 1107 m 0
 619 1107 690 1037 690 1006 c 0
 690 1005 690 1005 690 1004 c 2
 638 628 l 2
 637 622 633 619 627 619 c 0
 597 619 526 689 526 720 c 0
 526 721 526 721 526 722 c 2
 578 1098 l 2
 579 1104 583 1107 589 1107 c 0
EndSplineSet
Layer: 1  0 1 1  #fffffffe 1  #fffffffe 1 50 miter butt [1 0 0 1] [0 255]
Refer: 1259 -1 N 1 0 0 1 0 0 2
Colour: ffffff
EndChar

StartChar: _vedic_svarita_midline
Encoding: 196 7380 779
Width: 1000
GlyphClass: 4
Flags: MW
LayerCount: 2
Layer: 0  1 0 1  #fffffffe 1  #fffffffe 1 10 round round [1 0 0 1] [0 255]
SplineSet
469 544 m 2
 439 544 368 614 368 645 c 0
 368 652 372 656 379 656 c 2
 955 656 l 2
 985 656 1056 586 1056 555 c 0
 1056 548 1052 544 1045 544 c 2
 469 544 l 2
EndSplineSet
Layer: 1  0 1 1  #fffffffe 1  #fffffffe 1 50 miter butt [1 0 0 1] [0 255]
SplineSet
1000 600 m 29
 424 600 l 1053
EndSplineSet
Position2: "Zero width post-base -1000" dx=-1000 dy=0 dh=-1000 dv=0
Colour: ff00ff
EndChar

StartChar: _vedic_svarita_aggravated
Encoding: 197 7381 780
Width: 1000
GlyphClass: 4
InSpiro: 1
Flags: MW
AnchorPoint: "below_middle_mark" 509 0 mark 0
LayerCount: 2
Layer: 0  1 0 1  #fffffffe 1  #fffffffe 1 10 round round [1 0 0 1] [0 255]
SplineSet
528 -326 m 1
 500 -383 450 -437 369 -437 c 0
 362 -437 355 -437 348 -436 c 0
 311 -431 259 -409 203 -353 c 0
 138 -288 95 -205 94 -85 c 0
 94 -78 98 -74 105 -74 c 0
 136 -74 206 -144 206 -175 c 0
 206 -228 218 -283 238 -316 c 1
 245 -320 262 -325 278 -325 c 0
 383 -325 437 -223 444 -127 c 0
 444 -120 443 -114 443 -107 c 0
 443 -93 441 -74 455 -74 c 0
 486 -74 554 -143 556 -173 c 0
 556 -180 557 -188 557 -195 c 0
 557 -202 556 -209 556 -216 c 0
 558 -249 574 -297 584 -313 c 1
 593 -318 615 -325 633 -325 c 0
 715 -325 767 -248 785 -181 c 0
 792 -156 795 -130 795 -105 c 0
 795 -99 794 -91 794 -85 c 0
 794 -78 798 -74 805 -74 c 0
 836 -74 904 -143 906 -173 c 0
 906 -180 907 -187 907 -194 c 0
 907 -276 881 -342 836 -387 c 0
 807 -416 770 -436 722 -436 c 0
 640 -436 575 -380 528 -326 c 1
EndSplineSet
Layer: 1  0 1 1  #fffffffe 1  #fffffffe 1 50 bevel butt [1 0 0 1] [0 255]
Refer: 1260 -1 S 1 0 0 1 0 0 2
Position2: "Zero width post-base -1000" dx=-1000 dy=0 dh=-1000 dv=0
Colour: ff00ff
EndChar

StartChar: _vedic_svarita
Encoding: 198 7382 781
Width: 1000
GlyphClass: 4
Flags: MW
AnchorPoint: "below_middle_mark" 461 0 mark 0
LayerCount: 2
Layer: 0  1 0 1  #fffffffe 1  #fffffffe 1 10 round round [1 0 0 1] [0 255]
SplineSet
142 -44 m 0
 172 -44 243 -114 243 -145 c 2
 243 -336 l 1
 769 -344 l 2
 799 -344 869 -414 869 -445 c 0
 869 -452 865 -456 858 -456 c 2
 231 -446 l 2
 201 -446 131 -376 131 -345 c 2
 131 -55 l 2
 131 -48 135 -44 142 -44 c 0
EndSplineSet
Layer: 1  0 1 1  #fffffffe 1  #fffffffe 1 50 miter butt [1 0 0 1] [0 255]
SplineSet
187 -100 m 29
 187 -390 l 29
 813 -400 l 1053
EndSplineSet
Position2: "Zero width post-base -1000" dx=-1000 dy=0 dh=-1000 dv=0
Colour: ff00ff
EndChar

StartChar: _vedic_svarita_kathaka
Encoding: 199 7383 782
Width: 1000
GlyphClass: 4
InSpiro: 1
Flags: MW
AnchorPoint: "below_middle_mark" 470 0 mark 0
LayerCount: 2
Layer: 0  1 0 1  #fffffffe 1  #fffffffe 1 10 round round [1 0 0 1] [0 255]
SplineSet
757 -394 m 2
 787 -394 858 -464 858 -495 c 0
 858 -502 854 -506 847 -506 c 2
 443 -506 l 2
 338 -506 278 -475 223 -420 c 0
 177 -374 142 -329 142 -253 c 0
 142 -159 217 -84 311 -84 c 0
 340 -84 358 -94 386 -122 c 0
 409 -145 424 -171 424 -185 c 0
 424 -192 420 -196 413 -196 c 0
 409 -196 405 -195 401 -195 c 0
 322 -195 254 -264 254 -342 c 0
 254 -357 257 -371 261 -382 c 1
 285 -391 318 -394 353 -394 c 2
 757 -394 l 2
EndSplineSet
Layer: 1  0 1 1  #fffffffe 1  #fffffffe 1 50 miter butt [1 0 0 1] [0 255]
Refer: 1261 -1 S 1 0 0 1 0 0 2
Position2: "Zero width post-base -1000" dx=-1000 dy=0 dh=-1000 dv=0
Colour: ff00ff
EndChar

StartChar: _vedic_candra_below
Encoding: 200 7384 783
Width: 1000
GlyphClass: 4
Flags: MW
AnchorPoint: "below_middle_mark" 469 0 mark 0
LayerCount: 2
Layer: 0  1 0 1  #fffffffe 1  #fffffffe 1 10 round round [1 0 0 1] [0 255]
SplineSet
905 -307 m 0
 935 -307 1006 -377 1006 -408 c 0
 1006 -459 970 -511 936 -541 c 0
 898 -574 848 -594 795 -594 c 0
 671 -594 570 -495 524 -410 c 0
 507 -378 494 -347 494 -318 c 0
 494 -311 498 -307 505 -307 c 0
 536 -307 602 -375 606 -405 c 0
 609 -427 616 -448 625 -461 c 1
 642 -473 674 -482 705 -482 c 0
 802 -482 882 -405 894 -316 c 0
 895 -310 899 -307 905 -307 c 0
EndSplineSet
Layer: 1  0 1 1  #fffffffe 1  #fffffffe 1 50 miter butt [1 0 0 1] [0 255]
Refer: 69 2373 S 1 0 0 1 0 -1648 3
Position2: "Zero width post-base -1000" dx=-1000 dy=0 dh=-1000 dv=0
Colour: ff00ff
EndChar

StartChar: _vedic_svarita_schroeder
Encoding: 201 7385 784
Width: 1000
GlyphClass: 4
Flags: MW
AnchorPoint: "below_middle_mark" 432 0 mark 0
LayerCount: 2
Layer: 0  1 0 1  #fffffffe 1  #fffffffe 1 10 round round [1 0 0 1] [0 255]
SplineSet
193 -509 m 0
 163 -509 92 -439 92 -408 c 0
 92 -405 92 -402 94 -400 c 2
 378 -67 l 2
 380 -65 382 -64 386 -64 c 0
 395 -64 408 -70 423 -81 c 2
 858 -393 l 2
 883 -411 922 -455 922 -477 c 0
 922 -484 918 -488 911 -488 c 0
 902 -488 889 -482 874 -471 c 2
 474 -185 l 1
 202 -506 l 2
 200 -508 197 -509 193 -509 c 0
EndSplineSet
Layer: 1  0 1 1  #fffffffe 1  #fffffffe 1 50 bevel butt [1 0 0 1] [0 255]
SplineSet
148 -453 m 29
 431 -120 l 29
 866 -432 l 1053
EndSplineSet
Position2: "Zero width post-base -1000" dx=-1000 dy=0 dh=-1000 dv=0
Colour: ff00ff
EndChar

StartChar: _vedic_svarita_duo
Encoding: 202 7386 785
Width: 1000
GlyphClass: 4
Flags: MW
AnchorPoint: "above_mark" 452 686 mark 0
LayerCount: 2
Layer: 0  1 0 1  #fffffffe 1  #fffffffe 1 10 round round [1 0 0 1] [0 255]
SplineSet
367 1178 m 0
 397 1178 468 1108 468 1077 c 2
 468 738 l 2
 468 731 464 727 457 727 c 0
 427 727 356 797 356 828 c 2
 356 1167 l 2
 356 1174 360 1178 367 1178 c 0
579 1178 m 0
 609 1178 680 1108 680 1077 c 2
 680 738 l 2
 680 731 676 727 669 727 c 0
 639 727 568 797 568 828 c 2
 568 1167 l 2
 568 1174 572 1178 579 1178 c 0
EndSplineSet
Layer: 1  0 1 1  #fffffffe 1  #fffffffe 1 50 miter butt [1 0 0 1] [0 255]
SplineSet
624 1122 m 29
 624 783 l 1029
412 1122 m 29
 412 783 l 1029
EndSplineSet
Position2: "Zero width post-base -1000" dx=-1000 dy=0 dh=-1000 dv=0
Colour: ff00ff
EndChar

StartChar: _vedic_svarita_trio
Encoding: 203 7387 786
Width: 1000
GlyphClass: 4
Flags: MW
AnchorPoint: "above_mark" 449 672 mark 0
LayerCount: 2
Layer: 0  1 0 1  #fffffffe 1  #fffffffe 1 10 round round [1 0 0 1] [0 255]
SplineSet
655 1226 m 0
 685 1226 756 1156 756 1125 c 2
 756 725 l 2
 756 718 752 714 745 714 c 0
 715 714 644 784 644 815 c 2
 644 1215 l 2
 644 1222 648 1226 655 1226 c 0
505 1226 m 0
 535 1226 606 1156 606 1125 c 2
 606 725 l 2
 606 718 602 714 595 714 c 0
 565 714 494 784 494 815 c 2
 494 1215 l 2
 494 1222 498 1226 505 1226 c 0
355 1226 m 0
 385 1226 456 1156 456 1125 c 2
 456 725 l 2
 456 718 452 714 445 714 c 0
 415 714 344 784 344 815 c 2
 344 1215 l 2
 344 1222 348 1226 355 1226 c 0
EndSplineSet
Layer: 1  0 1 1  #fffffffe 1  #fffffffe 1 50 miter butt [1 0 0 1] [0 255]
SplineSet
400 1170 m 25
 400 770 l 1049
550 1170 m 25
 550 770 l 1049
700 1170 m 25
 700 770 l 1049
EndSplineSet
Position2: "Zero width post-base -1000" dx=-1000 dy=0 dh=-1000 dv=0
Colour: ff00ff
EndChar

StartChar: _vedic_anudatta
Encoding: 204 7388 787
Width: 1000
GlyphClass: 4
Flags: MW
AnchorPoint: "below_middle_mark" 660 1 mark 0
LayerCount: 2
Layer: 0  1 0 1  #fffffffe 1  #fffffffe 1 10 round round [1 0 0 1] [0 255]
SplineSet
805 -56 m 0
 835 -56 906 -126 906 -157 c 2
 906 -407 l 2
 906 -414 902 -418 895 -418 c 0
 865 -418 794 -348 794 -317 c 2
 794 -67 l 2
 794 -60 798 -56 805 -56 c 0
EndSplineSet
Layer: 1  0 1 1  #fffffffe 1  #fffffffe 1 50 miter butt [1 0 0 1] [0 255]
Refer: 81 2385 N 1 0 0 1 0 -1362 3
Position2: "Zero width post-base -1000" dx=-1000 dy=0 dh=-1000 dv=0
Colour: ff00ff
EndChar

StartChar: _vedic_tone_dot_below
Encoding: 205 7389 788
Width: 1000
GlyphClass: 4
Flags: MW
AnchorPoint: "below_middle_mark" 741 0 mark 0
LayerCount: 2
Layer: 0  1 0 1  #fffffffe 1  #fffffffe 1 10 round round [1 0 0 1] [0 255]
SplineSet
794 -394 m 0
 794 -402 787 -409 779 -409 c 0
 749 -409 678 -339 678 -308 c 0
 678 -300 685 -293 693 -293 c 0
 723 -293 794 -363 794 -394 c 0
EndSplineSet
Layer: 1  0 1 1  #fffffffe 1  #fffffffe 1 50 miter square [1 0 0 1] [0 255]
SplineSet
734 -353 m 25
 738 -349 l 1049
EndSplineSet
Position2: "Zero width post-base -1000" dx=-1000 dy=0 dh=-1000 dv=0
Colour: ff00ff
EndChar

StartChar: _vedic_tone_dot_below_duo
Encoding: 206 7390 789
Width: 1000
GlyphClass: 4
Flags: MW
AnchorPoint: "below_middle_mark" 515 -4 mark 0
LayerCount: 2
Layer: 0  1 0 1  #fffffffe 1  #fffffffe 1 10 round round [1 0 0 1] [0 255]
SplineSet
701 -311 m 0
 671 -311 600 -241 600 -210 c 2
 600 -208 l 2
 600 -201 604 -197 611 -197 c 0
 641 -197 712 -267 712 -298 c 2
 712 -300 l 2
 712 -307 708 -311 701 -311 c 0
419 -311 m 0
 389 -311 318 -241 318 -210 c 2
 318 -208 l 2
 318 -201 322 -197 329 -197 c 0
 359 -197 430 -267 430 -298 c 2
 430 -300 l 2
 430 -307 426 -311 419 -311 c 0
EndSplineSet
Layer: 1  0 1 1  #fffffffe 1  #fffffffe 1 50 miter round [1 0 0 1] [0 255]
SplineSet
374 -255 m 29
 374 -253 l 1053
656 -255 m 25
 656 -253 l 1049
EndSplineSet
Position2: "Zero width post-base -1000" dx=-1000 dy=0 dh=-1000 dv=0
Colour: ff00ff
EndChar

StartChar: _vedic_tone_dot_below_trio
Encoding: 207 7391 790
Width: 1000
GlyphClass: 4
Flags: MW
AnchorPoint: "below_middle_mark" 512 -3 mark 0
LayerCount: 2
Layer: 0  1 0 1  #fffffffe 1  #fffffffe 1 10 round round [1 0 0 1] [0 255]
SplineSet
845 -311 m 0
 815 -311 744 -241 744 -210 c 2
 744 -208 l 2
 744 -201 748 -197 755 -197 c 0
 785 -197 856 -267 856 -298 c 2
 856 -300 l 2
 856 -307 852 -311 845 -311 c 0
631 -311 m 0
 601 -311 530 -241 530 -210 c 2
 530 -208 l 2
 530 -201 534 -197 541 -197 c 0
 571 -197 642 -267 642 -298 c 2
 642 -300 l 2
 642 -307 638 -311 631 -311 c 0
419 -311 m 0
 389 -311 318 -241 318 -210 c 2
 318 -208 l 2
 318 -201 322 -197 329 -197 c 0
 359 -197 430 -267 430 -298 c 2
 430 -300 l 2
 430 -307 426 -311 419 -311 c 0
EndSplineSet
Layer: 1  0 1 1  #fffffffe 1  #fffffffe 1 50 miter butt [1 0 0 1] [0 255]
SplineSet
374 -255 m 25
 374 -253 l 1049
586 -255 m 25
 586 -253 l 1049
800 -255 m 25
 800 -253 l 1049
EndSplineSet
Position2: "Zero width post-base -1000" dx=-1000 dy=0 dh=-1000 dv=0
Colour: ff00ff
EndChar

StartChar: _vedic_svarita_kashmiri
Encoding: 208 7392 791
Width: 1000
GlyphClass: 2
Flags: MW
LayerCount: 2
Layer: 0  1 0 1  #fffffffe 1  #fffffffe 1 10 round round [1 0 0 1] [0 255]
SplineSet
757 1256 m 2
 787 1256 858 1186 858 1155 c 0
 858 1148 854 1144 847 1144 c 2
 443 1144 l 2
 389 1144 348 1139 314 1116 c 0
 281 1094 254 1054 254 1003 c 0
 254 985 258 967 263 955 c 1
 275 950 294 945 312 945 c 0
 316 945 319 946 323 946 c 0
 353 946 424 876 424 845 c 0
 424 833 412 834 400 834 c 0
 377 834 353 838 327 849 c 0
 301 859 261 884 227 918 c 0
 193 952 172 984 161 1009 c 0
 147 1039 142 1067 142 1092 c 0
 142 1182 203 1237 280 1251 c 0
 305 1256 329 1256 353 1256 c 2
 757 1256 l 2
EndSplineSet
Layer: 1  0 1 1  #fffffffe 1  #fffffffe 1 50 miter butt [1 0 0 1] [0 255]
Refer: 782 7383 S 1 0 0 -1 0 750 2
Colour: ffffff
EndChar

StartChar: _vedic_svarita_atharva
Encoding: 209 7393 792
Width: 1000
GlyphClass: 2
InSpiro: 1
Flags: MW
LayerCount: 2
Layer: 0  1 0 1  #fffffffe 1  #fffffffe 1 10 round round [1 0 0 1] [0 255]
SplineSet
492 840 m 0
 492 948 541 1035 649 1035 c 0
 725 1035 803 987 850 940 c 0
 873 917 888 892 888 878 c 0
 888 871 884 867 877 867 c 0
 859 867 834 891 811 904 c 0
 794 913 768 923 738 923 c 0
 645 923 604 845 604 751 c 0
 604 735 605 719 606 702 c 0
 620 485 664 262 664 37 c 0
 664 -165 623 -322 442 -349 c 0
 407 -354 372 -354 338 -354 c 2
 283 -354 l 2
 253 -354 182 -284 182 -253 c 0
 182 -246 186 -242 193 -242 c 2
 248 -242 l 2
 326 -242 389 -237 439 -205 c 0
 532 -146 552 -20 552 127 c 0
 552 349 508 572 494 788 c 0
 493 805 492 822 492 840 c 0
EndSplineSet
Layer: 1  0 1 1  #fffffffe 1  #fffffffe 1 50 miter butt [1 0 0 1] [0 255]
Refer: 1262 -1 S 1 0 0 1 0 0 2
Substitution2: "Low atharva" _vedic_svarita_atharva_alt
Colour: ffffff
EndChar

StartChar: _vedic_visarga_svarita
Encoding: 210 7394 793
Width: 1000
GlyphClass: 4
Flags: MW
LayerCount: 2
Layer: 0  1 0 1  #fffffffe 1  #fffffffe 1 10 round round [1 0 0 1] [0 255]
SplineSet
955 606 m 2
 985 606 1056 536 1056 505 c 0
 1056 498 1052 494 1045 494 c 2
 495 494 l 2
 465 494 394 564 394 595 c 0
 394 602 398 606 405 606 c 2
 955 606 l 2
EndSplineSet
Layer: 1  0 1 1  #fffffffe 1  #fffffffe 1 50 miter butt [1 0 0 1] [0 255]
SplineSet
450 550 m 29
 1000 550 l 1053
EndSplineSet
Position2: "Zero width post-base -1000" dx=-1000 dy=0 dh=-1000 dv=0
Colour: ff00ff
EndChar

StartChar: _vedic_visarga_udatta
Encoding: 211 7395 794
Width: 1000
GlyphClass: 4
InSpiro: 1
Flags: MW
LayerCount: 2
Layer: 0  1 0 1  #fffffffe 1  #fffffffe 1 10 round round [1 0 0 1] [0 255]
SplineSet
446 514 m 2
 416 514 345 584 345 615 c 0
 345 622 349 626 356 626 c 2
 527 626 l 2
 556 626 585 625 614 625 c 0
 736 625 839 650 839 769 c 0
 839 826 815 861 787 889 c 0
 772 904 750 923 723 945 c 2
 577 1065 l 2
 554 1084 523 1124 523 1142 c 0
 523 1149 527 1153 534 1153 c 0
 545 1153 563 1144 581 1129 c 2
 727 1009 l 2
 793 954 879 878 922 792 c 0
 942 753 951 716 951 680 c 0
 951 546 842 513 704 513 c 0
 675 513 646 514 617 514 c 2
 446 514 l 2
EndSplineSet
Layer: 1  0 1 1  #fffffffe 1  #fffffffe 1 50 miter butt [1 0 0 1] [0 255]
Refer: 1263 -1 S 1 0 0 1 0 0 2
Colour: ffffff
EndChar

StartChar: _vedic_visarga_udatta_rev
Encoding: 212 7396 795
Width: 1000
GlyphClass: 4
Flags: MW
LayerCount: 2
Layer: 0  1 0 1  #fffffffe 1  #fffffffe 1 10 round round [1 0 0 1] [0 255]
SplineSet
427 1228 m 0
 457 1228 528 1158 528 1127 c 0
 528 1123 526 1120 524 1118 c 2
 378 998 l 2
 324 953 266 907 234 842 c 0
 220 814 212 783 212 754 c 0
 212 739 214 725 218 714 c 1
 252 701 301 700 347 700 c 0
 376 700 405 701 434 701 c 2
 605 701 l 2
 635 701 706 631 706 600 c 0
 706 593 702 589 695 589 c 2
 524 589 l 2
 495 589 466 588 437 588 c 0
 316 588 243 612 179 676 c 0
 129 726 100 769 100 844 c 0
 100 880 109 913 124 943 c 0
 158 1011 218 1060 274 1106 c 2
 420 1226 l 2
 422 1228 424 1228 427 1228 c 0
EndSplineSet
Layer: 1  0 1 1  #fffffffe 1  #fffffffe 1 50 miter butt [1 0 0 1] [0 255]
Refer: 794 7395 S -1 0 0 1 1051 75 2
Colour: ffffff
EndChar

StartChar: _vedic_visarga_anudatta
Encoding: 213 7397 796
Width: 1000
GlyphClass: 4
Flags: MW
LayerCount: 2
Layer: 0  1 0 1  #fffffffe 1  #fffffffe 1 10 round round [1 0 0 1] [0 255]
SplineSet
605 676 m 2
 635 676 706 606 706 575 c 0
 706 568 702 564 695 564 c 2
 524 564 l 2
 495 564 466 565 437 565 c 0
 315 565 212 540 212 421 c 0
 212 364 236 329 264 301 c 0
 279 286 301 267 328 245 c 2
 474 125 l 2
 497 106 528 66 528 48 c 0
 528 41 524 37 517 37 c 0
 506 37 488 46 470 61 c 2
 324 181 l 2
 258 236 172 312 129 398 c 0
 109 437 100 474 100 510 c 0
 100 644 209 677 347 677 c 0
 376 677 405 676 434 676 c 2
 605 676 l 2
EndSplineSet
Layer: 1  0 1 1  #fffffffe 1  #fffffffe 1 50 miter butt [1 0 0 1] [0 255]
Refer: 795 7396 S 1 0 0 -1 0 1265 2
Colour: ffffff
EndChar

StartChar: _vedic_visarga_anudatta_rev
Encoding: 214 7398 797
Width: 1000
GlyphClass: 4
Flags: MW
LayerCount: 2
Layer: 0  1 0 1  #fffffffe 1  #fffffffe 1 10 round round [1 0 0 1] [0 255]
SplineSet
234 28 m 0
 204 28 133 98 133 129 c 0
 133 133 135 136 137 138 c 2
 283 258 l 2
 337 303 395 349 427 414 c 0
 441 442 449 473 449 502 c 0
 449 517 447 531 443 542 c 1
 409 555 360 556 314 556 c 0
 285 556 256 555 227 555 c 2
 56 555 l 2
 26 555 -45 625 -45 656 c 0
 -45 663 -41 667 -34 667 c 2
 137 667 l 2
 166 667 195 668 224 668 c 0
 345 668 418 644 482 580 c 0
 532 530 561 487 561 412 c 0
 561 376 552 343 537 313 c 0
 503 245 443 196 387 150 c 2
 241 30 l 2
 239 28 237 28 234 28 c 0
EndSplineSet
Layer: 1  0 1 1  #fffffffe 1  #fffffffe 1 50 miter butt [1 0 0 1] [0 255]
Refer: 794 7395 S 1 0 0 -1 -390 1181 2
Colour: ffffff
EndChar

StartChar: _vedic_udatta_tail
Encoding: 215 7399 798
Width: 1000
GlyphClass: 4
InSpiro: 1
Flags: MW
LayerCount: 2
Layer: 0  1 0 1  #fffffffe 1  #fffffffe 1 10 round round [1 0 0 1] [0 255]
SplineSet
335 1082 m 0
 335 1161 386 1216 464 1216 c 0
 484 1216 503 1213 525 1205 c 0
 586 1183 641 1136 682 1092 c 0
 717 1054 746 1014 768 976 c 0
 774 966 777 957 777 950 c 0
 777 943 773 939 766 939 c 0
 740 939 690 988 675 1014 c 0
 648 1060 621 1104 552 1104 c 0
 489 1104 447 1057 447 993 c 0
 447 952 469 920 475 913 c 0
 512 873 571 833 614 784 c 0
 650 742 676 698 686 660 c 0
 690 645 692 632 692 618 c 0
 692 509 593 483 485 483 c 2
 316 483 l 2
 286 483 216 552 216 583 c 0
 216 590 220 595 227 595 c 2
 396 595 l 2
 490 595 579 614 579 708 c 0
 579 741 562 767 552 777 c 0
 517 812 466 848 425 893 c 0
 366 958 335 1016 335 1082 c 0
EndSplineSet
Layer: 1  0 1 1  #fffffffe 1  #fffffffe 1 50 miter butt [1 0 0 1] [0 255]
Refer: 1264 -1 S 1 0 0 1 0 0 2
Colour: ffffff
EndChar

StartChar: _vedic_anudatta_tail
Encoding: 216 7400 799
Width: 1000
GlyphClass: 4
InSpiro: 1
Flags: MW
LayerCount: 2
Layer: 0  1 0 1  #fffffffe 1  #fffffffe 1 10 round round [1 0 0 1] [0 255]
SplineSet
520 25 m 0
 520 -54 470 -109 392 -109 c 0
 372 -109 352 -106 330 -98 c 0
 269 -76 214 -29 173 15 c 0
 138 53 109 93 87 131 c 0
 81 141 78 150 78 157 c 0
 78 164 82 168 89 168 c 0
 115 168 165 119 180 93 c 0
 207 47 234 3 303 3 c 0
 366 3 408 50 408 114 c 0
 408 155 386 187 380 194 c 0
 343 234 284 274 241 323 c 0
 205 365 179 409 169 447 c 0
 165 462 164 475 164 489 c 0
 164 598 262 624 370 624 c 2
 538 624 l 2
 568 624 639 555 639 524 c 0
 639 517 635 512 628 512 c 2
 459 512 l 2
 365 512 276 493 276 399 c 0
 276 366 293 340 303 330 c 0
 338 295 389 259 430 214 c 0
 489 149 520 91 520 25 c 0
EndSplineSet
Layer: 1  0 1 1  #fffffffe 1  #fffffffe 1 50 miter butt [1 0 0 1] [0 255]
Refer: 798 7399 S -1 0 0 -1 855 1107 2
Colour: ffffff
EndChar

StartChar: _vedic_antargomukha
Encoding: 217 7401 800
Width: 1000
GlyphClass: 2
InSpiro: 1
Flags: MW
AnchorPoint: "below_middle_mark" 818 0 basechar 0
AnchorPoint: "above_mark" 688 850 basechar 0
LayerCount: 2
Layer: 0  1 0 1  #fffffffe 1  #fffffffe 1 10 round round [1 0 0 1] [0 255]
SplineSet
760 654 m 0
 699 654 649 612 649 550 c 0
 649 539 651 528 654 520 c 1
 675 510 701 505 730 505 c 0
 738 505 747 506 755 506 c 0
 777 506 824 465 841 440 c 1
 843 460 844 479 844 499 c 0
 844 551 833 611 813 641 c 1
 804 646 780 654 760 654 c 0
463 550 m 0
 463 447 368 393 270 393 c 0
 229 393 214 400 182 432 c 0
 173 441 165 451 159 460 c 1
 157 443 156 427 156 410 c 0
 156 300 196 187 250 133 c 0
 290 93 372 56 455 56 c 0
 562 56 671 115 738 194 c 0
 786 251 817 320 833 393 c 1
 829 393 824 393 820 393 c 0
 775 393 747 399 707 418 c 0
 681 430 635 462 602 498 c 0
 563 541 548 578 541 606 c 0
 538 618 537 629 537 640 c 0
 537 716 596 766 671 766 c 0
 684 766 698 764 712 761 c 0
 740 754 771 741 810 711 c 0
 894 646 956 550 956 411 c 0
 956 169 790 -56 545 -56 c 0
 387 -56 261 38 178 137 c 0
 96 234 44 348 44 500 c 0
 44 601 76 682 136 729 c 0
 165 751 200 766 239 766 c 0
 340 766 427 671 453 603 c 0
 461 583 463 568 463 550 c 0
180 505 m 0
 263 505 351 552 351 640 c 0
 351 655 345 654 330 654 c 0
 243 654 186 577 167 505 c 1
 171 505 176 505 180 505 c 0
EndSplineSet
Layer: 1  0 1 1  #fffffffe 1  #fffffffe 1 50 miter butt [1 0 0 1] [0 255]
Refer: 1265 -1 N 1 0 0 1 0 0 2
Colour: ffffff
EndChar

StartChar: _vedic_bahirgomukha
Encoding: 218 7402 801
Width: 1000
GlyphClass: 2
InSpiro: 1
Flags: MW
AnchorPoint: "below_middle_mark" 748 0 basechar 0
AnchorPoint: "above_mark" 734 850.271 basechar 0
LayerCount: 2
Layer: 0  1 0 1  #fffffffe 1  #fffffffe 1 10 round round [1 0 0 1] [0 255]
SplineSet
281 701 m 0
 222 701 173 658 173 599 c 0
 173 595 174 591 174 588 c 0
 180 587 187 586 195 586 c 0
 213 586 252 556 271 533 c 1
 297 567 318 601 318 652 c 0
 318 669 315 685 311 696 c 1
 303 699 292 701 281 701 c 0
805 484 m 0
 775 484 704 554 704 585 c 0
 704 601 732 596 746 600 c 0
 789 612 830 647 830 702 c 0
 830 706 830 711 829 716 c 1
 823 717 816 717 809 717 c 0
 733 717 678 652 678 576 c 0
 678 502 722 475 759 439 c 0
 818 382 909 293 909 186 c 0
 909 96 850 33 792 -2 c 0
 719 -46 631 -56 546 -56 c 0
 352 -56 220 17 142 144 c 0
 116 186 103 216 103 267 c 0
 103 369 178 429 230 484 c 1
 160 509 83 583 65 659 c 0
 63 670 61 679 61 689 c 0
 61 762 118 813 191 813 c 0
 298 813 430 686 430 563 c 0
 430 465 363 407 313 355 c 0
 271 311 215 256 215 178 c 0
 215 98 262 81 330 67 c 0
 369 59 413 56 456 56 c 0
 537 56 621 66 690 107 c 0
 743 139 797 196 797 276 c 0
 797 332 773 355 747 381 c 0
 687 441 603 517 576 605 c 0
 570 626 566 646 566 666 c 0
 566 757 629 829 719 829 c 0
 809 829 880 757 916 698 c 0
 934 668 942 648 942 612 c 0
 942 535 881 484 805 484 c 0
EndSplineSet
Layer: 1  0 1 1  #fffffffe 1  #fffffffe 1 50 miter butt [1 0 0 1] [0 255]
Refer: 1266 -1 N 1 0 0 1 0 0 2
Colour: ffffff
EndChar

StartChar: _vedic_vamagomukha
Encoding: 219 7403 802
Width: 1000
GlyphClass: 2
InSpiro: 1
Flags: MW
AnchorPoint: "below_middle_mark" 750 0 basechar 0
AnchorPoint: "above_mark" 692 841.314 basechar 0
LayerCount: 2
Layer: 0  1 0 1  #fffffffe 1  #fffffffe 1 10 round round [1 0 0 1] [0 255]
SplineSet
755 506 m 0
 779 506 828 462 844 436 c 1
 845 446 845 456 845 466 c 0
 845 531 835 599 809 638 c 1
 797 645 776 650 756 650 c 0
 697 650 648 608 648 548 c 0
 648 537 650 527 653 519 c 1
 673 510 701 505 730 505 c 0
 738 505 747 506 755 506 c 0
280 700 m 0
 221 700 173 657 173 598 c 0
 173 595 174 591 174 588 c 0
 181 587 188 586 195 586 c 0
 213 586 253 555 272 532 c 1
 297 566 318 600 318 651 c 0
 318 668 315 685 311 696 c 1
 303 699 291 700 280 700 c 0
103 263 m 0
 103 367 179 428 231 484 c 1
 161 508 83 583 65 659 c 0
 63 669 61 679 61 688 c 0
 61 761 118 812 191 812 c 0
 298 812 430 685 430 562 c 0
 430 464 363 406 314 354 c 0
 271 309 215 255 215 174 c 0
 215 143 226 114 236 99 c 1
 267 68 347 54 413 54 c 0
 533 54 640 81 721 153 c 0
 786 211 827 292 840 394 c 1
 833 393 827 393 820 393 c 0
 775 393 747 399 707 418 c 0
 681 430 635 461 602 497 c 0
 562 541 546 578 540 606 c 0
 537 617 536 627 536 638 c 0
 536 713 594 762 668 762 c 0
 742 762 798 719 843 674 c 0
 915 602 957 511 957 377 c 0
 957 233 908 119 827 47 c 0
 741 -29 629 -57 502 -57 c 0
 367 -57 277 -12 201 64 c 0
 151 114 103 176 103 263 c 0
EndSplineSet
Layer: 1  0 1 1  #fffffffe 1  #fffffffe 1 50 miter butt [1 0 0 1] [0 255]
Refer: 1267 -1 N 1 0 0 1 0 0 2
Colour: ffffff
EndChar

